<svg width="16" height="9" viewBox="0 0 16 9" fill="none" xmlns="http://www.w3.org/2000/svg">
<g clip-path="url(#clip0_1113_4936)">
<path d="M7.07038 8.65922L1.14591 2.18361C0.446736 1.4217 1.01497 0.225098 2.07609 0.225098L13.925 0.225099C14.1625 0.224905 14.395 0.290171 14.5947 0.413084C14.7944 0.535997 14.9528 0.711345 15.0509 0.91813C15.1491 1.12492 15.1828 1.35437 15.1481 1.57902C15.1134 1.80367 15.0117 2.01399 14.8552 2.18479L8.93073 8.65804C8.81479 8.78492 8.6718 8.88661 8.51136 8.95628C8.35093 9.02596 8.17676 9.06201 8.00056 9.06201C7.82435 9.06201 7.65019 9.02596 7.48975 8.95628C7.32932 8.88661 7.18633 8.78492 7.07038 8.65804L7.07038 8.65922Z" fill="white"/>
</g>
<defs>
<clipPath id="clip0_1113_4936">
<rect width="16" height="9" fill="white"/>
</clipPath>
</defs>
</svg>
