<svg width="580" height="328" viewBox="0 0 580 328" fill="none" xmlns="http://www.w3.org/2000/svg">
<g clip-path="url(#clip0_107_794)">
<g opacity="0.1">
<path opacity="0.1" d="M217.703 211.366C221.396 211.366 224.39 207.431 224.39 202.577C224.39 197.723 221.396 193.788 217.703 193.788C214.01 193.788 211.016 197.723 211.016 202.577C211.016 207.431 214.01 211.366 217.703 211.366Z" fill="#3F3D56"/>
<path opacity="0.1" d="M222.997 164.972C223.93 163.337 224.413 161.482 224.396 159.598C224.396 154.743 221.399 150.809 217.703 150.809C214.007 150.809 210.993 154.755 210.993 159.61C210.976 161.494 211.458 163.349 212.391 164.984C211.474 166.624 210.993 168.474 210.993 170.355C210.993 172.236 211.474 174.085 212.391 175.726C211.474 177.366 210.993 179.215 210.993 181.096C210.993 182.977 211.474 184.827 212.391 186.467C211.457 188.102 210.974 189.957 210.993 191.841C210.993 196.69 213.989 200.631 217.679 200.631C221.369 200.631 224.372 196.69 224.372 191.841C224.391 189.957 223.908 188.102 222.974 186.467C223.89 184.827 224.372 182.977 224.372 181.096C224.372 179.215 223.89 177.366 222.974 175.726C223.89 174.085 224.372 172.236 224.372 170.355C224.372 168.474 223.89 166.624 222.974 164.984L222.997 164.972Z" fill="#3F3D56"/>
<path opacity="0.1" d="M217.703 157.657C221.396 157.657 224.39 153.722 224.39 148.868C224.39 144.014 221.396 140.079 217.703 140.079C214.01 140.079 211.016 144.014 211.016 148.868C211.016 153.722 214.01 157.657 217.703 157.657Z" fill="#3F3D56"/>
<path opacity="0.1" d="M217.703 146.915C221.396 146.915 224.39 142.98 224.39 138.126C224.39 133.272 221.396 129.336 217.703 129.336C214.01 129.336 211.016 133.272 211.016 138.126C211.016 142.98 214.01 146.915 217.703 146.915Z" fill="#3F3D56"/>
</g>
<g opacity="0.1">
<path opacity="0.1" d="M295.77 190.349C298.532 190.349 300.771 187.41 300.771 183.784C300.771 180.158 298.532 177.218 295.77 177.218C293.009 177.218 290.77 180.158 290.77 183.784C290.77 187.41 293.009 190.349 295.77 190.349Z" fill="#3F3D56"/>
<path opacity="0.1" d="M295.77 150.213C298.532 150.213 300.771 147.273 300.771 143.647C300.771 140.021 298.532 137.082 295.77 137.082C293.009 137.082 290.77 140.021 290.77 143.647C290.77 147.273 293.009 150.213 295.77 150.213Z" fill="#3F3D56"/>
<path opacity="0.1" d="M295.77 142.185C298.532 142.185 300.771 139.245 300.771 135.619C300.771 131.993 298.532 129.054 295.77 129.054C293.009 129.054 290.77 131.993 290.77 135.619C290.77 139.245 293.009 142.185 295.77 142.185Z" fill="#3F3D56"/>
</g>
<g opacity="0.1">
<path opacity="0.1" d="M546.26 187.771C549.953 187.771 552.947 183.836 552.947 178.982C552.947 174.128 549.953 170.192 546.26 170.192C542.567 170.192 539.573 174.128 539.573 178.982C539.573 183.836 542.567 187.771 546.26 187.771Z" fill="#3F3D56"/>
<path opacity="0.1" d="M540.966 141.376C540.033 139.741 539.551 137.886 539.568 136.002C539.568 131.147 542.564 127.213 546.26 127.213C549.956 127.213 552.947 131.147 552.947 136.002C552.964 137.886 552.481 139.741 551.549 141.376C552.465 143.017 552.947 144.866 552.947 146.747C552.947 148.628 552.465 150.478 551.549 152.118C552.465 153.759 552.947 155.608 552.947 157.489C552.947 159.37 552.465 161.219 551.549 162.86C552.483 164.494 552.966 166.35 552.947 168.234C552.947 173.083 549.95 177.023 546.26 177.023C542.57 177.023 539.568 173.083 539.568 168.234C539.549 166.35 540.032 164.494 540.966 162.86C540.049 161.219 539.568 159.37 539.568 157.489C539.568 155.608 540.049 153.759 540.966 152.118C540.049 150.478 539.568 148.628 539.568 146.747C539.568 144.866 540.049 143.017 540.966 141.376Z" fill="#3F3D56"/>
<path opacity="0.1" d="M546.26 134.062C549.953 134.062 552.947 130.127 552.947 125.272C552.947 120.418 549.953 116.483 546.26 116.483C542.567 116.483 539.573 120.418 539.573 125.272C539.573 130.127 542.567 134.062 546.26 134.062Z" fill="#3F3D56"/>
<path opacity="0.1" d="M546.26 123.32C549.953 123.32 552.947 119.385 552.947 114.531C552.947 109.676 549.953 105.741 546.26 105.741C542.567 105.741 539.573 109.676 539.573 114.531C539.573 119.385 542.567 123.32 546.26 123.32Z" fill="#3F3D56"/>
<path opacity="0.1" d="M571.292 41.0123C572.208 39.8462 573.041 38.6161 573.783 37.3314L556.214 34.435L575.217 34.5766C577.036 30.5924 578.027 26.2775 578.128 21.8958C578.229 17.5141 577.438 13.1577 575.804 9.09331L550.309 22.3717L573.812 5.01717C571.627 1.16075 568.671 -2.20018 565.13 -4.85434C561.589 -7.5085 557.539 -9.3985 553.235 -10.4055C548.93 -11.4126 544.465 -11.5149 540.12 -10.706C535.775 -9.89714 531.643 -8.1946 527.985 -5.70539C524.327 -3.21619 521.221 0.0058527 518.863 3.75818C516.505 7.5105 514.945 11.712 514.283 16.0985C513.62 20.485 513.868 24.9617 515.012 29.2472C516.156 33.5327 518.171 37.5343 520.929 41.0005C519.505 42.8175 518.279 44.7833 517.274 46.864L540.091 58.7916L515.77 50.598C514.061 55.6663 513.638 61.0826 514.54 66.3564C515.442 71.6301 517.64 76.5947 520.935 80.8004C517.218 85.5442 514.905 91.2423 514.262 97.2433C513.619 103.244 514.67 109.306 517.297 114.735C519.923 120.164 524.019 124.742 529.115 127.945C534.21 131.148 540.101 132.846 546.113 132.846C552.126 132.846 558.016 131.148 563.112 127.945C568.208 124.742 572.304 120.164 574.93 114.735C577.557 109.306 578.608 103.244 577.965 97.2433C577.322 91.2423 575.009 85.5442 571.292 80.8004C575.734 75.1315 578.149 68.1281 578.149 60.9152C578.149 53.7023 575.734 46.6988 571.292 41.03V41.0123Z" fill="#2B4CC0"/>
<path opacity="0.1" d="M514.078 60.8974C514.067 68.1121 516.483 75.1192 520.935 80.7826C517.218 85.5263 514.906 91.2244 514.262 97.2255C513.619 103.226 514.67 109.288 517.297 114.717C519.923 120.147 524.019 124.724 529.115 127.927C534.211 131.13 540.101 132.828 546.114 132.828C552.126 132.828 558.016 131.13 563.112 127.927C568.208 124.724 572.304 120.147 574.93 114.717C577.557 109.288 578.608 103.226 577.965 97.2255C577.322 91.2244 575.009 85.5263 571.292 80.7826C575.587 75.3084 514.078 57.2872 514.078 60.8974Z" fill="black"/>
</g>
<g opacity="0.1">
<path opacity="0.1" d="M481.708 186.81C484.469 186.81 486.708 183.87 486.708 180.244C486.708 176.618 484.469 173.679 481.708 173.679C478.946 173.679 476.708 176.618 476.708 180.244C476.708 183.87 478.946 186.81 481.708 186.81Z" fill="#3F3D56"/>
<path opacity="0.1" d="M477.759 152.148C477.064 150.927 476.705 149.542 476.719 148.136C476.719 144.508 478.958 141.565 481.714 141.565C484.47 141.565 486.714 144.514 486.714 148.136C486.729 149.543 486.368 150.929 485.668 152.148C486.354 153.374 486.714 154.756 486.714 156.162C486.714 157.568 486.354 158.95 485.668 160.176C486.354 161.402 486.714 162.784 486.714 164.19C486.714 165.596 486.354 166.979 485.668 168.204C486.368 169.424 486.729 170.809 486.714 172.216C486.714 175.844 484.475 178.787 481.714 178.787C478.952 178.787 476.719 175.838 476.719 172.216C476.705 170.81 477.064 169.425 477.759 168.204C477.079 166.977 476.722 165.595 476.722 164.19C476.722 162.785 477.079 161.404 477.759 160.176C477.079 158.948 476.722 157.567 476.722 156.162C476.722 154.757 477.079 153.375 477.759 152.148Z" fill="#3F3D56"/>
<path opacity="0.1" d="M481.708 146.673C484.469 146.673 486.708 143.734 486.708 140.108C486.708 136.482 484.469 133.542 481.708 133.542C478.946 133.542 476.708 136.482 476.708 140.108C476.708 143.734 478.946 146.673 481.708 146.673Z" fill="#3F3D56"/>
<path opacity="0.1" d="M481.708 138.645C484.469 138.645 486.708 135.705 486.708 132.079C486.708 128.453 484.469 125.514 481.708 125.514C478.946 125.514 476.708 128.453 476.708 132.079C476.708 135.705 478.946 138.645 481.708 138.645Z" fill="#3F3D56"/>
<path opacity="0.1" d="M500.417 77.1429C501.103 76.2729 501.725 75.3542 502.279 74.394L489.147 72.2291L503.349 72.3353C504.711 69.3584 505.455 66.1339 505.533 62.8589C505.612 59.5838 505.025 56.3271 503.807 53.2877L484.751 63.2155L502.326 50.238C500.683 47.3759 498.469 44.8847 495.824 42.9198C493.178 40.955 490.158 39.5586 486.951 38.818C483.744 38.0773 480.419 38.0082 477.184 38.615C473.95 39.2218 470.874 40.4915 468.15 42.3448C465.426 44.1981 463.112 46.5952 461.351 49.3865C459.591 52.1778 458.423 55.3034 457.92 58.5682C457.417 61.833 457.589 65.1668 458.427 68.3617C459.264 71.5565 460.749 74.5438 462.787 77.137C461.724 78.4962 460.808 79.9655 460.055 81.5199L477.095 90.4095L458.956 84.2923C457.68 88.0799 457.364 92.1272 458.038 96.068C458.712 100.009 460.355 103.719 462.817 106.862C460.035 110.405 458.304 114.664 457.82 119.149C457.337 123.635 458.121 128.166 460.082 132.226C462.044 136.285 465.104 139.708 468.913 142.102C472.722 144.497 477.125 145.767 481.62 145.767C486.114 145.767 490.517 144.497 494.326 142.102C498.135 139.708 501.195 136.285 503.157 132.226C505.119 128.166 505.903 123.635 505.419 119.149C504.936 114.664 503.204 110.405 500.423 106.862C503.742 102.625 505.547 97.3921 505.547 92.0022C505.547 86.6123 503.742 81.3789 500.423 77.1429H500.417Z" fill="#2B4CC0"/>
<path opacity="0.1" d="M457.664 92.0022C457.656 97.3933 459.461 102.629 462.787 106.862C460.006 110.405 458.274 114.664 457.791 119.149C457.307 123.635 458.091 128.166 460.053 132.226C462.015 136.285 465.075 139.708 468.884 142.102C472.693 144.497 477.096 145.767 481.59 145.767C486.084 145.767 490.488 144.497 494.297 142.102C498.105 139.708 501.166 136.285 503.128 132.226C505.089 128.166 505.873 123.635 505.39 119.149C504.906 114.664 503.175 110.405 500.393 106.862C503.613 102.774 457.664 89.3064 457.664 92.0022Z" fill="black"/>
</g>
<g opacity="0.1">
<path opacity="0.1" d="M-52.8358 41.0123C-53.7502 39.8447 -54.5826 38.6148 -55.3271 37.3313L-37.7523 34.435L-56.7726 34.6061C-58.5919 30.6219 -59.5824 26.3069 -59.6834 21.9252C-59.7844 17.5436 -58.9939 13.1872 -57.3602 9.1228L-31.8587 22.4012L-55.3624 5.04665C-53.1718 1.20172 -50.2136 -2.14748 -46.6733 -4.79101C-43.1331 -7.43453 -39.087 -9.31539 -34.7888 -10.3157C-30.4906 -11.316 -26.0329 -11.4141 -21.6952 -10.604C-17.3574 -9.79387 -13.2331 -8.09292 -9.58078 -5.60778C-5.92846 -3.12263 -2.82687 0.0931406 -0.470421 3.83795C1.88603 7.58276 3.44653 11.7759 4.11327 16.1545C4.78 20.533 4.53859 25.0027 3.40417 29.2832C2.26975 33.5638 0.266785 37.5629 -2.47918 41.03C-1.05456 42.8469 0.170795 44.8128 1.17564 46.8935L-21.6464 58.7916L2.67987 50.598C4.38516 55.6672 4.8054 61.0831 3.90261 66.3563C2.99981 71.6294 0.802437 76.5937 -2.49094 80.8004C1.22631 85.5441 3.53886 91.2422 4.18228 97.2433C4.8257 103.244 3.77402 109.306 1.14749 114.735C-1.47903 120.164 -5.57439 124.742 -10.6703 127.945C-15.7663 131.147 -21.6571 132.846 -27.6692 132.846C-33.6814 132.846 -39.5722 131.147 -44.6681 127.945C-49.764 124.742 -53.8594 120.164 -56.4859 114.735C-59.1125 109.306 -60.1641 103.244 -59.5207 97.2433C-58.8773 91.2422 -56.5648 85.5441 -52.8475 80.8004C-57.2899 75.1315 -59.7051 68.128 -59.7051 60.9152C-59.7051 53.7023 -57.2899 46.6988 -52.8475 41.03L-52.8358 41.0123Z" fill="#2B4CC0"/>
<path opacity="0.1" d="M4.36619 60.8974C4.37776 68.1121 1.96142 75.1192 -2.49101 80.7826C1.22624 85.5263 3.53879 91.2245 4.18221 97.2255C4.82562 103.226 3.77394 109.288 1.14742 114.717C-1.47911 120.147 -5.57447 124.724 -10.6704 127.927C-15.7663 131.13 -21.6571 132.828 -27.6693 132.828C-33.6814 132.828 -39.5722 131.13 -44.6682 127.927C-49.7641 124.724 -53.8595 120.147 -56.486 114.717C-59.1125 109.288 -60.1642 103.226 -59.5208 97.2255C-58.8774 91.2245 -56.5648 85.5263 -52.8476 80.7826C-57.1429 75.3084 4.36619 57.2872 4.36619 60.8974Z" fill="black"/>
</g>
<g opacity="0.1">
<path opacity="0.1" d="M36.7368 186.81C39.4984 186.81 41.7372 183.87 41.7372 180.244C41.7372 176.618 39.4984 173.679 36.7368 173.679C33.9752 173.679 31.7364 176.618 31.7364 180.244C31.7364 183.87 33.9752 186.81 36.7368 186.81Z" fill="#3F3D56"/>
<path opacity="0.1" d="M40.6913 152.148C41.3864 150.927 41.7454 149.542 41.7313 148.136C41.7313 144.508 39.4985 141.565 36.7368 141.565C33.9751 141.565 31.7364 144.514 31.7364 148.136C31.7241 149.543 32.0851 150.927 32.7823 152.148C32.0967 153.374 31.7366 154.756 31.7366 156.162C31.7366 157.568 32.0967 158.95 32.7823 160.176C32.0967 161.402 31.7366 162.784 31.7366 164.19C31.7366 165.596 32.0967 166.979 32.7823 168.204C32.0851 169.425 31.7241 170.809 31.7364 172.216C31.7364 175.844 33.9751 178.787 36.7368 178.787C39.4985 178.787 41.7313 175.838 41.7313 172.216C41.7454 170.81 41.3864 169.425 40.6913 168.204C41.3715 166.977 41.7285 165.595 41.7285 164.19C41.7285 162.785 41.3715 161.404 40.6913 160.176C41.3715 158.948 41.7285 157.567 41.7285 156.162C41.7285 154.757 41.3715 153.375 40.6913 152.148Z" fill="#3F3D56"/>
<path opacity="0.1" d="M36.7368 146.673C39.4984 146.673 41.7372 143.734 41.7372 140.108C41.7372 136.482 39.4984 133.542 36.7368 133.542C33.9752 133.542 31.7364 136.482 31.7364 140.108C31.7364 143.734 33.9752 146.673 36.7368 146.673Z" fill="#3F3D56"/>
<path opacity="0.1" d="M36.7368 138.645C39.4984 138.645 41.7372 135.705 41.7372 132.079C41.7372 128.453 39.4984 125.514 36.7368 125.514C33.9752 125.514 31.7364 128.453 31.7364 132.079C31.7364 135.705 33.9752 138.645 36.7368 138.645Z" fill="#3F3D56"/>
<path opacity="0.1" d="M18.0279 77.1428C17.3438 76.2714 16.7213 75.3529 16.1653 74.394L29.2979 72.2291L15.0958 72.3352C13.7334 69.3584 12.9901 66.1339 12.9113 62.8589C12.8325 59.5838 13.4199 56.3271 14.6375 53.2877L33.6931 63.2155L16.1183 50.238C17.7619 47.3759 19.9755 44.8847 22.6209 42.9198C25.2664 40.955 28.2868 39.5586 31.4938 38.818C34.7008 38.0773 38.0254 38.0082 41.2602 38.615C44.4949 39.2218 47.5704 40.4915 50.2945 42.3448C53.0187 44.1981 55.3331 46.5952 57.0933 49.3865C58.8534 52.1778 60.0216 55.3034 60.5248 58.5682C61.028 61.833 60.8555 65.1668 60.018 68.3617C59.1806 71.5565 57.6961 74.5438 55.6573 77.137C56.7248 78.4934 57.641 79.9631 58.3896 81.5198L41.3494 90.4095L59.5236 84.2864C60.8002 88.0739 61.1157 92.1213 60.4416 96.062C59.7676 100.003 58.1252 103.713 55.6632 106.856C58.4446 110.399 60.1762 114.658 60.6597 119.143C61.1433 123.629 60.3593 128.16 58.3976 132.22C56.4358 136.279 53.3754 139.702 49.5666 142.096C45.7578 144.491 41.3544 145.761 36.8602 145.761C32.3661 145.761 27.9627 144.491 24.1539 142.096C20.3451 139.702 17.2847 136.279 15.3229 132.22C13.3611 128.16 12.5772 123.629 13.0607 119.143C13.5443 114.658 15.2759 110.399 18.0573 106.856C14.7377 102.62 12.9329 97.3862 12.9329 91.9963C12.9329 86.6064 14.7377 81.373 18.0573 77.137L18.0279 77.1428Z" fill="#2B4CC0"/>
<path opacity="0.1" d="M60.781 92.0022C60.789 97.3933 58.9836 102.629 55.6572 106.862C58.4387 110.405 60.1702 114.664 60.6538 119.149C61.1374 123.635 60.3534 128.166 58.3916 132.226C56.4298 136.285 53.3695 139.708 49.5607 142.102C45.7519 144.497 41.3485 145.767 36.8543 145.767C32.3602 145.767 27.9568 144.497 24.148 142.102C20.3392 139.708 17.2788 136.285 15.317 132.226C13.3552 128.166 12.5713 123.635 13.0548 119.149C13.5384 114.664 15.27 110.405 18.0514 106.862C14.8196 102.774 60.781 89.3064 60.781 92.0022Z" fill="black"/>
</g>
<path opacity="0.2" d="M411.238 54.0729C409.14 53.6752 406.972 53.9134 405.01 54.7571C403.832 55.2841 402.556 55.5565 401.267 55.5565C399.977 55.5565 398.702 55.2841 397.524 54.7571C396.13 54.143 394.62 53.8402 393.098 53.8697C391.576 53.8993 390.079 54.2604 388.71 54.9282C387.93 55.3442 387.061 55.5629 386.177 55.5653C382.605 55.5653 379.637 51.9552 379.021 47.1947C379.724 46.6686 380.322 46.0142 380.783 45.2658C382.875 41.8798 386.113 39.7031 389.756 39.7031C393.399 39.7031 396.595 41.8503 398.687 45.2009C399.31 46.2132 400.184 47.0463 401.223 47.619C402.262 48.1917 403.431 48.4845 404.616 48.4689H404.71C407.583 48.4394 410.045 50.7282 411.238 54.0729Z" fill="#2B4CC0"/>
<path opacity="0.4" d="M422.114 39.1186L416.344 42.7877L419.87 36.3933C418.877 35.5998 417.648 35.1618 416.379 35.1486H416.285C415.892 35.154 415.499 35.1244 415.11 35.0601L413.124 36.3048L413.964 34.7711C412.576 34.2886 411.376 33.3755 410.539 32.1637L407.013 34.3935L409.223 30.3587C407.178 27.8929 404.416 26.3828 401.384 26.3828C397.741 26.3828 394.504 28.5536 392.406 31.9396C391.787 32.952 390.913 33.7822 389.872 34.3458C388.831 34.9094 387.659 35.1864 386.477 35.1486H386.283C382.264 35.1486 379.009 39.7203 379.009 45.3596C379.009 50.999 382.264 55.5765 386.283 55.5765C387.166 55.5706 388.034 55.3521 388.816 54.9394C390.184 54.2699 391.681 53.9073 393.203 53.8768C394.725 53.8462 396.236 54.1484 397.63 54.7625C398.807 55.2931 400.082 55.5674 401.372 55.5674C402.663 55.5674 403.938 55.2931 405.115 54.7625C406.498 54.1622 407.993 53.8668 409.5 53.8964C411.006 53.9259 412.488 54.2796 413.847 54.9335C414.62 55.3395 415.478 55.5539 416.35 55.5588C420.369 55.5588 423.624 50.9813 423.624 45.3419C423.649 43.1732 423.129 41.0331 422.114 39.1186Z" fill="#2B4CC0"/>
<path opacity="0.2" d="M165.901 50.8814C164.431 50.6025 162.911 50.7688 161.535 51.3592C160.712 51.7286 159.82 51.9196 158.917 51.9196C158.015 51.9196 157.123 51.7286 156.3 51.3592C155.325 50.9294 154.269 50.7178 153.204 50.7392C152.14 50.7606 151.093 51.0144 150.136 51.483C149.591 51.7682 148.987 51.9198 148.373 51.9255C145.876 51.9255 143.796 49.4007 143.361 46.0679C143.859 45.701 144.284 45.2427 144.613 44.717C146.076 42.3575 148.344 40.8237 150.894 40.8237C153.444 40.8237 155.683 42.328 157.146 44.6698C157.583 45.3787 158.195 45.9621 158.923 46.3631C159.651 46.7642 160.47 46.9693 161.3 46.9586H161.365C163.339 46.9468 165.061 48.5513 165.901 50.8814Z" fill="#2B4CC0"/>
<path opacity="0.4" d="M173.511 40.4221L169.474 42.994L171.924 38.5167C171.232 37.9601 170.373 37.6527 169.486 37.6437H169.415C169.136 37.6487 168.856 37.627 168.581 37.5788L167.212 38.4518L167.799 37.3782C166.829 37.0393 165.99 36.4014 165.402 35.5555L162.952 37.1128L164.503 34.2931C163.851 33.4486 163.021 32.7601 162.072 32.2775C161.123 31.795 160.078 31.5304 159.015 31.5029C156.465 31.5029 154.197 33.0248 152.733 35.3962C152.3 36.1052 151.687 36.6865 150.958 37.0812C150.228 37.4759 149.408 37.67 148.579 37.6437H148.444C145.629 37.6437 143.35 40.8409 143.35 44.7932C143.35 48.7454 145.629 51.9426 148.444 51.9426C149.059 51.9379 149.664 51.7841 150.207 51.4943C151.164 51.0283 152.21 50.7764 153.273 50.756C154.336 50.7357 155.391 50.9473 156.365 51.3763C157.194 51.7558 158.092 51.9567 159.003 51.9662C159.9 51.9646 160.786 51.7758 161.606 51.4117C162.574 50.9913 163.62 50.7843 164.674 50.8046C165.729 50.825 166.766 51.0722 167.717 51.5297C168.261 51.8158 168.866 51.9655 169.48 51.9662C172.288 51.9662 174.568 48.7631 174.568 44.8168C174.592 43.2856 174.228 41.7734 173.511 40.4221Z" fill="#2B4CC0"/>
<path opacity="0.2" d="M94.4087 97.1348C95.877 96.8564 97.3947 97.0227 98.7686 97.6126C99.5933 97.9822 100.486 98.1732 101.389 98.1732C102.292 98.1732 103.185 97.9822 104.01 97.6126C104.985 97.1834 106.041 96.9717 107.105 96.9921C108.169 97.0125 109.216 97.2644 110.174 97.7306C110.717 98.0209 111.321 98.1748 111.937 98.1789C114.434 98.1789 116.514 95.6482 116.943 92.3154C116.445 91.9498 116.022 91.4911 115.697 90.9645C114.228 88.605 111.96 87.0771 109.416 87.0771C106.872 87.0771 104.627 88.5755 103.158 90.9232C102.722 91.6313 102.11 92.214 101.383 92.615C100.657 93.0161 99.8389 93.2217 99.0095 93.212H98.9449C96.9647 93.2238 95.2372 94.8224 94.4087 97.1348Z" fill="#2B4CC0"/>
<path opacity="0.4" d="M90.9007 87.8403L94.3969 90.1026L92.2728 86.1695C92.8733 85.6783 93.6174 85.4062 94.3867 85.3964H94.4426C94.6858 85.3999 94.9289 85.3826 95.1693 85.3445L96.3533 86.1072L95.8451 85.1681C96.6827 84.8693 97.4065 84.3082 97.9134 83.5647L100.032 84.9346L98.7112 82.4491C99.2749 81.707 99.9932 81.1021 100.814 80.6785C101.635 80.2549 102.538 80.0232 103.457 80C105.658 80 107.624 81.3387 108.89 83.4246C109.264 84.0475 109.793 84.5583 110.423 84.9055C111.053 85.2526 111.762 85.4237 112.477 85.4016H112.599C115.028 85.4016 117 88.2191 117 91.6904C117 95.1617 115.028 97.9792 112.599 97.9792C112.068 97.9768 111.545 97.8433 111.075 97.5901C110.247 97.1779 109.342 96.9546 108.421 96.9358C107.501 96.917 106.587 97.1031 105.744 97.4811C105.03 97.8177 104.254 97.9946 103.468 98C102.69 97.9993 101.922 97.8332 101.211 97.5123C100.375 97.1425 99.4713 96.9605 98.5604 96.9784C97.6495 96.9963 96.753 97.2137 95.9315 97.616C95.4611 97.8677 94.9381 97.9994 94.4071 98C91.9729 98 90.0013 95.1877 90.0013 91.7112C89.9776 90.3642 90.2869 89.0328 90.9007 87.8403Z" fill="#2B4CC0"/>
<path d="M326.343 278.166C327.876 275.311 326.137 271.819 324.139 269.276C322.141 266.734 319.697 264.085 319.75 260.847C319.826 256.193 324.75 253.438 328.681 250.972C331.6 249.134 334.293 246.956 336.702 244.483C337.709 243.531 338.543 242.409 339.164 241.168C339.981 239.351 339.957 237.275 339.904 235.269C339.736 228.627 339.409 221.989 338.923 215.354" stroke="#3F3D56" stroke-width="4" stroke-miterlimit="10"/>
<path d="M346.403 215.024C346.346 213.807 345.986 212.625 345.354 211.584C344.723 210.544 343.841 209.68 342.789 209.072L341.168 212.287L341.221 208.394C339.75 207.959 338.179 208.005 336.736 208.524C335.293 209.044 334.052 210.01 333.191 211.284C332.331 212.558 331.895 214.074 331.949 215.612C332.002 217.15 332.541 218.632 333.487 219.842C334.434 221.053 335.739 221.931 337.215 222.349C338.69 222.766 340.26 222.703 341.697 222.167C343.134 221.63 344.365 220.65 345.21 219.366C346.056 218.082 346.474 216.562 346.403 215.024Z" fill="#2B4CC0"/>
<path d="M333.5 264.174C332.772 265.593 331.599 266.733 330.161 267.416C328.723 268.098 327.101 268.286 325.547 267.951C323.992 267.615 322.59 266.774 321.56 265.558C320.529 264.342 319.926 262.819 319.844 261.224C319.79 260.219 319.95 259.213 320.314 258.275C320.847 256.906 321.78 255.732 322.991 254.907C324.202 254.081 325.634 253.644 327.098 253.652C328.561 253.661 329.988 254.114 331.19 254.953C332.392 255.792 333.312 256.977 333.829 258.351L329.31 262.044L334.281 260.864C334.287 262.014 334.019 263.149 333.5 264.174Z" fill="#2B4CC0"/>
<path d="M329.927 250.076C328.152 250.16 326.408 249.585 325.028 248.461C323.649 247.336 322.729 245.741 322.446 243.98C322.163 242.219 322.535 240.415 323.492 238.911C324.449 237.408 325.924 236.311 327.635 235.83L327.594 238.821L329.234 235.565C331.151 235.475 333.024 236.153 334.443 237.45C335.862 238.747 336.709 240.557 336.799 242.481C336.888 244.405 336.213 246.287 334.921 247.711C333.629 249.135 331.826 249.986 329.909 250.076H329.927Z" fill="#2B4CC0"/>
<path d="M347.49 238.343C346.369 238.401 345.249 238.196 344.22 237.744C343.191 237.293 342.281 236.607 341.562 235.741C340.843 234.875 340.334 233.853 340.076 232.756C339.819 231.659 339.819 230.516 340.078 229.419C340.336 228.322 340.846 227.301 341.566 226.435C342.286 225.57 343.196 224.885 344.226 224.434C345.255 223.984 346.375 223.78 347.496 223.839C348.618 223.898 349.71 224.219 350.687 224.775L349.412 228.314L352.015 225.731C353.067 226.7 353.811 227.96 354.151 229.353C354.492 230.745 354.414 232.208 353.927 233.556C353.441 234.904 352.568 236.078 351.418 236.928C350.268 237.779 348.893 238.269 347.467 238.337L347.49 238.343Z" fill="#2B4CC0"/>
<path opacity="0.1" d="M345.428 216.959C343.759 217.142 342.137 217.661 340.457 217.767C338.776 217.873 336.931 217.466 335.885 216.163C335.393 215.403 334.946 214.615 334.545 213.803C334.089 213.087 333.463 212.496 332.724 212.081C332.256 213.001 331.989 214.011 331.941 215.043C331.893 216.075 332.065 217.106 332.445 218.066C332.825 219.026 333.406 219.894 334.147 220.611C334.888 221.328 335.773 221.878 336.742 222.224C337.712 222.57 338.744 222.705 339.77 222.618C340.796 222.532 341.791 222.227 342.69 221.724C343.589 221.22 344.37 220.53 344.982 219.699C345.594 218.869 346.022 217.916 346.238 216.906C345.974 216.912 345.698 216.93 345.428 216.959Z" fill="black"/>
<path opacity="0.1" d="M347.49 238.343C346.243 238.402 345.002 238.136 343.887 237.571C342.773 237.006 341.823 236.161 341.13 235.118C340.438 234.075 340.026 232.87 339.934 231.62C339.843 230.37 340.076 229.117 340.61 227.984C341.183 228.373 341.676 228.87 342.061 229.447C342.493 230.274 342.972 231.076 343.495 231.848C344.623 233.175 346.55 233.618 348.295 233.529C350.041 233.441 351.727 232.939 353.466 232.792C353.707 232.792 353.948 232.757 354.195 232.751C353.835 234.288 352.986 235.665 351.776 236.674C350.566 237.683 349.062 238.269 347.49 238.343Z" fill="black"/>
<path opacity="0.1" d="M329.927 250.075C328.693 250.133 327.464 249.873 326.359 249.319C325.253 248.765 324.307 247.936 323.611 246.911C322.916 245.886 322.493 244.699 322.384 243.463C322.275 242.228 322.483 240.985 322.988 239.853C323.584 240.247 324.104 240.746 324.521 241.327C324.995 242.174 325.519 242.991 326.09 243.775C327.307 245.138 329.363 245.622 331.208 245.545C333.053 245.468 334.734 245.067 336.496 244.955C336.058 246.382 335.192 247.64 334.017 248.556C332.841 249.472 331.413 250.002 329.927 250.075Z" fill="black"/>
<path opacity="0.1" d="M333.5 264.174C332.772 265.594 331.599 266.733 330.161 267.416C328.723 268.099 327.101 268.287 325.547 267.951C323.992 267.615 322.59 266.774 321.56 265.558C320.529 264.342 319.926 262.819 319.844 261.224C319.79 260.219 319.95 259.213 320.314 258.275C320.91 258.668 321.445 259.147 321.901 259.697C322.588 260.534 323.041 261.466 323.84 262.274C325.315 263.731 327.706 264.333 329.827 264.386C331.055 264.39 332.281 264.319 333.5 264.174Z" fill="black"/>
<path d="M206.597 187.104C205.064 184.255 206.803 180.763 208.807 178.221C210.81 175.678 213.243 173.03 213.19 169.791C213.119 165.131 208.195 162.382 204.259 159.916C201.34 158.08 198.65 155.902 196.244 153.428C195.232 152.481 194.396 151.36 193.776 150.118C192.965 148.296 192.989 146.225 193.036 144.219C193.212 137.577 193.539 130.939 194.017 124.305" stroke="#3F3D56" stroke-width="4" stroke-miterlimit="10"/>
<path d="M186.543 123.969C186.598 122.753 186.958 121.57 187.589 120.53C188.219 119.49 189.1 118.625 190.151 118.017L191.772 121.232L191.725 117.339C192.498 117.113 193.301 117.016 194.105 117.05C195.534 117.116 196.911 117.607 198.062 118.46C199.213 119.312 200.087 120.488 200.572 121.839C201.058 123.19 201.133 124.655 200.79 126.048C200.446 127.442 199.698 128.703 198.641 129.67C197.584 130.637 196.264 131.268 194.85 131.483C193.436 131.698 191.99 131.487 190.695 130.877C189.4 130.266 188.314 129.284 187.575 128.055C186.836 126.825 186.477 125.403 186.543 123.969Z" fill="#2B4CC0"/>
<path d="M199.441 173.118C200.199 174.6 201.442 175.776 202.961 176.447C204.48 177.118 206.182 177.244 207.783 176.805C209.384 176.365 210.785 175.387 211.753 174.033C212.72 172.679 213.194 171.032 213.095 169.369C212.997 167.706 212.331 166.127 211.211 164.898C210.091 163.669 208.583 162.864 206.942 162.619C205.3 162.373 203.625 162.701 202.196 163.548C200.767 164.396 199.672 165.711 199.094 167.273L203.613 170.965L198.642 169.786C198.638 170.945 198.912 172.088 199.441 173.118Z" fill="#2B4CC0"/>
<path d="M203.013 159.02C204.789 159.106 206.534 158.532 207.915 157.408C209.297 156.284 210.217 154.689 210.501 152.927C210.785 151.166 210.413 149.36 209.456 147.857C208.498 146.353 207.023 145.255 205.311 144.774L205.346 147.765L203.707 144.509C201.791 144.414 199.916 145.088 198.494 146.381C197.073 147.674 196.221 149.481 196.127 151.405C196.086 152.242 196.191 153.081 196.438 153.882C196.872 155.315 197.737 156.578 198.914 157.498C200.091 158.418 201.523 158.95 203.013 159.02Z" fill="#2B4CC0"/>
<path d="M185.456 147.275C186.577 147.333 187.697 147.127 188.725 146.675C189.754 146.223 190.663 145.537 191.382 144.671C192.1 143.805 192.608 142.783 192.865 141.685C193.122 140.588 193.121 139.446 192.862 138.349C192.604 137.252 192.094 136.231 191.374 135.366C190.654 134.501 189.743 133.817 188.714 133.366C187.684 132.916 186.565 132.712 185.444 132.772C184.322 132.831 183.23 133.152 182.254 133.708L183.535 137.247L180.902 134.717C180.2 135.355 179.631 136.127 179.228 136.988C178.824 137.848 178.594 138.781 178.552 139.731C178.517 140.403 178.578 141.076 178.734 141.73C179.103 143.262 179.958 144.632 181.171 145.632C182.384 146.633 183.888 147.209 185.456 147.275Z" fill="#2B4CC0"/>
<path opacity="0.1" d="M187.519 125.903C189.187 126.086 190.809 126.605 192.484 126.711C194.158 126.818 196.009 126.411 197.061 125.107C197.551 124.347 197.996 123.559 198.395 122.747C198.854 122.031 199.481 121.44 200.222 121.025C200.691 121.945 200.959 122.956 201.007 123.989C201.056 125.021 200.884 126.053 200.504 127.014C200.123 127.974 199.543 128.842 198.801 129.56C198.059 130.277 197.174 130.827 196.203 131.173C195.233 131.52 194.2 131.654 193.174 131.567C192.147 131.48 191.151 131.174 190.252 130.669C189.354 130.165 188.572 129.473 187.961 128.641C187.35 127.809 186.922 126.856 186.708 125.844C186.972 125.85 187.242 125.874 187.519 125.903Z" fill="black"/>
<path opacity="0.1" d="M185.456 147.275C186.703 147.333 187.943 147.066 189.057 146.501C190.17 145.935 191.119 145.09 191.812 144.048C192.504 143.005 192.916 141.801 193.008 140.552C193.1 139.302 192.869 138.05 192.337 136.917C191.762 137.306 191.267 137.803 190.88 138.38C190.448 139.207 189.969 140.008 189.446 140.781C188.324 142.108 186.397 142.55 184.651 142.462C182.906 142.373 181.22 141.872 179.481 141.725C179.24 141.725 178.993 141.689 178.752 141.683C179.111 143.221 179.96 144.599 181.17 145.608C182.38 146.617 183.885 147.203 185.456 147.275Z" fill="black"/>
<path opacity="0.1" d="M203.013 159.02C204.248 159.079 205.478 158.82 206.584 158.267C207.691 157.713 208.637 156.884 209.333 155.858C210.03 154.833 210.452 153.645 210.561 152.409C210.669 151.172 210.46 149.929 209.953 148.797C209.357 149.19 208.839 149.69 208.425 150.272C207.951 151.118 207.427 151.936 206.856 152.72C205.634 154.082 203.583 154.566 201.732 154.489C199.881 154.413 198.207 154.012 196.444 153.899C196.88 155.328 197.746 156.587 198.921 157.503C200.097 158.42 201.526 158.949 203.013 159.02Z" fill="black"/>
<path opacity="0.1" d="M199.44 173.119C200.29 174.762 201.732 176.017 203.472 176.629C205.213 177.24 207.12 177.161 208.804 176.408C210.489 175.655 211.823 174.284 212.534 172.576C213.246 170.869 213.281 168.952 212.632 167.22C212.033 167.609 211.498 168.089 211.045 168.641C210.358 169.479 209.87 170.411 209.106 171.219C207.626 172.676 205.24 173.278 203.113 173.331C201.886 173.332 200.659 173.261 199.44 173.119Z" fill="black"/>
<path d="M394.162 188.432C426.601 188.432 452.898 162.032 452.898 129.466C452.898 96.9007 426.601 70.501 394.162 70.501C361.724 70.501 335.427 96.9007 335.427 129.466C335.427 162.032 361.724 188.432 394.162 188.432Z" fill="#3F3D56"/>
<path d="M419.376 144.674C417.331 142.621 412.413 139.524 409.974 138.368C407.16 137.011 406.126 137.035 404.134 138.48C402.477 139.66 401.401 140.798 399.498 140.379C397.594 139.96 393.821 137.105 390.172 133.454C386.524 129.802 383.691 126.039 383.286 124.098C382.88 122.158 383.997 121.102 385.184 119.438C386.618 117.438 386.659 116.4 385.295 113.575C384.12 111.127 381.071 106.201 379.008 104.136C376.946 102.072 376.499 102.526 375.371 102.957C374.21 103.445 373.095 104.037 372.039 104.726C369.995 106.101 368.849 107.245 368.044 108.968C367.239 110.69 366.328 113.887 371.011 122.258C374.466 128.661 378.841 134.519 383.997 139.642C389.117 144.829 394.972 149.23 401.372 152.702C409.704 157.421 412.895 156.483 414.61 155.681C416.326 154.879 417.466 153.74 418.829 151.67C419.517 150.611 420.107 149.491 420.592 148.325C420.98 147.192 421.438 146.732 419.376 144.674Z" fill="white"/>
<path opacity="0.1" d="M394.163 70.5068C382.539 70.501 371.174 73.9564 361.507 80.436C351.839 86.9156 344.303 96.1281 339.852 106.908C335.401 117.688 334.235 129.551 336.502 140.997C338.768 152.442 344.365 162.956 352.584 171.207C360.804 179.459 371.276 185.078 382.677 187.353C394.078 189.628 405.895 188.457 416.633 183.989C427.371 179.521 436.548 171.955 443.002 162.25C449.456 152.545 452.898 141.136 452.892 129.466C452.885 113.832 446.694 98.8397 435.682 87.7843C424.67 76.729 409.736 70.5147 394.163 70.5068ZM394.163 180.592C384.09 180.592 374.244 177.594 365.869 171.976C357.494 166.358 350.967 158.373 347.113 149.031C343.258 139.689 342.25 129.41 344.215 119.492C346.18 109.575 351.03 100.465 358.152 93.315C365.274 86.1649 374.349 81.2957 384.227 79.323C394.106 77.3503 404.346 78.3627 413.651 82.2323C422.957 86.1019 430.911 92.6548 436.506 101.062C442.102 109.47 445.089 119.355 445.089 129.466C445.089 136.18 443.772 142.829 441.213 149.031C438.653 155.234 434.902 160.87 430.173 165.618C425.444 170.365 419.83 174.131 413.651 176.7C407.473 179.27 400.85 180.592 394.163 180.592Z" fill="black"/>
<path d="M259.222 277.995C291.661 277.995 317.958 251.595 317.958 219.029C317.958 186.464 291.661 160.064 259.222 160.064C226.783 160.064 200.486 186.464 200.486 219.029C200.486 251.595 226.783 277.995 259.222 277.995Z" fill="#3F3D56"/>
<path d="M292.627 201.215L275.04 219.177C275.009 219.207 274.985 219.243 274.968 219.282C274.951 219.322 274.942 219.364 274.942 219.407C274.942 219.45 274.951 219.493 274.968 219.532C274.985 219.572 275.009 219.608 275.04 219.637L287.38 232.81C287.675 233.108 287.875 233.488 287.957 233.9C288.038 234.313 287.996 234.741 287.836 235.129C287.676 235.518 287.405 235.851 287.057 236.086C286.709 236.32 286.3 236.447 285.881 236.449C285.317 236.448 284.777 236.223 284.377 235.824L272.102 222.699C272.039 222.637 271.955 222.602 271.867 222.602C271.779 222.602 271.695 222.637 271.632 222.699L268.641 225.731C267.417 226.988 265.954 227.987 264.34 228.669C262.725 229.35 260.991 229.701 259.24 229.701C257.455 229.692 255.69 229.327 254.048 228.626C252.405 227.925 250.918 226.903 249.674 225.619L246.8 222.669C246.738 222.607 246.653 222.573 246.565 222.573C246.477 222.573 246.393 222.607 246.33 222.669L234.085 235.765C233.888 235.963 233.654 236.12 233.396 236.227C233.139 236.335 232.863 236.39 232.584 236.39C232.305 236.39 232.029 236.335 231.771 236.227C231.513 236.12 231.279 235.963 231.082 235.765C230.884 235.567 230.727 235.333 230.62 235.074C230.512 234.815 230.457 234.538 230.457 234.258C230.457 233.978 230.512 233.7 230.62 233.441C230.727 233.183 230.884 232.948 231.082 232.751L243.375 219.608C243.429 219.544 243.459 219.462 243.459 219.378C243.459 219.293 243.429 219.212 243.375 219.148L225.788 201.186C225.743 201.14 225.685 201.109 225.622 201.096C225.56 201.084 225.494 201.09 225.435 201.115C225.376 201.139 225.325 201.181 225.29 201.235C225.254 201.288 225.236 201.351 225.236 201.416V237.358C225.24 238.747 225.792 240.078 226.771 241.061C227.75 242.043 229.076 242.597 230.46 242.602H287.967C289.351 242.597 290.677 242.043 291.656 241.061C292.634 240.078 293.186 238.747 293.191 237.358V201.445C293.194 201.378 293.176 201.312 293.14 201.256C293.104 201.199 293.051 201.156 292.99 201.13C292.928 201.105 292.86 201.1 292.795 201.115C292.73 201.13 292.671 201.165 292.627 201.215Z" fill="white"/>
<path d="M259.222 225.436C260.414 225.448 261.597 225.219 262.699 224.763C263.801 224.307 264.801 223.633 265.639 222.781L291.252 196.608C290.343 195.852 289.201 195.435 288.02 195.428H230.471C229.29 195.432 228.147 195.849 227.24 196.608L252.859 222.781C253.689 223.628 254.68 224.299 255.773 224.755C256.866 225.211 258.039 225.443 259.222 225.436Z" fill="white"/>
<path opacity="0.1" d="M258.482 160.07C246.858 160.064 235.493 163.52 225.826 169.999C216.159 176.479 208.623 185.692 204.172 196.472C199.721 207.252 198.555 219.115 200.821 230.56C203.087 242.006 208.684 252.519 216.904 260.771C225.123 269.022 235.595 274.641 246.996 276.916C258.397 279.191 270.214 278.021 280.952 273.552C291.69 269.084 300.867 261.519 307.321 251.813C313.775 242.108 317.217 230.699 317.212 219.03C317.204 203.395 311.014 188.403 300.001 177.348C288.989 166.292 274.056 160.078 258.482 160.07ZM258.482 270.156C248.41 270.156 238.563 267.157 230.189 261.539C221.814 255.922 215.286 247.937 211.432 238.595C207.577 229.253 206.569 218.973 208.534 209.056C210.499 199.138 215.349 190.029 222.471 182.878C229.594 175.728 238.668 170.859 248.547 168.886C258.425 166.914 268.665 167.926 277.971 171.796C287.276 175.665 295.23 182.218 300.826 190.626C306.422 199.033 309.408 208.918 309.408 219.03C309.408 232.589 304.043 245.593 294.492 255.181C284.942 264.769 271.988 270.156 258.482 270.156Z" fill="black"/>
<path d="M119.828 233.96C152.267 233.96 178.564 207.56 178.564 174.994C178.564 142.429 152.267 116.029 119.828 116.029C87.3891 116.029 61.0923 142.429 61.0923 174.994C61.0923 207.56 87.3891 233.96 119.828 233.96Z" fill="#3F3D56"/>
<path d="M119.828 146.78L96.4125 201.014L98.5983 203.209L119.834 193.806L141.069 203.209L143.255 201.014L119.828 146.78Z" fill="white"/>
<path opacity="0.1" d="M119.828 116.011C108.205 116.005 96.8415 119.46 87.1748 125.938C77.508 132.416 69.9721 141.627 65.5203 152.405C61.0684 163.184 59.9006 175.045 62.1646 186.49C64.4285 197.935 70.0224 208.448 78.2389 216.701C86.4553 224.954 96.9251 230.575 108.324 232.853C119.723 235.132 131.539 233.965 142.278 229.501C153.016 225.038 162.195 217.477 168.653 207.775C175.11 198.074 178.557 186.668 178.557 175C178.557 159.36 172.371 144.36 161.358 133.299C150.344 122.237 135.406 116.019 119.828 116.011ZM119.828 226.096C109.754 226.096 99.9067 223.097 91.5313 217.478C83.1558 211.859 76.6284 203.872 72.7748 194.529C68.9212 185.185 67.9144 174.904 69.8818 164.985C71.8492 155.067 76.7024 145.957 83.8275 138.808C90.9526 131.66 100.03 126.793 109.91 124.823C119.791 122.854 130.032 123.871 139.337 127.745C148.642 131.619 156.593 138.176 162.186 146.588C167.778 154.999 170.76 164.887 170.754 175C170.753 188.558 165.386 201.561 155.836 211.147C146.286 220.734 133.333 226.12 119.828 226.12V226.096Z" fill="black"/>
<path d="M409.267 244.838C408.85 243.49 408.42 242.146 407.976 240.804C407.627 239.502 407.055 238.271 406.284 237.167C405.99 236.768 405.618 236.433 405.191 236.183C404.717 235.958 404.211 235.81 403.691 235.743C402.904 235.572 402.102 235.479 401.296 235.467C400.995 235.345 400.654 235.191 400.321 235.02C402.093 234.715 403.722 233.848 404.966 232.545C406.211 231.242 407.006 229.572 407.234 227.782C407.245 227.664 407.256 227.541 407.266 227.423C407.367 226.324 407.252 225.216 406.927 224.162C406.601 223.107 406.072 222.128 405.37 221.279C404.667 220.431 403.805 219.729 402.832 219.215C401.859 218.701 400.795 218.385 399.7 218.284C398.158 218.145 396.609 218.446 395.229 219.151C393.537 218.606 391.711 218.653 390.049 219.285C388.386 219.916 386.985 221.094 386.075 222.627C385.024 223.473 384.159 224.529 383.535 225.728C382.912 226.927 382.544 228.243 382.454 229.592C382.443 229.716 382.432 229.845 382.422 229.962C382.172 234.542 384.788 238.461 388.467 239.158C388.054 239.302 387.669 239.514 387.326 239.786C386.094 240.785 385.753 242.514 385.49 244.089L385.299 245.257L383.27 245.789C383.206 245.806 383.147 245.84 383.101 245.888C383.054 245.936 383.022 245.996 383.007 246.061C382.992 246.127 382.995 246.195 383.016 246.258C383.037 246.322 383.075 246.378 383.126 246.422L384.887 247.933C384.877 248.044 384.867 248.156 384.857 248.268C384.847 248.379 384.835 248.52 384.859 248.653C384.513 248.908 384.232 249.243 384.041 249.629C383.804 250.23 383.689 250.872 383.704 251.518L383.63 253.163C383.512 254.397 383.571 255.64 383.806 256.856C383.988 257.607 384.899 259.457 385.664 259.537C384.672 262.706 383.885 269.506 383.885 269.506C383.789 269.587 384.028 269.69 384.449 269.799C384.585 273.079 385.16 282.297 387.248 286.513C387.518 287.852 387.708 289.205 387.818 290.566C387.818 290.566 387.754 299.272 388.446 301.92C389.038 304.175 389.184 309.624 389.216 311.202C389.054 311.229 388.901 311.301 388.776 311.409C388.651 311.517 388.558 311.657 388.508 311.815C387.922 313.173 384.738 315.036 384.738 315.036C383.779 315.416 382.863 315.897 382.005 316.472C380.987 317.241 380.955 318.014 385.182 317.9C393.342 317.677 394.951 315.207 394.951 315.207C394.951 315.207 394.861 314.761 394.717 314.179C394.548 313.28 394.266 312.406 393.879 311.577C393.771 311.455 393.638 311.633 393.471 311.914C393.192 308.111 393.342 304.288 393.92 300.519C393.92 300.519 394.498 296.567 393.591 293.662C393.464 292.172 393.596 290.671 393.982 289.226C394.609 287.398 393.104 278.081 393.104 278.081L392.372 271.254C392.532 271.499 392.635 271.777 392.672 272.068L392.695 272.206L392.713 272.403C392.721 272.473 392.748 272.539 392.791 272.593C393.362 276.434 394.915 287.069 394.78 288.597C394.616 290.466 396.511 295.34 396.511 295.34C396.511 295.34 396.751 303.131 398.1 306.305C399.126 308.723 398.857 312.11 398.668 313.597C398.668 313.597 398.223 315.495 397.72 315.918C397.312 316.345 396.973 316.832 396.714 317.363L396.651 317.47C396.651 317.47 395.837 318.814 396.279 319.09C397.977 319.937 399.859 320.345 401.755 320.276C401.755 320.276 402.783 319.182 402.823 318.724C402.829 318.442 402.818 318.161 402.791 317.88C402.719 316.761 402.556 314.994 402.551 314.975C402.811 314.24 402.216 312.08 402.216 312.08L402.558 305.519C403.376 301.128 403.218 296.611 402.094 292.291C402.094 292.291 401.293 287.986 401.648 286.839C402.002 285.692 402.378 273.248 402.378 273.248L402.323 273.065C402.338 272.184 402.439 271.306 402.624 270.445C403.099 267.662 402.694 261.74 402.48 261.49C402.345 260.846 402.292 260.186 402.323 259.528C402.418 259.045 402.702 257.631 403.075 255.876C405.358 255.998 407.645 256.001 409.928 255.886C410.146 255.906 410.363 255.84 410.534 255.703C410.639 255.57 410.701 255.408 410.711 255.239C411.29 251.743 410.309 248.21 409.267 244.838ZM403.973 251.839C404.36 250.185 404.76 248.586 405.124 247.404L405.15 247.513C405.486 248.763 405.749 250.032 405.936 251.313C405.297 251.541 404.64 251.717 403.973 251.839Z" fill="url(#paint0_linear_107_794)"/>
<path d="M384.379 269.176C384.379 269.176 384.663 281.773 387.227 286.884C387.498 288.206 387.69 289.544 387.801 290.89C387.801 290.89 387.74 299.495 388.435 302.114C389.131 304.734 389.211 311.728 389.211 311.728C389.211 311.728 392.106 315.702 393.523 312.806C393.147 308.783 393.27 304.728 393.889 300.735C393.889 300.735 394.463 296.83 393.56 293.955C393.431 292.483 393.561 290.999 393.945 289.571C394.565 287.761 393.057 278.556 393.057 278.556L392.012 269.386L384.379 269.176Z" fill="#BE6F72"/>
<path d="M394.929 315.258C394.929 315.258 393.324 317.674 385.195 317.889C380.974 317.997 381.011 317.236 382.028 316.473C382.883 315.906 383.795 315.43 384.748 315.054C384.748 315.054 387.922 313.243 388.501 311.897C389.079 310.55 390.593 311.85 390.593 311.85C392.589 315.513 393.437 311.165 393.853 311.669C394.243 312.484 394.526 313.347 394.695 314.236C394.839 314.811 394.929 315.258 394.929 315.258Z" fill="#FF6F61"/>
<path opacity="0.1" d="M394.929 315.258C394.929 315.258 393.325 317.675 385.195 317.889C380.974 317.997 381.011 317.236 382.028 316.473C382.647 316.948 383.955 317.235 386.713 316.394C390.685 315.156 393.546 314.49 394.695 314.236C394.839 314.811 394.929 315.258 394.929 315.258Z" fill="black"/>
<path opacity="0.1" d="M393.889 300.735C393.889 300.735 394.463 296.829 393.559 293.955C393.43 292.482 393.561 290.999 393.945 289.571C394.565 287.76 393.057 278.556 393.057 278.556L392.011 269.386L390.411 269.34L391.447 278.414C391.447 278.414 392.955 287.619 392.336 289.43C391.951 290.857 391.821 292.341 391.95 293.813C392.876 296.69 392.279 300.593 392.279 300.593C391.66 304.586 391.537 308.641 391.913 312.665C391.755 313.03 391.494 313.34 391.162 313.558C391.982 314.021 392.885 314.083 393.523 312.806C393.147 308.783 393.27 304.728 393.889 300.735Z" fill="black"/>
<path d="M399.534 219.429C398 219.291 396.457 219.588 395.082 220.287C393.396 219.737 391.574 219.776 389.912 220.399C388.251 221.021 386.848 222.191 385.932 223.716C384.886 224.548 384.025 225.59 383.404 226.775C382.782 227.961 382.415 229.263 382.324 230.599C381.892 235.512 384.837 239.78 388.899 240.137C391.826 240.395 394.574 238.529 396.017 235.606C396.677 235.845 397.366 235.997 398.065 236.059C400.262 236.252 402.445 235.561 404.136 234.139C405.826 232.716 406.885 230.678 407.079 228.473C407.273 226.268 406.587 224.076 405.171 222.38C403.755 220.684 401.725 219.622 399.529 219.429L399.534 219.429Z" fill="#3F3D56"/>
<path d="M401.762 271.872L402.29 273.778C402.29 273.778 401.903 286.079 401.567 287.216C401.231 288.353 402.027 292.586 402.027 292.586C403.15 296.853 403.312 301.317 402.499 305.655L402.158 312.139C402.158 312.139 402.854 314.759 402.356 315.183C401.859 315.607 398.465 314.426 398.465 314.426C398.465 314.426 399.354 309.619 397.985 306.472C396.616 303.326 396.392 295.625 396.392 295.625C396.392 295.625 394.498 290.804 394.66 288.959C394.823 287.114 392.462 271.776 392.462 271.776L401.762 271.872Z" fill="#BE6F72"/>
<path d="M383.835 270.064C383.835 270.064 384.801 261.769 385.961 259.313C386.542 258.169 386.994 256.964 387.309 255.719C387.309 255.719 401.012 259.471 402.246 258.65C402.246 258.65 402.19 261.902 402.404 262.152C402.618 262.402 403.046 268.261 402.55 271.012C402.055 273.763 402.307 273.78 402.307 273.78C402.307 273.78 392.749 274.336 392.643 272.929C392.537 271.522 391.846 271.467 391.846 271.467C391.846 271.467 383.34 270.458 383.835 270.064Z" fill="#3F3D56"/>
<g opacity="0.1">
<path opacity="0.1" d="M391.427 270.732C391.427 270.732 385.623 270.061 383.895 269.589C383.868 269.889 383.853 270.065 383.853 270.065C383.356 270.484 391.846 271.468 391.846 271.468C391.961 271.488 392.067 271.543 392.151 271.625C391.913 270.775 391.427 270.732 391.427 270.732Z" fill="black"/>
<path opacity="0.1" d="M402.387 262.151C402.173 261.901 402.229 258.649 402.229 258.649C402.103 258.713 401.965 258.749 401.825 258.756C401.821 259.738 401.847 261.251 401.986 261.417C402.124 261.583 402.628 267.525 402.132 270.277C401.636 273.028 401.888 273.045 401.888 273.045C401.888 273.045 394.329 273.487 392.585 272.593C392.576 272.693 392.619 272.809 392.626 272.928C392.732 274.335 402.29 273.779 402.29 273.779C402.29 273.779 402.056 273.758 402.533 271.011C403.011 268.264 402.595 262.406 402.387 262.151Z" fill="black"/>
</g>
<path d="M397.235 233.889C397.394 234.352 397.661 234.769 398.013 235.107C398.241 235.31 398.513 235.458 398.807 235.538C398.265 235.792 397.684 235.966 397.142 236.22C396.284 236.696 395.451 237.215 394.646 237.777C393.825 238.328 392.854 238.611 391.867 238.587C392.253 238.151 392.517 237.621 392.633 237.05C392.75 236.479 392.715 235.887 392.531 235.335C392.351 234.967 392.246 234.568 392.221 234.159C392.28 233.495 392.91 233.035 393.486 232.73C393.951 232.469 394.427 232.221 394.909 231.973C395.286 231.781 395.865 231.359 396.315 231.416C396.764 231.473 396.781 231.877 396.827 232.296C396.896 232.842 397.033 233.378 397.235 233.889Z" fill="#BE6F72"/>
<path opacity="0.1" d="M397.235 233.889C397.394 234.352 397.661 234.769 398.013 235.107C398.241 235.31 398.513 235.458 398.807 235.538C398.265 235.792 397.684 235.966 397.142 236.22C396.284 236.696 395.451 237.215 394.646 237.777C393.825 238.328 392.854 238.611 391.867 238.587C392.253 238.151 392.517 237.621 392.633 237.05C392.75 236.479 392.715 235.887 392.531 235.335C392.351 234.967 392.246 234.568 392.221 234.159C392.28 233.495 392.91 233.035 393.486 232.73C393.951 232.469 394.427 232.221 394.909 231.973C395.286 231.781 395.865 231.359 396.315 231.416C396.764 231.473 396.781 231.877 396.827 232.296C396.896 232.842 397.033 233.378 397.235 233.889Z" fill="black"/>
<path d="M401.427 247.991C404.349 248.248 406.928 246.078 407.186 243.144C407.444 240.211 405.284 237.624 402.362 237.367C399.44 237.109 396.861 239.279 396.603 242.213C396.345 245.147 398.505 247.734 401.427 247.991Z" fill="#BE6F72"/>
<path d="M402.734 318.734C402.693 319.198 401.673 320.269 401.673 320.269C399.784 320.335 397.908 319.93 396.214 319.09C395.772 318.82 396.585 317.494 396.585 317.494L396.647 317.387C396.906 316.861 397.245 316.38 397.652 315.959C398.148 315.541 398.59 313.673 398.59 313.673C400.225 311.448 402.463 315.038 402.463 315.038C402.463 315.038 402.63 316.83 402.706 317.914C402.731 318.301 402.744 318.616 402.734 318.734Z" fill="#FF6F61"/>
<path opacity="0.1" d="M402.734 318.734C402.693 319.198 401.672 320.269 401.672 320.269C399.783 320.335 397.908 319.93 396.214 319.09C395.771 318.82 396.584 317.494 396.584 317.494L396.647 317.387C398.15 318.256 399.834 318.761 401.566 318.862L402.706 317.902C402.73 318.301 402.744 318.616 402.734 318.734Z" fill="black"/>
<path d="M391.831 235.853C394.688 236.105 397.21 233.983 397.462 231.114C397.715 228.245 395.603 225.716 392.745 225.464C389.887 225.213 387.366 227.334 387.114 230.203C386.861 233.072 388.973 235.602 391.831 235.853Z" fill="#BE6F72"/>
<path d="M387.2 240.681C385.969 241.668 385.63 243.373 385.375 244.932L384.997 247.214C384.879 247.827 384.81 248.449 384.792 249.073C384.758 249.455 384.818 249.851 384.817 250.26C384.817 250.668 384.783 251.18 384.748 251.645L384.45 255.041C384.332 255.738 384.4 256.452 384.645 257.114C384.778 257.435 385.027 257.694 385.342 257.84C385.656 257.986 386.014 258.008 386.345 257.903C386.733 257.653 387.025 257.278 387.17 256.838C387.862 255.511 388.383 254.1 388.719 252.64C388.811 252.133 388.862 251.622 388.954 251.115C389.045 250.608 389.18 250.081 389.302 249.571C389.82 247.437 390.159 245.264 390.497 243.097C390.595 242.454 391.398 239.96 390.58 239.604C390.182 239.433 389.296 239.781 388.892 239.888C388.28 240.035 387.705 240.305 387.2 240.681Z" fill="#BE6F72"/>
<path opacity="0.1" d="M387.2 240.681C385.969 241.668 385.63 243.373 385.375 244.932L384.997 247.214C384.879 247.827 384.81 248.449 384.792 249.073C384.758 249.455 384.818 249.851 384.817 250.26C384.817 250.668 384.783 251.18 384.748 251.645L384.45 255.041C384.332 255.738 384.4 256.452 384.645 257.114C384.778 257.435 385.027 257.694 385.342 257.84C385.656 257.986 386.014 258.008 386.345 257.903C386.733 257.653 387.025 257.278 387.17 256.838C387.862 255.511 388.383 254.1 388.719 252.64C388.811 252.133 388.862 251.622 388.954 251.115C389.045 250.608 389.18 250.081 389.302 249.571C389.82 247.437 390.159 245.264 390.497 243.097C390.595 242.454 391.398 239.96 390.58 239.604C390.182 239.433 389.296 239.781 388.892 239.888C388.28 240.035 387.705 240.305 387.2 240.681Z" fill="black"/>
<path d="M398.548 234.585C398.548 234.585 394.374 237.244 392.013 237.735C392.013 237.735 390.511 239.178 390.244 239.533C389.977 239.889 389.144 243.996 388.594 244.883C388.044 245.77 386.72 247.744 388.147 249.96C388.147 249.96 388.42 252.081 388.131 252.754C387.842 253.427 386.781 255.892 387.532 256.077C388.282 256.261 390.447 258.074 392.553 257.798C394.66 257.521 402.179 260.421 402.179 260.421C402.179 260.421 404.502 248.634 405.612 246.612L403.601 245.736C403.601 245.736 398.158 241.769 402.073 236.761C402.067 236.76 398.897 235.782 398.548 234.585Z" fill="#B600E4"/>
<path d="M383.048 247.237L387.504 251.034C387.56 251.084 387.631 251.114 387.706 251.121C387.78 251.128 387.855 251.11 387.919 251.071L389.292 250.215C389.335 250.184 389.371 250.144 389.397 250.099C389.423 250.053 389.438 250.002 389.443 249.95C389.448 249.897 389.441 249.844 389.423 249.795C389.406 249.745 389.378 249.7 389.341 249.662L385.97 246.079C385.926 246.032 385.87 245.997 385.808 245.979C385.747 245.961 385.681 245.96 385.619 245.977L383.197 246.617C383.134 246.633 383.075 246.666 383.029 246.713C382.983 246.759 382.951 246.818 382.935 246.882C382.92 246.946 382.922 247.013 382.942 247.075C382.962 247.138 382.999 247.194 383.048 247.237Z" fill="#3F3D56"/>
<path d="M383.75 257.556C383.517 256.356 383.457 255.128 383.57 253.91L383.643 252.276C383.628 251.638 383.742 251.004 383.978 250.411C384.195 250.009 384.498 249.661 384.866 249.391C385.233 249.121 385.656 248.937 386.103 248.851C386.998 248.684 387.917 248.699 388.807 248.893C388.928 248.904 389.044 248.947 389.144 249.018C389.228 249.111 389.284 249.227 389.303 249.352C389.413 249.624 389.466 249.916 389.459 250.21C389.451 250.504 389.383 250.793 389.259 251.059C389.103 251.271 388.903 251.446 388.671 251.57C387.993 251.972 387.223 252.212 386.576 252.659C386.446 252.731 386.342 252.842 386.277 252.976C386.237 253.095 386.226 253.222 386.244 253.346C386.291 253.676 386.365 254.001 386.465 254.319C386.504 254.477 386.582 254.623 386.694 254.742C386.797 254.845 386.94 254.894 387.049 254.992C387.283 255.22 387.786 255.537 387.728 255.857C387.537 257.025 386.718 258.279 386.341 259.418C385.614 261.646 384.002 258.579 383.75 257.556Z" fill="#BE6F72"/>
<g opacity="0.1">
<path opacity="0.1" d="M391.19 257.677L391.061 257.666C391.549 257.807 392.06 257.851 392.565 257.799L392.712 257.811C392.214 257.693 391.701 257.648 391.19 257.677Z" fill="black"/>
<path opacity="0.1" d="M404.373 246.153C403.384 247.944 401.278 257.926 400.885 259.911C401.675 260.193 402.194 260.393 402.194 260.393C402.194 260.393 404.503 248.634 405.613 246.612L404.373 246.153Z" fill="black"/>
</g>
<path d="M402.061 242.859C402.084 243.095 402.154 243.324 402.266 243.532C402.378 243.74 402.531 243.924 402.716 244.071C403.168 244.526 403.577 245.022 403.936 245.553C404.443 246.42 404.812 247.362 405.03 248.343C405.364 249.578 405.626 250.831 405.814 252.096C402.768 253.201 399.449 252.844 396.255 253.469C394.883 253.706 393.604 254.321 392.56 255.246C392.039 255.711 391.624 256.284 391.343 256.924C391.061 257.564 390.92 258.258 390.93 258.958C390.927 259.039 390.944 259.12 390.98 259.193C391.025 259.255 391.085 259.306 391.154 259.34C391.222 259.375 391.298 259.393 391.375 259.394C392.153 259.461 392.932 259.267 393.588 258.842C394.238 258.419 394.837 257.924 395.376 257.365C395.712 256.998 396.144 256.732 396.623 256.599C398.36 256.23 400.178 256.42 401.937 256.545C404.567 256.725 407.207 256.747 409.841 256.613C409.935 256.633 410.032 256.631 410.125 256.607C410.218 256.584 410.305 256.539 410.378 256.477C410.452 256.415 410.51 256.338 410.55 256.25C410.589 256.162 410.608 256.066 410.605 255.97C411.168 252.525 410.184 249.028 409.15 245.698C408.736 244.362 408.307 243.032 407.861 241.706C407.511 240.417 406.94 239.201 406.172 238.11C405.879 237.713 405.506 237.382 405.078 237.138C404.59 236.911 404.069 236.765 403.535 236.706C402.693 236.516 401.832 236.424 400.97 236.433C400.795 236.854 400.673 237.294 400.606 237.745C400.513 239.336 401.073 240.883 401.626 242.377C401.695 242.602 401.945 242.636 402.061 242.859Z" fill="#BE6F72"/>
<path opacity="0.1" d="M392.429 245.008C391.973 245.653 391.702 246.412 391.646 247.201C391.62 247.512 391.642 247.826 391.711 248.13C391.835 248.56 392.053 248.956 392.349 249.29C392.645 249.623 393.013 249.885 393.424 250.057" stroke="black" stroke-miterlimit="10"/>
<path d="M397.107 225.966C396.819 225.94 396.528 225.961 396.246 226.027C395.583 224.784 393.852 223.815 391.739 223.629C388.941 223.382 386.548 224.635 386.391 226.421C386.233 228.207 388.371 229.852 391.169 230.098C392.216 230.202 393.273 230.073 394.264 229.719C394.439 230.183 394.735 230.592 395.121 230.902C395.507 231.212 395.968 231.413 396.457 231.483C396.947 231.554 397.446 231.491 397.904 231.302C398.361 231.114 398.76 230.805 399.058 230.409C399.357 230.013 399.544 229.545 399.601 229.052C399.658 228.558 399.583 228.059 399.382 227.606C399.182 227.152 398.864 226.761 398.462 226.472C398.06 226.184 397.588 226.009 397.095 225.965L397.107 225.966Z" fill="#3F3D56"/>
<path opacity="0.1" d="M396.909 230.835C396.39 230.789 395.894 230.597 395.48 230.281C395.065 229.964 394.748 229.537 394.565 229.047C393.574 229.4 392.517 229.53 391.47 229.426C388.678 229.18 386.54 227.536 386.697 225.749C386.698 225.641 386.708 225.533 386.726 225.426C386.532 225.724 386.413 226.065 386.379 226.42C386.224 228.183 388.36 229.851 391.158 230.097C392.204 230.201 393.261 230.072 394.252 229.718C394.458 230.265 394.831 230.733 395.317 231.055C395.803 231.376 396.378 231.536 396.96 231.51C397.542 231.485 398.102 231.275 398.558 230.912C399.015 230.549 399.346 230.051 399.505 229.488C399.241 229.934 398.858 230.297 398.399 230.535C397.94 230.773 397.424 230.877 396.909 230.835Z" fill="black"/>
<path opacity="0.1" d="M385.818 225.08C386.733 223.554 388.136 222.385 389.798 221.762C391.46 221.14 393.282 221.1 394.968 221.651C396.238 221.01 397.65 220.707 399.07 220.771C400.489 220.834 401.868 221.262 403.076 222.014C404.283 222.765 405.278 223.815 405.965 225.063C406.653 226.31 407.01 227.715 407.003 229.141C407.023 228.912 407.043 228.683 407.064 228.448C407.191 226.969 406.922 225.484 406.287 224.145C405.651 222.806 404.671 221.662 403.448 220.83C402.225 219.998 400.803 219.509 399.328 219.414C397.853 219.318 396.38 219.619 395.059 220.285C393.373 219.734 391.55 219.774 389.889 220.396C388.227 221.019 386.824 222.188 385.909 223.714C384.863 224.545 384.001 225.587 383.38 226.773C382.759 227.958 382.391 229.261 382.301 230.597C382.28 230.832 382.26 231.061 382.24 231.29C382.572 228.829 383.858 226.597 385.818 225.08Z" fill="black"/>
<path d="M427.455 233.399C428.989 230.55 427.25 227.052 425.246 224.51C423.242 221.967 420.81 219.325 420.863 216.08C420.933 211.426 425.857 208.677 429.794 206.205C432.713 204.369 435.403 202.191 437.809 199.717C438.82 198.769 439.655 197.648 440.277 196.407C441.088 194.585 441.064 192.514 441.017 190.508C440.845 183.862 440.518 177.224 440.036 170.594" stroke="#3F3D56" stroke-width="4" stroke-miterlimit="10"/>
<path d="M447.51 170.24C447.454 169.024 447.094 167.842 446.464 166.803C445.833 165.764 444.952 164.901 443.902 164.293L442.28 167.508L442.327 163.615C441.556 163.384 440.751 163.286 439.948 163.326C438.518 163.393 437.141 163.884 435.99 164.737C434.839 165.589 433.965 166.766 433.48 168.117C432.995 169.468 432.92 170.933 433.264 172.327C433.608 173.721 434.357 174.982 435.414 175.949C436.472 176.916 437.792 177.546 439.207 177.76C440.621 177.974 442.067 177.762 443.362 177.151C444.657 176.54 445.742 175.557 446.48 174.327C447.219 173.097 447.577 171.674 447.51 170.24Z" fill="#2B4CC0"/>
<path d="M434.612 219.395C433.854 220.877 432.611 222.051 431.092 222.722C429.573 223.393 427.87 223.519 426.27 223.079C424.67 222.639 423.268 221.66 422.301 220.307C421.334 218.953 420.86 217.307 420.959 215.644C421.057 213.981 421.722 212.403 422.842 211.174C423.962 209.945 425.469 209.139 427.11 208.893C428.751 208.647 430.427 208.975 431.856 209.821C433.285 210.668 434.381 211.982 434.959 213.544L430.44 217.236L435.411 216.057C435.416 217.218 435.142 218.363 434.612 219.395Z" fill="#2B4CC0"/>
<path d="M431.04 205.291C429.264 205.376 427.519 204.803 426.138 203.679C424.757 202.555 423.836 200.96 423.552 199.198C423.268 197.436 423.64 195.631 424.597 194.127C425.555 192.623 427.03 191.526 428.742 191.045L428.707 194.036L430.346 190.785C432.263 190.697 434.136 191.377 435.554 192.674C436.972 193.971 437.819 195.781 437.909 197.705C437.954 198.657 437.811 199.61 437.489 200.507C437.168 201.404 436.673 202.229 436.033 202.934C435.394 203.639 434.622 204.211 433.762 204.616C432.902 205.021 431.971 205.253 431.022 205.297L431.04 205.291Z" fill="#2B4CC0"/>
<path d="M448.597 193.564C447.476 193.621 446.357 193.416 445.328 192.964C444.3 192.512 443.39 191.825 442.672 190.959C441.953 190.093 441.445 189.071 441.188 187.974C440.931 186.877 440.932 185.734 441.191 184.638C441.45 183.541 441.96 182.52 442.68 181.655C443.4 180.79 444.31 180.105 445.34 179.655C446.369 179.205 447.489 179.001 448.61 179.06C449.731 179.12 450.823 179.44 451.8 179.997L450.519 183.536L453.151 180.999C453.852 181.639 454.421 182.411 454.824 183.271C455.228 184.131 455.458 185.063 455.501 186.013C455.537 186.685 455.475 187.359 455.319 188.013C454.951 189.545 454.096 190.916 452.883 191.917C451.67 192.919 450.166 193.497 448.597 193.564Z" fill="#2B4CC0"/>
<path opacity="0.1" d="M446.541 172.174C444.872 172.363 443.244 172.882 441.57 172.988C439.895 173.095 438.044 172.687 436.992 171.378C436.501 170.619 436.055 169.831 435.658 169.018C435.2 168.304 434.575 167.713 433.837 167.296C433.368 168.216 433.1 169.227 433.052 170.26C433.003 171.292 433.175 172.324 433.556 173.284C433.936 174.245 434.517 175.113 435.258 175.831C436 176.548 436.886 177.098 437.856 177.444C438.827 177.79 439.859 177.924 440.886 177.838C441.912 177.751 442.908 177.445 443.807 176.94C444.706 176.436 445.487 175.744 446.098 174.912C446.71 174.08 447.137 173.126 447.352 172.115C447.081 172.127 446.811 172.145 446.541 172.174Z" fill="black"/>
<path opacity="0.1" d="M448.597 193.564C447.35 193.622 446.11 193.355 444.997 192.789C443.883 192.224 442.934 191.379 442.242 190.336C441.549 189.294 441.137 188.09 441.045 186.84C440.953 185.591 441.184 184.339 441.716 183.206C442.291 183.592 442.786 184.087 443.174 184.663C443.603 185.491 444.082 186.293 444.607 187.063C445.73 188.397 447.657 188.833 449.402 188.751C451.147 188.668 452.833 188.161 454.573 188.013C454.814 188.013 455.06 187.972 455.301 187.966C454.943 189.504 454.094 190.883 452.884 191.893C451.674 192.904 450.169 193.49 448.597 193.564Z" fill="black"/>
<path opacity="0.1" d="M431.04 205.291C429.803 205.352 428.572 205.093 427.464 204.539C426.356 203.985 425.408 203.154 424.712 202.127C424.015 201.1 423.593 199.91 423.486 198.672C423.379 197.434 423.59 196.189 424.1 195.057C424.693 195.453 425.21 195.952 425.628 196.531C426.215 197.328 426.539 198.248 427.197 198.979C428.419 200.348 430.47 200.826 432.32 200.785C434.171 200.743 435.846 200.301 437.609 200.165C437.173 201.595 436.308 202.854 435.132 203.771C433.956 204.689 432.527 205.22 431.04 205.291Z" fill="black"/>
<path opacity="0.1" d="M434.612 219.395C433.75 221.015 432.308 222.247 430.577 222.843C428.846 223.44 426.954 223.355 425.282 222.608C423.611 221.86 422.283 220.505 421.567 218.814C420.85 217.124 420.798 215.224 421.421 213.496C422.018 213.887 422.553 214.366 423.007 214.918C423.701 215.761 424.153 216.687 424.946 217.501C426.427 218.959 428.813 219.554 430.94 219.613C432.167 219.612 433.393 219.539 434.612 219.395Z" fill="black"/>
<path d="M520.883 323.063C522.416 320.213 520.677 316.715 518.673 314.173C516.67 311.63 514.237 308.988 514.29 305.743C514.36 301.089 519.284 298.34 523.221 295.869C526.14 294.032 528.83 291.854 531.236 289.38C532.247 288.432 533.082 287.311 533.704 286.07C534.515 284.248 534.491 282.177 534.444 280.172C534.276 273.525 533.949 266.887 533.463 260.257" stroke="#3F3D56" stroke-width="4" stroke-miterlimit="10"/>
<path d="M540.937 259.903C540.881 258.687 540.521 257.506 539.891 256.467C539.26 255.427 538.379 254.564 537.329 253.957L535.707 257.172L535.754 253.278C534.993 253.051 534.198 252.953 533.404 252.989C531.975 253.056 530.598 253.547 529.446 254.4C528.295 255.253 527.422 256.429 526.937 257.78C526.451 259.131 526.376 260.597 526.72 261.991C527.065 263.385 527.813 264.645 528.871 265.612C529.929 266.579 531.248 267.209 532.663 267.423C534.078 267.637 535.524 267.425 536.819 266.814C538.113 266.203 539.198 265.22 539.937 263.99C540.675 262.76 541.033 261.337 540.966 259.903H540.937Z" fill="#2B4CC0"/>
<path d="M528.039 309.058C527.28 310.54 526.037 311.714 524.519 312.385C523 313.056 521.297 313.182 519.697 312.742C518.096 312.302 516.695 311.324 515.728 309.97C514.761 308.616 514.287 306.97 514.386 305.307C514.484 303.644 515.149 302.066 516.269 300.837C517.389 299.608 518.896 298.803 520.537 298.556C522.178 298.31 523.854 298.638 525.283 299.485C526.712 300.331 527.807 301.645 528.386 303.207L523.867 306.899L528.838 305.72C528.843 306.881 528.569 308.026 528.039 309.058Z" fill="#2B4CC0"/>
<path d="M524.466 294.954C522.691 295.04 520.946 294.466 519.565 293.342C518.183 292.219 517.263 290.624 516.979 288.862C516.695 287.1 517.067 285.295 518.024 283.791C518.981 282.287 520.457 281.19 522.169 280.709L522.134 283.699L523.773 280.449C525.69 280.361 527.563 281.04 528.981 282.338C530.399 283.635 531.246 285.444 531.335 287.368C531.38 288.321 531.238 289.273 530.916 290.17C530.594 291.068 530.099 291.892 529.46 292.598C528.82 293.303 528.048 293.874 527.189 294.28C526.329 294.685 525.398 294.916 524.449 294.96L524.466 294.954Z" fill="#2B4CC0"/>
<path d="M542.024 283.228C540.903 283.285 539.783 283.079 538.755 282.627C537.726 282.175 536.817 281.489 536.098 280.623C535.38 279.757 534.872 278.735 534.615 277.637C534.358 276.54 534.359 275.398 534.618 274.301C534.877 273.204 535.386 272.183 536.106 271.318C536.826 270.453 537.737 269.769 538.766 269.318C539.796 268.868 540.915 268.665 542.037 268.724C543.158 268.783 544.25 269.104 545.226 269.66L543.945 273.199L546.578 270.663C547.279 271.302 547.848 272.074 548.251 272.935C548.654 273.795 548.885 274.727 548.928 275.677C548.963 276.349 548.902 277.022 548.746 277.677C548.378 279.209 547.522 280.579 546.31 281.581C545.097 282.582 543.593 283.16 542.024 283.228Z" fill="#2B4CC0"/>
<path opacity="0.1" d="M539.967 261.838C538.299 262.027 536.671 262.546 534.996 262.652C533.322 262.758 531.471 262.351 530.419 261.041C529.928 260.283 529.482 259.495 529.085 258.682C528.627 257.967 528.001 257.376 527.264 256.959C526.795 257.88 526.527 258.89 526.479 259.923C526.43 260.956 526.602 261.987 526.982 262.948C527.363 263.909 527.943 264.777 528.685 265.494C529.426 266.212 530.312 266.762 531.283 267.108C532.253 267.454 533.286 267.588 534.312 267.501C535.338 267.414 536.334 267.108 537.233 266.604C538.132 266.099 538.914 265.408 539.525 264.576C540.136 263.744 540.564 262.79 540.778 261.779C540.508 261.791 540.238 261.808 539.967 261.838Z" fill="black"/>
<path opacity="0.1" d="M542.024 283.228C540.777 283.285 539.537 283.018 538.423 282.453C537.31 281.887 536.361 281.042 535.668 280C534.976 278.958 534.564 277.753 534.472 276.504C534.38 275.254 534.611 274.002 535.143 272.869C535.718 273.256 536.213 273.751 536.6 274.326C537.03 275.155 537.509 275.956 538.034 276.727C539.156 278.06 541.084 278.497 542.829 278.414C544.574 278.331 546.26 277.824 548 277.677C548.24 277.677 548.487 277.635 548.728 277.63C548.369 279.168 547.521 280.547 546.311 281.557C545.101 282.567 543.596 283.154 542.024 283.228Z" fill="black"/>
<path opacity="0.1" d="M524.467 294.954C523.23 295.015 521.999 294.756 520.891 294.202C519.783 293.648 518.836 292.817 518.139 291.79C517.442 290.763 517.02 289.573 516.913 288.335C516.806 287.097 517.018 285.852 517.527 284.72C518.12 285.116 518.638 285.615 519.055 286.194C519.643 286.991 519.966 287.911 520.624 288.642C521.846 290.011 523.897 290.489 525.748 290.448C527.599 290.406 529.273 289.964 531.036 289.828C530.6 291.258 529.735 292.517 528.559 293.434C527.383 294.352 525.954 294.883 524.467 294.954Z" fill="black"/>
<path opacity="0.1" d="M528.039 309.059C527.177 310.679 525.735 311.911 524.004 312.507C522.273 313.103 520.381 313.019 518.709 312.272C517.038 311.524 515.71 310.169 514.994 308.478C514.277 306.788 514.225 304.888 514.848 303.16C515.445 303.551 515.98 304.03 516.434 304.582C517.128 305.425 517.61 306.351 518.373 307.165C519.854 308.623 522.24 309.218 524.367 309.277C525.594 309.276 526.82 309.203 528.039 309.059Z" fill="black"/>
<path d="M223.285 242.515C223.181 241.616 222.869 240.753 222.374 239.997C221.879 239.241 221.213 238.611 220.432 238.16C220.227 236.573 219.471 235.11 218.296 234.028C217.122 232.947 215.604 232.316 214.012 232.248C213.629 231.124 212.958 230.12 212.066 229.338C211.175 228.556 210.094 228.024 208.933 227.793C208.652 227.741 208.367 227.711 208.081 227.702L208 227.712L207.854 227.73L207.737 227.745L207.609 227.76L207.451 227.78L207.096 227.824C205.55 228.051 204.136 228.82 203.102 229.994C202.068 231.168 201.481 232.672 201.446 234.239C199.341 234.018 197.545 234.864 197.361 236.206C197.318 236.562 197.383 236.923 197.548 237.241C198.022 238.204 199.279 239.03 200.859 239.316L201.065 239.35L201.372 239.39L201.436 239.382C201.197 240.116 201.123 240.895 201.22 241.661C201.331 242.603 201.699 243.496 202.284 244.242C202.868 244.987 203.645 245.557 204.531 245.888L204.407 245.987C204.238 246.184 204.113 246.414 204.04 246.662C203.753 247.361 203.551 248.093 203.439 248.841C203.369 249.479 203.426 250.126 203.321 250.763C203.122 251.935 202.377 252.996 202.423 254.185C202.441 254.717 202.608 255.35 202.277 255.736C202.195 255.827 202.104 255.91 202.006 255.984C201.77 256.199 201.579 256.459 201.443 256.748C201.361 257.006 201.235 257.247 201.069 257.46C200.762 257.754 200.205 257.799 200.09 258.211C199.975 258.624 200.458 259.034 200.412 259.473C200.365 259.913 200.014 260.039 199.781 260.312C199.517 260.679 199.351 261.109 199.302 261.56C198.763 261.734 198.193 261.786 197.631 261.714C197.07 261.641 196.531 261.446 196.053 261.141C196.248 261.5 196.406 261.879 196.524 262.271C195.969 261.945 195.357 261.726 194.722 261.626C193.992 261.396 193.319 261.013 192.748 260.503L193.699 260.249L188.615 254.225L187.317 254.118L188.718 256.162C188.629 256.217 188.553 256.291 188.497 256.38C188.44 256.468 188.404 256.568 188.391 256.672C188.36 256.923 188.378 257.177 188.442 257.421C188.573 258.005 188.743 258.58 188.95 259.141L189.466 260.635C189.513 260.771 189.566 260.913 189.624 261.049C189.195 261.081 188.773 261.181 188.376 261.346C187.489 261.134 186.58 261.033 185.668 261.044C185.471 261.028 185.273 261.053 185.085 261.116C184.88 261.247 184.709 261.425 184.587 261.635C183.956 262.584 183.416 263.59 182.974 264.64C181.138 268.944 178.532 272.826 176.106 276.811C174.223 277.863 172.317 278.877 170.411 279.891L166.312 282.074C165.52 282.56 164.634 282.871 163.713 282.989C163.305 283.039 162.787 283.014 162.579 283.396C162.489 283.593 162.425 283.801 162.389 284.014L161.952 284.116C161.661 283.438 161.228 282.831 160.684 282.335C160.581 282.366 160.487 282.422 160.411 282.497C160.335 282.573 160.278 282.666 160.246 282.769C160.165 282.975 160.127 283.194 160.027 283.391C159.841 283.758 159.459 283.972 159.209 284.294C158.958 284.616 158.833 285.083 158.554 285.415C158.164 285.787 157.684 286.051 157.162 286.181C156.386 286.467 155.652 286.856 154.978 287.336C154.735 287.535 154.467 287.702 154.181 287.833C153.861 287.938 153.525 287.991 153.188 287.991L150.893 288.102C150.686 288.102 150.48 288.138 150.284 288.207C150.067 288.329 149.895 288.516 149.791 288.743C149.687 288.969 149.657 289.223 149.706 289.468C149.766 289.712 149.874 289.942 150.025 290.143C150.177 290.344 150.367 290.512 150.584 290.637C151.014 290.88 151.479 291.053 151.962 291.15C154.025 291.677 156.128 292.029 158.25 292.205L158.307 292.667C159.844 293.221 161.489 293.404 163.109 293.203C163.23 293.197 163.348 293.16 163.451 293.096C163.586 292.966 163.67 292.791 163.686 292.603C163.991 291.091 164.11 289.548 164.042 288.006C164.325 287.952 164.595 287.846 164.839 287.694C165.593 287.381 166.441 287.823 167.263 287.811C168.274 287.799 169.123 287.1 170.023 286.626L170.415 286.441C170.189 286.821 169.908 287.166 169.582 287.465C169.226 287.794 168.815 288.059 168.472 288.398C168.187 288.73 167.877 289.038 167.544 289.321C167.303 289.472 167.053 289.606 166.794 289.723C166.415 289.92 166.061 290.164 165.741 290.447C165.454 290.671 165.224 290.96 165.07 291.291C164.993 291.46 164.959 291.645 164.971 291.83C164.982 292.015 165.039 292.195 165.136 292.353C165.233 292.48 165.357 292.584 165.498 292.659C165.639 292.734 165.794 292.777 165.953 292.787C166.266 292.796 166.579 292.757 166.88 292.672C168.105 292.426 169.322 292.163 170.538 291.9C171.055 291.802 171.562 291.664 172.056 291.486C172.317 291.389 172.574 291.268 172.833 291.159C173.279 290.985 173.741 290.856 174.212 290.774C174.348 290.747 174.488 290.744 174.626 290.765C174.923 290.823 175.163 291.091 175.462 291.113C175.663 291.114 175.86 291.063 176.036 290.965C176.911 290.66 177.815 290.449 178.735 290.335C179.137 290.285 179.597 290.127 179.737 289.73C179.878 289.332 179.465 288.771 179.252 288.292C179.135 287.983 179.052 287.662 179.004 287.336C178.834 286.538 178.507 285.782 178.042 285.113C177.798 284.804 177.585 284.472 177.405 284.121C179.086 283.231 180.667 282.163 182.121 280.936C182.91 280.199 183.823 279.609 184.819 279.194C186.018 278.898 187.271 278.89 188.475 279.171C191.379 279.64 194.257 280.265 197.095 281.042C198.45 281.416 199.802 281.819 201.182 282.059C201.634 282.534 202.159 282.932 202.737 283.24C203.719 283.645 204.786 283.802 205.842 283.695C207.263 283.65 208.681 283.529 210.089 283.331C211.176 283.245 212.228 282.911 213.166 282.357C213.388 282.209 213.591 282.034 213.771 281.836C214.156 281.822 214.533 281.722 214.875 281.546C215.217 281.369 215.517 281.119 215.752 280.813C216.436 280.061 216.878 279.12 217.023 278.112C217.203 276.735 216.743 275.175 217.428 274.008C217.608 273.689 217.865 273.42 218.044 273.1C218.256 272.667 218.328 272.178 218.251 271.702C218.258 271.682 218.267 271.663 218.279 271.645C218.405 271.193 218.467 270.725 218.463 270.255C218.518 269.879 218.601 269.507 218.71 269.143C218.997 268.059 219.229 266.961 219.405 265.853C219.528 265.116 219.606 264.372 219.639 263.625C219.654 263.029 219.635 262.437 219.609 261.846C219.557 260.916 219.623 259.983 219.805 259.07C220.277 256.891 220.42 254.653 220.229 252.432L220.213 252.303C221.272 252.046 222.197 251.401 222.806 250.495C223.415 249.588 223.663 248.485 223.503 247.403C223.423 246.751 223.207 246.124 222.868 245.562C223.273 244.601 223.417 243.55 223.285 242.515ZM205.562 270.54C205.654 270.761 205.757 270.974 205.861 271.187C205.475 270.896 205.1 270.591 204.714 270.294C204.854 270.325 204.999 270.348 205.134 270.385C205.276 270.424 205.413 270.476 205.544 270.543L205.562 270.54ZM203.772 269.62C201.538 268.113 199.037 267.037 196.762 265.588C197.956 266.005 199.133 266.52 200.294 267.006C201.672 267.585 203.064 268.133 204.469 268.648C204.294 269.015 204.052 269.346 203.755 269.622L203.772 269.62ZM204.083 265.088L204.17 264.977C204.201 265.228 204.229 265.457 204.256 265.673L203.691 265.553C203.825 265.407 203.95 265.252 204.066 265.091L204.083 265.088ZM186.923 272.022C187.635 270.979 188.227 269.859 188.69 268.683C189.661 269.984 191.087 270.836 192.334 271.877C190.527 271.868 188.719 271.895 186.923 272.022Z" fill="url(#paint1_linear_107_794)"/>
<path d="M187.687 254.619L188.99 254.72L194.117 260.619L192.242 261.112L187.687 254.619Z" fill="#2F2E41"/>
<path d="M160.084 284.524C160.569 285.617 161.131 286.674 161.765 287.687C163.163 287.205 164.526 286.626 165.843 285.953C165.521 285.58 165.179 285.226 164.818 284.891C164.43 284.559 163.987 284.298 163.509 284.119C163.018 284.07 162.522 284.131 162.057 284.299C161.402 284.362 160.744 284.455 160.084 284.524Z" fill="#FBBEBE"/>
<path d="M163.725 285.817C163.361 285.704 163.025 285.515 162.741 285.261C162.456 285.007 162.229 284.694 162.075 284.344C161.763 283.642 161.304 283.016 160.729 282.508C160.625 282.535 160.529 282.589 160.451 282.664C160.374 282.739 160.316 282.833 160.285 282.937C160.203 283.137 160.165 283.356 160.071 283.558C159.879 283.92 159.491 284.134 159.234 284.451C158.978 284.768 158.857 285.229 158.577 285.555C158.184 285.929 157.7 286.193 157.174 286.323C156.385 286.607 155.637 286.993 154.948 287.471C154.698 287.666 154.426 287.832 154.138 287.963C153.812 288.054 153.474 288.096 153.135 288.087L150.817 288.207C150.62 288.199 150.423 288.223 150.234 288.279C150.01 288.393 149.831 288.579 149.725 288.808C149.619 289.037 149.592 289.294 149.65 289.54C149.707 289.783 149.816 290.012 149.968 290.21C150.12 290.409 150.312 290.573 150.532 290.691C150.967 290.93 151.435 291.1 151.921 291.197C154.015 291.707 156.147 292.04 158.296 292.193L158.352 292.65C159.902 293.189 161.554 293.365 163.182 293.165C163.302 293.157 163.419 293.123 163.524 293.063C163.66 292.933 163.743 292.758 163.76 292.57C164.113 290.885 164.228 289.158 164.103 287.44C164.087 287.002 164 286.569 163.844 286.159C163.665 285.759 164.118 285.881 163.701 285.766" fill="#FF6F61"/>
<path opacity="0.1" d="M163.574 293.439C163.574 293.439 161.069 295.027 152.761 291.859C148.448 290.212 149.193 288.29 150.5 288C152.5 290 153.402 290.141 156.5 290.5C160.973 290.992 162.745 290.856 164 291.095C163.937 291.691 163.574 293.439 163.574 293.439Z" fill="black"/>
<path d="M206.715 271.682C199.954 272.933 192.977 271.761 186.128 272.393C185.274 272.442 184.43 272.6 183.617 272.864C182.778 273.207 181.978 273.639 181.23 274.151C177.785 276.312 174.175 278.196 170.57 280.074L166.426 282.232C165.628 282.719 164.737 283.032 163.81 283.149C163.396 283.2 162.877 283.175 162.675 283.551C162.1 284.692 162.622 286.191 163.235 287.316C163.433 287.677 163.741 288.061 164.155 288.052C164.439 287.997 164.71 287.891 164.957 287.739C165.718 287.431 166.571 287.866 167.398 287.853C168.414 287.835 169.276 287.146 170.184 286.677C171.686 285.898 173.4 285.686 175.025 285.224C177.738 284.419 180.15 282.808 182.371 281.042C183.167 280.309 184.088 279.724 185.088 279.315C186.297 279.019 187.558 279.007 188.773 279.282C191.697 279.734 194.596 280.34 197.458 281.099C198.951 281.543 200.47 281.897 202.005 282.16C205.342 282.609 208.733 281.982 211.689 280.37C212.726 279.802 213.819 278.918 213.728 277.705C213.686 277.026 213.088 276.5 212.673 275.963C212.406 275.621 212.133 275.28 211.849 274.953C210.473 273.399 208.77 271.303 206.715 271.682Z" fill="#2F2E41"/>
<path opacity="0.1" d="M206.715 271.682C199.954 272.933 192.977 271.761 186.128 272.393C185.274 272.442 184.43 272.6 183.617 272.864C182.778 273.207 181.978 273.639 181.23 274.151C177.785 276.312 174.175 278.196 170.57 280.074L166.426 282.232C165.628 282.719 164.737 283.032 163.81 283.149C163.396 283.2 162.877 283.175 162.675 283.551C162.1 284.692 162.622 286.191 163.235 287.316C163.433 287.677 163.741 288.061 164.155 288.052C164.439 287.997 164.71 287.891 164.957 287.739C165.718 287.431 166.571 287.866 167.398 287.853C168.414 287.835 169.276 287.146 170.184 286.677C171.686 285.898 173.4 285.686 175.025 285.224C177.738 284.419 180.15 282.808 182.371 281.042C183.167 280.309 184.088 279.724 185.088 279.315C186.297 279.019 187.558 279.007 188.773 279.282C191.697 279.734 194.596 280.34 197.458 281.099C198.951 281.543 200.47 281.897 202.005 282.16C205.342 282.609 208.733 281.982 211.689 280.37C212.726 279.802 213.819 278.918 213.728 277.705C213.686 277.026 213.088 276.5 212.673 275.963C212.406 275.621 212.133 275.28 211.849 274.953C210.473 273.399 208.77 271.303 206.715 271.682Z" fill="black"/>
<path d="M173.203 283.226C174.313 283.457 175.43 283.66 176.553 283.835C177.012 282.761 178.092 281.921 178.201 280.742C178.21 280.691 178.203 280.638 178.183 280.59C178.148 280.545 178.1 280.512 178.046 280.494C177.214 280.16 176.319 280.013 175.424 280.063C174.719 280.108 174.488 280.88 174.237 281.434C174.143 281.677 173.503 283.302 173.203 283.226Z" fill="#FBBEBE"/>
<path d="M174.608 282.327C174.283 282.312 173.964 282.23 173.672 282.084C173.38 281.939 173.121 281.735 172.911 281.484C172.733 281.239 172.526 280.902 172.227 280.975C171.928 281.047 171.868 281.376 171.837 281.659C171.764 282.721 171.595 283.774 171.332 284.806C171.069 285.843 170.523 286.785 169.756 287.526C169.393 287.851 168.981 288.109 168.626 288.45C168.339 288.778 168.026 289.083 167.691 289.362C167.448 289.51 167.195 289.64 166.934 289.753C166.554 289.953 166.199 290.196 165.875 290.478C165.583 290.698 165.348 290.986 165.191 291.317C165.114 291.483 165.08 291.665 165.092 291.848C165.104 292.03 165.162 292.207 165.261 292.361C165.359 292.485 165.483 292.588 165.624 292.66C165.764 292.733 165.919 292.775 166.077 292.783C166.394 292.791 166.71 292.752 167.016 292.667C168.247 292.426 169.475 292.161 170.704 291.897C171.223 291.798 171.735 291.661 172.234 291.488L173.017 291.165C173.465 290.985 173.932 290.856 174.408 290.78C174.546 290.75 174.688 290.746 174.827 290.769C175.125 290.828 175.364 291.089 175.669 291.111C175.869 291.106 176.065 291.055 176.243 290.963C177.125 290.656 178.038 290.446 178.966 290.336C179.374 290.285 179.839 290.121 179.981 289.735C180.158 289.249 179.71 288.788 179.492 288.315C179.378 288.012 179.295 287.697 179.246 287.377C179.078 286.589 178.75 285.845 178.283 285.19C177.896 284.643 177.385 284.052 177.53 283.404C177.615 283.194 177.66 282.968 177.661 282.74C177.449 281.744 175.195 282.385 174.608 282.327Z" fill="#FF6F61"/>
<path opacity="0.1" d="M180.5 290C180.5 290 178.778 291.082 170 292.5C165.5 294 165 292.5 165 291C168 291 167 290.5 171.5 289.5C176 288.5 178.293 286.922 179.5 286.5C179.743 287.048 180.5 290 180.5 290Z" fill="black"/>
<path d="M195.149 261.971C193.874 261.589 192.787 260.744 192.097 259.602C191.955 259.358 191.827 259.095 191.685 258.851C191.221 258.022 190.57 257.315 189.784 256.785C189.699 256.715 189.601 256.662 189.495 256.632C189.39 256.601 189.279 256.592 189.17 256.606C189.065 256.652 188.975 256.725 188.909 256.818C188.842 256.911 188.801 257.02 188.791 257.134C188.755 257.38 188.77 257.631 188.834 257.871C188.965 258.44 189.133 258.999 189.337 259.545L189.856 261.014C189.929 261.24 190.025 261.457 190.143 261.662C190.317 261.898 190.532 262.099 190.779 262.255C191.117 262.499 191.459 262.73 191.802 262.961C192 263.095 192.212 263.207 192.435 263.293C192.78 263.409 193.141 263.469 193.504 263.47C194.918 263.48 196.31 263.83 197.562 264.491C197.562 264.491 197.437 263.478 197.423 263.367C197.372 263.074 197.235 262.804 197.031 262.589C196.448 262.264 195.81 262.055 195.149 261.971Z" fill="#FBBEBE"/>
<path opacity="0.1" d="M195.149 261.971C193.874 261.589 192.787 260.744 192.097 259.602C191.955 259.358 191.827 259.095 191.685 258.851C191.221 258.022 190.57 257.315 189.784 256.785C189.699 256.715 189.601 256.662 189.495 256.632C189.39 256.601 189.279 256.592 189.17 256.606C189.065 256.652 188.975 256.725 188.909 256.818C188.842 256.911 188.801 257.02 188.791 257.134C188.755 257.38 188.77 257.631 188.834 257.871C188.965 258.44 189.133 258.999 189.337 259.545L189.856 261.014C189.929 261.24 190.025 261.457 190.143 261.662C190.317 261.898 190.532 262.099 190.779 262.255C191.117 262.499 191.459 262.73 191.802 262.961C192 263.095 192.212 263.207 192.435 263.293C192.78 263.409 193.141 263.469 193.504 263.47C194.918 263.48 196.31 263.83 197.562 264.491C197.562 264.491 197.437 263.478 197.423 263.367C197.372 263.074 197.235 262.804 197.031 262.589C196.448 262.264 195.81 262.055 195.149 261.971Z" fill="black"/>
<path d="M207.59 248.702C208.504 248.589 209.153 247.748 209.039 246.823C208.925 245.899 208.091 245.241 207.176 245.354C206.262 245.467 205.613 246.308 205.727 247.232C205.841 248.157 206.675 248.815 207.59 248.702Z" fill="#2F2E41"/>
<path d="M206.232 246.147C205.776 246.095 205.317 246.22 204.949 246.496C204.779 246.69 204.652 246.919 204.576 247.166C204.284 247.852 204.079 248.573 203.964 249.31C203.891 249.914 203.949 250.578 203.837 251.204C203.636 252.358 202.884 253.408 202.928 254.579C202.945 255.106 203.108 255.704 202.772 256.102C202.689 256.194 202.599 256.279 202.502 256.356C202.261 256.564 202.067 256.821 201.932 257.11C201.847 257.362 201.718 257.598 201.55 257.805C201.243 258.098 200.68 258.144 200.561 258.521C200.441 258.898 200.927 259.332 200.88 259.766C200.833 260.199 200.476 260.327 200.242 260.593C199.974 260.959 199.806 261.39 199.757 261.842C199.216 262.017 198.643 262.073 198.079 262.004C197.514 261.935 196.971 261.744 196.487 261.443C197.017 262.569 197.337 263.782 197.432 265.023C197.486 265.217 197.5 265.42 197.473 265.619C197.447 265.818 197.381 266.01 197.28 266.184C198.607 266.119 199.938 266.186 201.253 266.382C201.827 266.499 202.422 266.425 202.95 266.173C203.225 265.977 203.464 265.735 203.655 265.456C204.266 264.655 204.905 263.786 204.952 262.775C204.925 262.211 204.865 261.649 204.774 261.092C204.754 260.389 204.813 259.686 204.947 258.996C205.146 257.574 205.22 256.136 205.169 254.701C205.136 253.813 205.807 253.017 206.11 252.207C206.674 250.634 207.253 248.999 207.1 247.33C207.057 246.788 206.788 246.138 206.232 246.147Z" fill="#2F2E41"/>
<path opacity="0.1" d="M206.232 246.147C205.776 246.095 205.317 246.22 204.949 246.496C204.779 246.69 204.652 246.919 204.576 247.166C204.284 247.852 204.079 248.573 203.964 249.31C203.891 249.914 203.949 250.578 203.837 251.204C203.636 252.358 202.884 253.408 202.928 254.579C202.945 255.106 203.108 255.704 202.772 256.102C202.689 256.194 202.599 256.279 202.502 256.356C202.261 256.564 202.067 256.821 201.932 257.11C201.847 257.362 201.718 257.598 201.55 257.805C201.243 258.098 200.68 258.144 200.561 258.521C200.441 258.898 200.927 259.332 200.88 259.766C200.833 260.199 200.476 260.327 200.242 260.593C199.974 260.959 199.806 261.39 199.757 261.842C199.216 262.017 198.643 262.073 198.079 262.004C197.514 261.935 196.971 261.744 196.487 261.443C197.017 262.569 197.337 263.782 197.432 265.023C197.486 265.217 197.5 265.42 197.473 265.619C197.447 265.818 197.381 266.01 197.28 266.184C198.607 266.119 199.938 266.186 201.253 266.382C201.827 266.499 202.422 266.425 202.95 266.173C203.225 265.977 203.464 265.735 203.655 265.456C204.266 264.655 204.905 263.786 204.952 262.775C204.925 262.211 204.865 261.649 204.774 261.092C204.754 260.389 204.813 259.686 204.947 258.996C205.146 257.574 205.22 256.136 205.169 254.701C205.136 253.813 205.807 253.017 206.11 252.207C206.674 250.634 207.253 248.999 207.1 247.33C207.057 246.788 206.788 246.138 206.232 246.147Z" fill="black"/>
<path d="M207.971 272.989C206.47 272.485 205.277 271.354 203.994 270.413C201.552 268.617 198.697 267.501 196.153 265.836C194.467 264.742 192.894 263.421 191.111 262.548C189.516 261.789 187.77 261.409 186.006 261.436C185.809 261.416 185.61 261.44 185.423 261.508C185.214 261.63 185.042 261.805 184.923 262.016C184.284 262.95 183.734 263.943 183.283 264.982C180.981 270.319 177.351 275.011 174.487 280.06C174.42 280.166 174.377 280.284 174.359 280.409C174.366 280.59 174.434 280.763 174.55 280.902L175.419 282.186C175.905 282.91 176.646 283.728 177.466 283.472C177.831 283.316 178.142 283.056 178.363 282.725L181.128 279.323L184.028 275.761C185.724 273.68 187.45 271.547 188.418 269.026C189.609 270.614 191.49 271.517 192.873 272.934C193.4 273.463 193.855 274.078 194.341 274.66C195.113 275.587 195.971 276.444 196.825 277.325L201.195 281.689C201.757 282.312 202.423 282.833 203.161 283.23C204.154 283.623 205.226 283.774 206.288 283.67C207.721 283.621 209.151 283.497 210.57 283.295C211.665 283.205 212.726 282.871 213.676 282.318C214.149 282.035 214.532 281.624 214.78 281.131C215.028 280.638 215.132 280.085 215.079 279.535C214.951 278.975 214.698 278.452 214.339 278.004C212.673 275.731 210.658 273.888 207.971 272.989Z" fill="#2F2E41"/>
<path d="M208.706 249.349C209.411 249.262 209.911 248.615 209.824 247.904C209.736 247.192 209.093 246.686 208.387 246.773C207.682 246.861 207.182 247.508 207.269 248.219C207.357 248.93 208 249.437 208.706 249.349Z" fill="#F0E8E8"/>
<path d="M208.147 247.13C208.503 247.669 208.635 248.327 208.516 248.962C208.389 249.588 208.183 250.194 207.904 250.768C207.675 251.351 207.38 251.906 207.025 252.422C209.007 252.272 210.819 251.264 212.435 250.113C213.741 249.185 215.02 248.082 215.592 246.579C215.376 246.66 215.146 246.694 214.915 246.679C214.685 246.665 214.46 246.602 214.256 246.494C213.848 246.281 213.473 246.009 213.144 245.687L212.021 244.696C211.767 244.479 211.538 244.234 211.339 243.966C211.073 243.598 210.926 243.158 210.916 242.704C210.574 243.164 210.181 243.584 209.745 243.955C209.096 244.504 208.362 244.934 207.707 245.478C207.482 245.672 206.954 245.999 207.14 246.309C207.326 246.619 207.906 246.803 208.147 247.13Z" fill="#FBBEBE"/>
<path opacity="0.1" d="M208.147 247.13C208.503 247.669 208.635 248.327 208.516 248.962C208.389 249.588 208.183 250.194 207.904 250.768C207.675 251.351 207.38 251.906 207.025 252.422C209.007 252.272 210.819 251.264 212.435 250.113C213.741 249.185 215.02 248.082 215.592 246.579C215.376 246.66 215.146 246.694 214.915 246.679C214.685 246.665 214.46 246.602 214.256 246.494C213.848 246.281 213.473 246.009 213.144 245.687L212.021 244.696C211.767 244.479 211.538 244.234 211.339 243.966C211.073 243.598 210.926 243.158 210.916 242.704C210.574 243.164 210.181 243.584 209.745 243.955C209.096 244.504 208.362 244.934 207.707 245.478C207.482 245.672 206.954 245.999 207.14 246.309C207.326 246.619 207.906 246.803 208.147 247.13Z" fill="black"/>
<path d="M208.195 247.32C208.03 247.627 207.964 247.978 208.007 248.324C208.05 248.67 208.199 248.995 208.433 249.252C208.5 249.315 208.764 249.728 208.852 249.723C208.895 249.715 208.935 249.697 208.971 249.672C209.006 249.648 209.036 249.616 209.06 249.579C209.45 249.054 209.805 248.504 210.123 247.932C210.449 247.36 210.965 246.922 211.581 246.694C212.363 246.567 213.165 246.713 213.852 247.109C214.161 247.207 214.444 247.376 214.677 247.602C214.849 247.842 214.968 248.118 215.025 248.409C215.434 250.152 215.727 251.921 215.904 253.703C216.096 254.982 216.17 256.276 216.127 257.568C216.078 258.234 215.971 258.895 215.965 259.568C215.968 260.159 216.014 260.749 216.1 261.334L216.402 263.781C216.442 264.232 216.529 264.678 216.661 265.11C216.843 265.629 217.156 266.095 217.389 266.596C217.638 267.173 217.832 267.771 217.971 268.384L218.616 270.872C218.819 271.655 219.009 272.518 218.608 273.251C218.427 273.564 218.17 273.834 217.984 274.148C217.295 275.327 217.724 276.837 217.566 278.194C217.415 279.191 216.963 280.118 216.272 280.85C216.031 281.157 215.726 281.406 215.378 281.582C215.031 281.757 214.649 281.854 214.26 281.865C213.21 281.799 212.465 280.803 212.06 279.825C211.655 278.846 211.42 277.758 210.708 276.978C210.072 276.4 209.346 275.929 208.559 275.585C207.762 275.235 207.13 274.592 206.791 273.788C206.682 273.428 206.699 273.039 206.589 272.672C206.476 272.208 206.24 271.782 205.907 271.439C205.575 271.096 205.156 270.85 204.696 270.725C204.146 270.585 203.495 270.588 203.133 270.145C203.825 269.58 204.281 268.775 204.411 267.889C204.538 267.009 204.555 266.116 204.462 265.232L204.276 262.283C204.195 260.956 204.069 259.652 204.5 258.398C204.692 257.839 204.957 257.301 205.155 256.748C205.42 255.972 205.629 255.177 205.779 254.371C206.05 253.113 206.321 251.855 206.544 250.591C206.617 249.982 206.77 249.385 207 248.817C207.247 248.228 207.62 247.51 208.195 247.32Z" fill="#F0E8E8"/>
<path d="M204.052 267.232L204.827 267.136L204.846 265.945C204.838 265.707 204.865 265.47 204.925 265.24C205.024 264.991 205.148 264.753 205.293 264.529C205.917 263.352 205.688 261.924 205.712 260.584C205.835 258.802 206.2 257.045 206.796 255.362L207.885 251.81C207.988 251.518 208.061 251.216 208.105 250.909C208.128 250.573 208.118 250.236 208.075 249.902C208.011 249.381 207.94 247.464 207.895 246.953C207.871 246.76 207.458 246.917 207.35 246.759C207.117 246.407 206.985 247.451 206.657 247.718C206.354 248.015 206.155 248.402 206.089 248.822C205.866 249.706 205.781 250.643 205.581 251.518C205.425 252.424 205.039 253.275 204.459 253.986C204.183 254.294 203.854 254.554 203.599 254.883C202.78 255.923 202.868 257.404 203.002 258.731C203.079 259.542 203.877 267.253 204.052 267.232Z" fill="#2F2E41"/>
<path d="M212.681 245.346C212.344 245.579 212.065 245.888 211.866 246.248C211.667 246.607 211.553 247.008 211.534 247.419C211.5 248.243 211.362 249.059 211.123 249.847C210.382 251.615 208.033 252.392 207.583 254.261C207.488 254.882 207.475 255.513 207.542 256.138C207.584 257.434 207.317 258.722 207.346 260.014C207.405 261.015 207.551 262.009 207.784 262.985L209.874 272.962C210.219 274.425 210.32 275.935 210.172 277.431C211.054 277.448 211.919 277.191 212.65 276.697C213.393 276.236 214.055 275.65 214.766 275.134C215.983 274.246 217.366 273.558 218.396 272.451C218.582 272.26 218.735 272.041 218.849 271.8C218.972 271.356 219.035 270.896 219.035 270.434C219.09 270.065 219.174 269.701 219.286 269.345C219.581 268.275 219.818 267.191 219.997 266.095C220.121 265.37 220.201 264.637 220.236 263.902C220.257 263.305 220.237 262.713 220.211 262.122C220.16 261.207 220.23 260.289 220.419 259.392C220.897 257.246 221.045 255.039 220.86 252.847C220.844 252.531 220.783 252.218 220.68 251.918C220.505 251.558 220.289 251.219 220.035 250.91C219.603 250.292 219.28 249.595 218.894 248.959C217.884 247.578 216.544 246.474 214.998 245.749C214.265 245.37 213.411 244.976 212.681 245.346Z" fill="#2F2E41"/>
<path d="M197.095 263.972C196.457 263.73 195.864 263.384 195.34 262.946C195.1 262.726 194.891 262.473 194.662 262.252C194.049 261.734 193.296 261.413 192.5 261.33C191.713 261.255 190.921 261.275 190.139 261.39C189.609 261.419 189.088 261.548 188.605 261.769C188.365 261.884 188.157 262.058 188.001 262.275C187.845 262.491 187.745 262.744 187.71 263.009C187.729 263.33 187.829 263.641 188.003 263.911C188.176 264.181 188.416 264.402 188.7 264.551C189.202 264.87 189.772 265.064 190.363 265.118C190.842 265.144 191.322 265.142 191.801 265.113C194.625 265.062 197.303 266.276 199.917 267.362C202.215 268.323 204.544 269.192 206.906 269.97C206.91 269.29 206.863 268.61 206.767 267.937C206.705 267.433 206.569 266.666 206.06 266.425C205.353 266.226 204.627 266.102 203.895 266.057C202.397 265.763 200.922 265.365 199.479 264.866C198.668 264.628 197.877 264.309 197.095 263.972Z" fill="#FBBEBE"/>
<path d="M207.336 246.648C210.08 246.309 212.027 243.788 211.685 241.017C211.343 238.246 208.841 236.274 206.097 236.613C203.353 236.952 201.406 239.473 201.748 242.244C202.09 245.015 204.592 246.986 207.336 246.648Z" fill="#FBBEBE"/>
<path d="M214.8 250.855C214.473 251.463 214.224 252.111 214.061 252.783C213.634 254.12 212.776 255.319 212.458 256.72C212.139 258.12 212.346 259.842 211.484 261.06C211.305 261.252 211.181 261.489 211.124 261.746C211.139 261.9 211.143 262.054 211.134 262.209C211.038 262.625 210.392 262.722 210.321 263.147C210.3 263.269 210.351 263.393 210.307 263.517C210.24 263.793 209.896 263.877 209.688 264.063C209.244 264.451 209.437 265.2 209.152 265.716C209.023 265.912 208.846 266.069 208.637 266.173C208.429 266.277 208.196 266.324 207.964 266.309C207.5 266.272 207.045 266.162 206.615 265.982C206.461 265.921 206.296 265.89 206.13 265.893C205.938 265.924 205.759 266.012 205.617 266.147C205.217 266.527 204.918 267 204.745 267.524C204.572 268.048 204.531 268.608 204.626 269.152C204.829 270.241 205.222 271.285 205.789 272.236C205.859 272.404 205.965 272.555 206.098 272.679C206.289 272.795 206.509 272.851 206.731 272.84C206.953 272.83 207.167 272.753 207.346 272.62C207.698 272.346 208.081 272.114 208.486 271.927C209.238 271.691 210.056 272.131 210.832 271.988C211.39 271.833 211.897 271.53 212.299 271.111C213.025 270.544 213.657 269.864 214.169 269.097C214.452 268.604 214.634 268.065 214.878 267.547C215.192 266.916 215.541 266.304 215.924 265.712L218.36 261.845C218.604 261.477 218.817 261.088 218.998 260.685C219.19 260.141 219.318 259.576 219.382 259.003C219.574 258.037 219.651 257.052 219.612 256.068C219.53 255.26 219.36 254.464 219.106 253.694C218.921 252.918 218.63 252.171 218.24 251.477C217.452 250.23 215.803 249.34 214.8 250.855Z" fill="#2F2E41"/>
<path d="M223.976 243.077C223.87 242.187 223.556 241.335 223.058 240.591C222.561 239.846 221.895 239.231 221.114 238.795C220.896 237.217 220.127 235.769 218.946 234.706C217.764 233.642 216.246 233.034 214.66 232.988C214.176 231.527 213.194 230.284 211.886 229.479C210.578 228.673 209.03 228.357 207.513 228.586C205.997 228.815 204.611 229.575 203.599 230.731C202.587 231.887 202.015 233.365 201.984 234.904C199.862 234.69 198.048 235.533 197.861 236.851C197.675 238.17 199.336 239.641 201.584 239.958C202.294 240.066 203.017 240.049 203.721 239.908C204.32 240.595 205.055 241.148 205.88 241.532C206.704 241.917 207.599 242.124 208.508 242.14C208.922 243.314 209.653 244.35 210.619 245.131C211.586 245.913 212.749 246.409 213.98 246.564C214.411 247.323 215.012 247.971 215.736 248.457C215.755 248.615 215.775 248.779 215.796 248.943C215.864 249.498 216.041 250.033 216.315 250.519C216.59 251.005 216.957 251.432 217.396 251.776C217.834 252.12 218.336 252.373 218.873 252.523C219.409 252.672 219.969 252.713 220.521 252.645C221.074 252.577 221.607 252.4 222.091 252.125C222.575 251.85 223 251.482 223.342 251.042C223.684 250.602 223.936 250.098 224.084 249.56C224.232 249.022 224.273 248.459 224.205 247.905C224.126 247.261 223.91 246.641 223.572 246.087C223.976 245.139 224.116 244.099 223.976 243.077Z" fill="#B600E4"/>
<path opacity="0.1" d="M199.294 236.947C199.48 235.629 201.295 234.787 203.417 235C203.472 233.433 204.078 231.938 205.126 230.777C206.175 229.616 207.599 228.866 209.146 228.658L209.572 228.605C208.956 228.497 208.328 228.481 207.707 228.556C206.159 228.764 204.735 229.515 203.687 230.675C202.638 231.836 202.033 233.332 201.978 234.898C199.855 234.685 198.041 235.527 197.855 236.846C197.668 238.165 199.33 239.635 201.577 239.952C201.999 240.015 202.426 240.036 202.852 240.015C200.693 239.646 199.111 238.295 199.294 236.947Z" fill="black"/>
<path opacity="0.1" d="M217.202 249.019C217.174 248.86 217.154 248.7 217.143 248.539C216.417 248.056 215.815 247.407 215.388 246.646C214.155 246.492 212.99 245.996 212.023 245.213C211.056 244.43 210.326 243.392 209.915 242.216C209.006 242.202 208.109 241.997 207.284 241.614C206.458 241.23 205.722 240.677 205.123 239.99C204.713 240.076 204.295 240.116 203.876 240.108C204.472 240.735 205.186 241.237 205.976 241.585C206.765 241.933 207.616 242.121 208.478 242.138C208.892 243.312 209.623 244.347 210.589 245.129C211.556 245.91 212.72 246.406 213.951 246.562C214.382 247.321 214.983 247.969 215.706 248.455C215.725 248.613 215.746 248.777 215.766 248.941C215.887 250.078 216.452 251.121 217.336 251.842C218.221 252.564 219.353 252.905 220.486 252.792C219.622 252.572 218.845 252.094 218.258 251.419C217.671 250.745 217.303 249.908 217.202 249.019Z" fill="black"/>
<path d="M209.222 243.19C209.527 242.893 209.452 242.32 209.055 241.912C208.659 241.503 208.091 241.413 207.786 241.711C207.482 242.009 207.557 242.581 207.953 242.99C208.35 243.398 208.918 243.488 209.222 243.19Z" fill="#FBBEBE"/>
</g>
<defs>
<linearGradient id="paint0_linear_107_794" x1="389.816" y1="319.338" x2="398.717" y2="218.197" gradientUnits="userSpaceOnUse">
<stop stop-color="#808080" stop-opacity="0.25"/>
<stop offset="0.54" stop-color="#808080" stop-opacity="0.12"/>
<stop offset="1" stop-color="#808080" stop-opacity="0.1"/>
</linearGradient>
<linearGradient id="paint1_linear_107_794" x1="41154.3" y1="34779.4" x2="40418" y2="28816" gradientUnits="userSpaceOnUse">
<stop stop-color="#808080" stop-opacity="0.25"/>
<stop offset="0.54" stop-color="#808080" stop-opacity="0.12"/>
<stop offset="1" stop-color="#808080" stop-opacity="0.1"/>
</linearGradient>
<clipPath id="clip0_107_794">
<rect width="580" height="328" fill="white"/>
</clipPath>
</defs>
</svg>
