<svg width="59" height="57" viewBox="0 0 59 57" fill="none" xmlns="http://www.w3.org/2000/svg">
<path d="M44.6232 35.1198L44.6232 35.1192C44.5834 33.928 44.0875 32.7979 43.2384 31.9654C42.3892 31.1329 41.2524 30.6627 40.0657 30.6543H40.0622H39.915H39.907L39.899 30.6546C37.3614 30.7355 35.417 32.8964 35.4965 35.4456L35.4967 35.4549L35.4974 35.4642C35.5713 36.5413 35.9554 37.5052 36.5589 38.2356C34.1443 42.9138 30.4954 46.3701 25.0257 49.2913L25.0244 49.292C21.2702 51.3105 17.3856 52.0249 13.5068 51.5228C10.362 51.0966 7.96371 49.6868 6.45974 47.3965C4.23662 43.9357 4.02976 40.2145 5.90791 36.4646L5.90949 36.4614C7.24206 33.7525 9.35763 31.7434 10.6933 30.744L10.9736 30.5343L10.8723 30.1991C10.5853 29.2492 10.1563 27.6449 9.94247 26.4911L9.79705 25.7065L9.15443 26.1795C-1.59868 34.095 -0.526364 44.8665 2.78918 50.0058L2.78997 50.007C5.29815 53.8703 10.338 56.2083 15.8325 56.2083C17.3113 56.2083 18.8002 56.0573 20.2936 55.6796C29.641 53.8223 36.7541 48.2051 40.8289 39.8706C43.0598 39.4948 44.6994 37.486 44.6232 35.1198ZM25.6279 17.3826H25.627H25.4797H25.4715L25.4632 17.3829C22.9288 17.4665 20.9815 19.6268 21.0636 22.1767C21.1434 24.6538 23.1746 26.6398 25.6246 26.6398H25.7718H25.7849L25.7979 26.6391C26.6584 26.5943 27.4888 26.3065 28.194 25.8091C28.8072 25.3766 29.3041 24.8008 29.6437 24.1337H30.6311C36.0407 24.1337 41.1667 25.7235 45.8014 28.8408L45.8018 28.841C49.3509 31.2233 51.8921 34.312 53.3006 38.041L53.3005 38.041L53.304 38.0497C54.4926 41.0279 54.4129 43.8981 53.181 46.3356C51.2323 50.0791 47.9938 52.1091 43.6865 52.1091C40.8758 52.1091 38.19 51.248 36.7863 50.605L36.4881 50.4684L36.244 50.6876C35.212 51.6145 34.1356 52.49 33.0187 53.311L32.3434 53.8074L33.101 54.1659C36.2727 55.6665 39.5376 56.5 42.6723 56.5C49.8208 56.5 55.1451 52.4896 57.1912 48.4094L57.1929 48.4058C59.3879 43.9408 59.2035 36.3555 53.6428 29.945C48.0271 23.2621 39.758 19.5946 30.3413 19.5946H29.4772C29.1093 18.9696 28.5958 18.4416 27.9788 18.0575C27.2726 17.6178 26.4587 17.3841 25.6279 17.3826ZM20.6205 45.1461H20.6284L20.6364 45.1458C23.174 45.0649 25.1184 42.904 25.039 40.3549L25.0389 40.3537C24.9991 39.1626 24.5033 38.0324 23.6542 37.2C22.805 36.3674 21.6681 35.8973 20.4815 35.8889H20.478H20.3307H20.3248C20.2636 35.8889 20.171 35.8889 20.0717 35.8965C17.2832 31.0607 16.1312 25.8113 16.5496 20.1313L16.5499 20.1272C16.8335 15.7977 18.2509 12.064 20.721 8.97903L20.7211 8.97908L20.7265 8.97204C21.7102 7.69763 23.1701 6.72918 24.7409 6.06932C26.3096 5.41033 27.9525 5.07457 29.2651 5.039C32.8602 4.97047 35.4586 7.20222 37.2147 10.028C38.9737 12.8584 39.8193 16.1869 39.924 18.0588L39.9449 18.4327L40.3096 18.5178C41.2252 18.7314 42.799 19.24 43.8895 19.6092L44.6034 19.8509L44.5485 19.0993C43.6633 6.97049 36.2582 0.5 28.9615 0.5C22.1825 0.5 15.9979 5.467 13.5478 12.707C10.1914 22.2016 12.3231 31.3162 16.3426 38.5158C16.0157 39.118 15.847 39.9123 15.9151 40.6952C16.0023 43.1651 18.03 45.1461 20.4756 45.1461H20.6205Z" fill="#00E472" stroke="#00E472"/>
</svg>
