<svg width="50" height="50" viewBox="0 0 50 50" fill="none" xmlns="http://www.w3.org/2000/svg">
<path d="M13.4904 49.2455C14.7417 49.2455 16.0028 49.1132 17.2683 48.7817C25.1573 47.1564 31.1576 42.2479 34.5983 34.9782C36.5058 34.6233 37.8783 32.8414 37.8141 30.7758L37.814 30.7752C37.7802 29.7248 37.3583 28.7246 36.6306 27.9853C35.9023 27.2453 34.9235 26.8241 33.898 26.8166H33.8943H33.7703H33.7621L33.7538 26.8169C31.5555 26.8895 29.9032 28.8223 29.9706 31.0631L29.9708 31.0721L29.9714 31.0811C30.0333 32.0159 30.3515 32.8577 30.8562 33.503C28.829 37.5585 25.7707 40.5564 21.1883 43.0927L21.187 43.0934C18.0406 44.8466 14.7893 45.4652 11.5443 45.0299C8.92114 44.6612 6.9232 43.4442 5.66823 41.4637C3.80651 38.46 3.63267 35.2301 5.20667 31.9731L5.20817 31.9699C6.32528 29.6165 8.09905 27.871 9.21684 27.0042L9.48569 26.7958L9.39047 26.4692C9.14903 25.6411 8.7883 24.2428 8.60865 23.2383L8.46445 22.432L7.81319 22.9288C-1.27388 29.8611 -0.367533 39.2928 2.43601 43.7965L2.43676 43.7977C4.56358 47.1927 8.83626 49.2455 13.4904 49.2455ZM21.7393 15.234H21.7384H21.6144H21.6058L21.5973 15.2343C19.4018 15.3093 17.747 17.2415 17.8166 19.4831L18.3164 19.4675L17.8166 19.4831C17.8844 21.6626 19.6139 23.4402 21.7364 23.4402H21.8604H21.8739L21.8873 23.4395C22.6307 23.3994 23.3463 23.1418 23.9524 22.6987C24.467 22.3225 24.8846 21.826 25.1739 21.2531H25.9524C30.4874 21.2531 34.7864 22.634 38.6764 25.3455L38.6768 25.3458C41.6528 27.4161 43.7844 30.1005 44.9665 33.3438L44.9664 33.3438L44.9697 33.3523C45.9662 35.9401 45.8981 38.4308 44.8681 40.5431C43.2361 43.792 40.534 45.5408 36.9463 45.5408C34.5969 45.5408 32.3486 44.794 31.1748 44.2367L30.8681 44.0911L30.6197 44.3224C29.7524 45.1297 28.8479 45.8922 27.9093 46.6072L27.2656 47.0976L27.9922 47.4539C30.6723 48.768 33.4354 49.5001 36.0923 49.5001C42.1508 49.5001 46.6601 45.9778 48.3923 42.3977L48.394 42.3942C50.2509 38.4796 50.0937 31.8392 45.3962 26.2265C40.6532 20.3771 33.6656 17.1644 25.7084 17.1644H25.0307C24.7179 16.6274 24.286 16.1715 23.7674 15.8369C23.1597 15.4448 22.4575 15.2353 21.7393 15.234ZM24.5464 0.500061C18.7866 0.500061 13.5576 4.87014 11.4901 11.2014C8.66199 19.4931 10.4526 27.452 13.8346 33.7416C13.5621 34.2744 13.4243 34.9661 13.4811 35.6459C13.5558 37.8187 15.2821 39.5912 17.4004 39.5912H17.5224H17.5307L17.5389 39.5909C19.7372 39.5183 21.3895 37.5854 21.3222 35.3447L21.3221 35.3436C21.2882 34.2931 20.8664 33.293 20.1387 32.5536C19.4104 31.8137 18.4316 31.3924 17.406 31.3849H17.4024H17.2784H17.2726C17.2326 31.3849 17.1745 31.3849 17.1092 31.3882C14.7836 27.1897 13.8225 22.6321 14.1732 17.6999L14.1734 17.6959C14.4117 13.9256 15.6025 10.6779 17.6741 7.99653L17.6741 7.99658L17.6794 7.98951C18.4987 6.88946 19.716 6.05185 21.0287 5.48032C22.34 4.90942 23.7118 4.61936 24.8043 4.58862C27.7832 4.52994 29.9499 6.4455 31.4253 8.90589C32.9013 11.3674 33.6113 14.264 33.699 15.8903L33.7191 16.2619L34.0808 16.3494C34.8467 16.5346 36.1679 16.9769 37.0868 17.2993L37.8045 17.5512L37.7511 16.7924C37.005 6.19945 30.7573 0.500061 24.5464 0.500061Z" fill="#2B4CC0" stroke="#2B4CC0"/>
</svg>
