<svg width="21" height="19" viewBox="0 0 21 19" fill="none" xmlns="http://www.w3.org/2000/svg">
<path d="M16.1496 7.78509C17.0755 8.22796 18.1241 8.35907 19.1335 8.15817V18.3332C19.1335 18.5763 19.0351 18.8094 18.8601 18.9814C18.6851 19.1533 18.4477 19.2498 18.2001 19.2498H1.40013C1.15259 19.2498 0.915198 19.1533 0.740164 18.9814C0.56513 18.8094 0.466797 18.5763 0.466797 18.3332V3.6665C0.466797 3.42339 0.56513 3.19023 0.740164 3.01832C0.915198 2.84641 1.15259 2.74984 1.40013 2.74984H13.6268C13.5652 3.04592 13.5335 3.353 13.5335 3.6665C13.5319 4.75555 13.9268 5.80926 14.6469 6.63742L9.85707 10.7093L3.87066 5.718L2.66293 7.115L9.86827 13.1238L16.1496 7.78509ZM18.2001 6.4165C17.8324 6.4165 17.4683 6.34537 17.1286 6.20717C16.7889 6.06897 16.4802 5.86641 16.2202 5.61105C15.9602 5.35569 15.754 5.05253 15.6133 4.71888C15.4726 4.38524 15.4001 4.02764 15.4001 3.6665C15.4001 3.30537 15.4726 2.94777 15.6133 2.61412C15.754 2.28048 15.9602 1.97732 16.2202 1.72196C16.4802 1.4666 16.7889 1.26404 17.1286 1.12584C17.4683 0.987635 17.8324 0.916504 18.2001 0.916504C18.9427 0.916504 19.6549 1.20624 20.18 1.72196C20.7051 2.23769 21.0001 2.93716 21.0001 3.6665C21.0001 4.39585 20.7051 5.09532 20.18 5.61105C19.6549 6.12677 18.9427 6.4165 18.2001 6.4165Z" fill="#00E472"/>
</svg>
