<svg width="190" height="100" viewBox="0 0 190 100" fill="none" xmlns="http://www.w3.org/2000/svg">
<path d="M9.73571 31.8287V36.2716H18.4283V42.028H9.73571V46.9345H19.5873V53H2.16349V25.7632H19.5873V31.8287H9.73571ZM49.8318 25.7632L40.4438 53H30.7467L21.3201 25.7632H29.4332L35.6146 45.4278L41.7574 25.7632H49.8318ZM69.5764 34.7262C69.1385 34.0051 68.5333 33.4513 67.7606 33.065C67.0137 32.6786 66.1251 32.4855 65.0949 32.4855C63.1889 32.4855 61.6822 33.1036 60.5747 34.3399C59.493 35.5762 58.9521 37.2374 58.9521 39.3236C58.9521 41.6674 59.5316 43.4575 60.6906 44.6937C61.8754 45.9043 63.5882 46.5095 65.8289 46.5095C68.4818 46.5095 70.3748 45.3119 71.5081 42.9166H63.8972V37.4692H78.0372V44.8096C77.4448 46.252 76.5691 47.6042 75.4101 48.8662C74.2768 50.1282 72.8345 51.1713 71.0831 51.9955C69.3317 52.794 67.3356 53.1932 65.0949 53.1932C62.3647 53.1932 59.9437 52.6137 57.8317 51.4546C55.7455 50.2699 54.1229 48.6344 52.9639 46.5482C51.8306 44.4362 51.264 42.028 51.264 39.3236C51.264 36.645 51.8306 34.2626 52.9639 32.1764C54.1229 30.0644 55.7455 28.4289 57.8317 27.2699C59.9179 26.0851 62.3261 25.4928 65.0562 25.4928C68.4818 25.4928 71.3149 26.317 73.5557 27.9653C75.7964 29.6137 77.1872 31.8673 77.7281 34.7262H69.5764Z" fill="#EC8B4A"/>
<path d="M98.6613 48.5571H89.0028L87.5347 53H79.5762L89.5051 25.7632H98.2363L108.127 53H100.129L98.6613 48.5571ZM96.7682 42.7621L93.832 33.9536L90.9345 42.7621H96.7682ZM118.012 25.7632V41.5644C118.012 43.0325 118.347 44.1657 119.017 44.9642C119.712 45.7626 120.755 46.1618 122.146 46.1618C123.537 46.1618 124.58 45.7626 125.275 44.9642C125.997 44.14 126.357 43.0067 126.357 41.5644V25.7632H133.929V41.5644C133.929 44.0627 133.401 46.2005 132.345 47.9776C131.289 49.729 129.847 51.0554 128.018 51.9569C126.215 52.8326 124.207 53.2704 121.992 53.2704C119.777 53.2704 117.793 52.8326 116.042 51.9569C114.316 51.0554 112.951 49.729 111.947 47.9776C110.968 46.2262 110.479 44.0885 110.479 41.5644V25.7632H118.012ZM158.613 25.7632V31.7901H151.35V53H143.778V31.7901H136.592V25.7632H158.613ZM174.473 53.2704C171.923 53.2704 169.579 52.6781 167.441 51.4933C165.304 50.2828 163.604 48.6215 162.342 46.5095C161.105 44.3718 160.487 41.9636 160.487 39.285C160.487 36.6064 161.105 34.2111 162.342 32.0991C163.604 29.9614 165.304 28.3001 167.441 27.1154C169.579 25.9306 171.923 25.3382 174.473 25.3382C177.048 25.3382 179.392 25.9306 181.504 27.1154C183.642 28.3001 185.329 29.9614 186.565 32.0991C187.801 34.2111 188.42 36.6064 188.42 39.285C188.42 41.9636 187.801 44.3718 186.565 46.5095C185.329 48.6215 183.642 50.2828 181.504 51.4933C179.366 52.6781 177.023 53.2704 174.473 53.2704ZM174.473 46.2391C176.404 46.2391 177.924 45.6081 179.032 44.346C180.165 43.084 180.731 41.397 180.731 39.285C180.731 37.1215 180.165 35.4216 179.032 34.1854C177.924 32.9233 176.404 32.2923 174.473 32.2923C172.515 32.2923 170.983 32.9233 169.875 34.1854C168.768 35.4216 168.214 37.1215 168.214 39.285C168.214 41.4227 168.768 43.1226 169.875 44.3847C170.983 45.621 172.515 46.2391 174.473 46.2391Z" fill="white"/>
<rect y="58.4907" width="190" height="21.5093" rx="10.7547" fill="#4550AD"/>
<path d="M13.0656 71.7419H10.0885L9.61127 73.1509H7.57731L10.4635 65.1741H12.7133L15.5995 73.1509H13.5428L13.0656 71.7419ZM12.5656 70.242L11.577 67.3217L10.5998 70.242H12.5656ZM19.7504 65.1741V69.9465C19.7504 70.4238 19.8678 70.7912 20.1027 71.0487C20.3375 71.3063 20.6822 71.4351 21.1367 71.4351C21.5912 71.4351 21.9397 71.3063 22.1821 71.0487C22.4245 70.7912 22.5457 70.4238 22.5457 69.9465V65.1741H24.4887V69.9352C24.4887 70.6473 24.3372 71.2495 24.0342 71.7419C23.7312 72.2343 23.3221 72.6055 22.807 72.8554C22.2995 73.1054 21.7313 73.2304 21.1026 73.2304C20.4738 73.2304 19.9095 73.1092 19.4095 72.8668C18.9171 72.6168 18.527 72.2456 18.2391 71.7532C17.9513 71.2533 17.8074 70.6473 17.8074 69.9352V65.1741H19.7504ZM32.955 65.1741V66.7309H30.8415V73.1509H28.8984V66.7309H26.7849V65.1741H32.955ZM39.0661 73.2304C38.3162 73.2304 37.6268 73.0562 36.9981 72.7077C36.3769 72.3593 35.8807 71.8744 35.5096 71.2533C35.1459 70.6245 34.9641 69.92 34.9641 69.1398C34.9641 68.3595 35.1459 67.6588 35.5096 67.0377C35.8807 66.4165 36.3769 65.9317 36.9981 65.5832C37.6268 65.2347 38.3162 65.0605 39.0661 65.0605C39.8161 65.0605 40.5016 65.2347 41.1228 65.5832C41.7516 65.9317 42.244 66.4165 42.6 67.0377C42.9636 67.6588 43.1454 68.3595 43.1454 69.1398C43.1454 69.92 42.9636 70.6245 42.6 71.2533C42.2364 71.8744 41.744 72.3593 41.1228 72.7077C40.5016 73.0562 39.8161 73.2304 39.0661 73.2304ZM39.0661 71.4578C39.7025 71.4578 40.21 71.2457 40.5888 70.8215C40.9751 70.3973 41.1683 69.8367 41.1683 69.1398C41.1683 68.4353 40.9751 67.8747 40.5888 67.4581C40.21 67.0339 39.7025 66.8218 39.0661 66.8218C38.4222 66.8218 37.9071 67.0301 37.5208 67.4467C37.142 67.8634 36.9526 68.4277 36.9526 69.1398C36.9526 69.8443 37.142 70.4086 37.5208 70.8329C37.9071 71.2495 38.4222 71.4578 39.0661 71.4578ZM54.6234 65.1741V73.1509H52.6804V68.3671L50.8964 73.1509H49.3283L47.533 68.3557V73.1509H45.5899V65.1741H47.8852L50.1237 70.6965L52.3395 65.1741H54.6234ZM61.1567 73.2304C60.4068 73.2304 59.7174 73.0562 59.0887 72.7077C58.4675 72.3593 57.9713 71.8744 57.6001 71.2533C57.2365 70.6245 57.0547 69.92 57.0547 69.1398C57.0547 68.3595 57.2365 67.6588 57.6001 67.0377C57.9713 66.4165 58.4675 65.9317 59.0887 65.5832C59.7174 65.2347 60.4068 65.0605 61.1567 65.0605C61.9067 65.0605 62.5922 65.2347 63.2134 65.5832C63.8421 65.9317 64.3345 66.4165 64.6906 67.0377C65.0542 67.6588 65.236 68.3595 65.236 69.1398C65.236 69.92 65.0542 70.6245 64.6906 71.2533C64.327 71.8744 63.8346 72.3593 63.2134 72.7077C62.5922 73.0562 61.9067 73.2304 61.1567 73.2304ZM61.1567 71.4578C61.793 71.4578 62.3006 71.2457 62.6793 70.8215C63.0657 70.3973 63.2588 69.8367 63.2588 69.1398C63.2588 68.4353 63.0657 67.8747 62.6793 67.4581C62.3006 67.0339 61.793 66.8218 61.1567 66.8218C60.5128 66.8218 59.9977 67.0301 59.6114 67.4467C59.2326 67.8634 59.0432 68.4277 59.0432 69.1398C59.0432 69.8443 59.2326 70.4086 59.6114 70.8329C59.9977 71.2495 60.5128 71.4578 61.1567 71.4578ZM72.5097 69.0602C72.9718 69.1587 73.343 69.3898 73.6233 69.7534C73.9036 70.1094 74.0437 70.5185 74.0437 70.9806C74.0437 71.6472 73.8089 72.1775 73.3392 72.5714C72.8771 72.9577 72.2294 73.1509 71.3962 73.1509H67.6805V65.1741H71.2712C72.0817 65.1741 72.7143 65.3597 73.1688 65.7309C73.6309 66.1021 73.8619 66.6059 73.8619 67.2422C73.8619 67.7119 73.7369 68.102 73.4869 68.4126C73.2445 68.7231 72.9188 68.939 72.5097 69.0602ZM69.6236 68.4012H70.8962C71.2144 68.4012 71.4568 68.333 71.6234 68.1967C71.7977 68.0527 71.8848 67.8444 71.8848 67.5717C71.8848 67.299 71.7977 67.0907 71.6234 66.9468C71.4568 66.8028 71.2144 66.7309 70.8962 66.7309H69.6236V68.4012ZM71.0553 71.5828C71.381 71.5828 71.631 71.5108 71.8052 71.3669C71.987 71.2154 72.0779 70.9995 72.0779 70.7192C72.0779 70.4389 71.9833 70.2193 71.7939 70.0602C71.6121 69.9011 71.3583 69.8216 71.0326 69.8216H69.6236V71.5828H71.0553ZM78.4773 65.1741V73.1509H76.5342V65.1741H78.4773ZM83.192 71.651H85.7373V73.1509H81.2489V65.1741H83.192V71.651ZM89.9706 65.1741V73.1509H88.0276V65.1741H89.9706ZM99.3896 65.1741V69.9352C99.3896 70.7988 99.1661 71.5033 98.7192 72.0487C98.2798 72.5941 97.7003 72.9501 96.9807 73.1168V73.1282L96.458 73.3895C96.1777 73.5334 95.9807 73.6584 95.8671 73.7645C95.7535 73.8781 95.6966 73.9993 95.6966 74.1281C95.6966 74.2417 95.7383 74.3326 95.8216 74.4008C95.9125 74.469 96.0375 74.5031 96.1966 74.5031C96.4542 74.5031 96.742 74.4462 97.0602 74.3326V75.4235C96.7042 75.5371 96.333 75.5939 95.9466 75.5939C95.4542 75.5939 95.049 75.4803 94.7308 75.253C94.4202 75.0333 94.2649 74.7152 94.2649 74.2985C94.2649 74.0713 94.3142 73.8592 94.4126 73.6622C94.5187 73.4728 94.6929 73.2834 94.9353 73.0941C94.2536 72.9123 93.7119 72.5524 93.3104 72.0146C92.909 71.4767 92.7082 70.7836 92.7082 69.9352V65.1741H94.6513V69.9465C94.6513 70.4238 94.7687 70.7912 95.0035 71.0487C95.2383 71.3063 95.583 71.4351 96.0375 71.4351C96.492 71.4351 96.8405 71.3063 97.0829 71.0487C97.3253 70.7912 97.4465 70.4238 97.4465 69.9465V65.1741H99.3896ZM110.855 71.7419H107.878L107.4 73.1509H105.366L108.253 65.1741H110.502L113.389 73.1509H111.332L110.855 71.7419ZM110.355 70.242L109.366 67.3217L108.389 70.242H110.355ZM117.539 65.1741V69.9465C117.539 70.4238 117.657 70.7912 117.892 71.0487C118.127 71.3063 118.471 71.4351 118.926 71.4351C119.38 71.4351 119.729 71.3063 119.971 71.0487C120.214 70.7912 120.335 70.4238 120.335 69.9465V65.1741H122.278V69.9352C122.278 70.6473 122.126 71.2495 121.823 71.7419C121.52 72.2343 121.111 72.6055 120.596 72.8554C120.089 73.1054 119.52 73.2304 118.892 73.2304C118.263 73.2304 117.699 73.1092 117.199 72.8668C116.706 72.6168 116.316 72.2456 116.028 71.7532C115.74 71.2533 115.596 70.6473 115.596 69.9352V65.1741H117.539ZM129.63 73.1509L126.949 69.6284V73.1509H125.006V65.1741H126.949V68.6739L129.608 65.1741H131.892L128.801 69.083L132.005 73.1509H129.63ZM133.963 69.1511C133.963 68.3633 134.133 67.6626 134.474 67.049C134.815 66.4278 135.288 65.9468 135.894 65.6059C136.508 65.2575 137.201 65.0832 137.974 65.0832C138.921 65.0832 139.731 65.3332 140.405 65.8332C141.08 66.3332 141.53 67.0149 141.758 67.8785H139.621C139.462 67.5452 139.235 67.2914 138.94 67.1172C138.652 66.943 138.322 66.8558 137.951 66.8558C137.353 66.8558 136.868 67.0642 136.497 67.4808C136.125 67.8974 135.94 68.4542 135.94 69.1511C135.94 69.8481 136.125 70.4049 136.497 70.8215C136.868 71.2381 137.353 71.4464 137.951 71.4464C138.322 71.4464 138.652 71.3593 138.94 71.1851C139.235 71.0109 139.462 70.7571 139.621 70.4238H141.758C141.53 71.2874 141.08 71.9691 140.405 72.4691C139.731 72.9615 138.921 73.2077 137.974 73.2077C137.201 73.2077 136.508 73.0373 135.894 72.6964C135.288 72.3479 134.815 71.8669 134.474 71.2533C134.133 70.6397 133.963 69.939 133.963 69.1511ZM146.254 65.1741V73.1509H144.311V65.1741H146.254ZM152.798 73.2304C152.048 73.2304 151.359 73.0562 150.73 72.7077C150.109 72.3593 149.613 71.8744 149.242 71.2533C148.878 70.6245 148.696 69.92 148.696 69.1398C148.696 68.3595 148.878 67.6588 149.242 67.0377C149.613 66.4165 150.109 65.9317 150.73 65.5832C151.359 65.2347 152.048 65.0605 152.798 65.0605C153.548 65.0605 154.234 65.2347 154.855 65.5832C155.484 65.9317 155.976 66.4165 156.332 67.0377C156.696 67.6588 156.878 68.3595 156.878 69.1398C156.878 69.92 156.696 70.6245 156.332 71.2533C155.969 71.8744 155.476 72.3593 154.855 72.7077C154.234 73.0562 153.548 73.2304 152.798 73.2304ZM152.798 71.4578C153.435 71.4578 153.942 71.2457 154.321 70.8215C154.707 70.3973 154.9 69.8367 154.9 69.1398C154.9 68.4353 154.707 67.8747 154.321 67.4581C153.942 67.0339 153.435 66.8218 152.798 66.8218C152.154 66.8218 151.639 67.0301 151.253 67.4467C150.874 67.8634 150.685 68.4277 150.685 69.1398C150.685 69.8443 150.874 70.4086 151.253 70.8329C151.639 71.2495 152.154 71.4578 152.798 71.4578ZM166.458 73.1509H164.515L161.265 68.2308V73.1509H159.322V65.1741H161.265L164.515 70.117V65.1741H166.458V73.1509ZM174.196 71.7419H171.218L170.741 73.1509H168.707L171.593 65.1741H173.843L176.729 73.1509H174.673L174.196 71.7419ZM173.696 70.242L172.707 67.3217L171.73 70.242H173.696ZM180.914 65.1741V73.1509H178.971V65.1741H180.914Z" fill="white"/>
</svg>
