<svg width="168" height="53" viewBox="0 0 168 53" fill="none" xmlns="http://www.w3.org/2000/svg">
<path d="M9.068 10.368V14.278H16.718V19.344H9.068V23.662H17.738V29H2.404V5.03H17.738V10.368H9.068ZM44.355 5.03L36.093 29H27.559L19.263 5.03H26.403L31.843 22.336L37.249 5.03H44.355ZM61.7313 12.918C61.346 12.2833 60.8133 11.796 60.1333 11.456C59.476 11.116 58.694 10.946 57.7873 10.946C56.11 10.946 54.784 11.49 53.8093 12.578C52.8573 13.666 52.3813 15.128 52.3813 16.964C52.3813 19.0267 52.8913 20.602 53.9113 21.69C54.954 22.7553 56.4613 23.288 58.4333 23.288C60.768 23.288 62.434 22.234 63.4313 20.126H56.7333V15.332H69.1773V21.792C68.656 23.0613 67.8853 24.2513 66.8653 25.362C65.868 26.4727 64.5987 27.3907 63.0573 28.116C61.516 28.8187 59.7593 29.17 57.7873 29.17C55.3847 29.17 53.254 28.66 51.3953 27.64C49.5593 26.5973 48.1313 25.158 47.1113 23.322C46.114 21.4633 45.6153 19.344 45.6153 16.964C45.6153 14.6067 46.114 12.51 47.1113 10.674C48.1313 8.81533 49.5593 7.376 51.3953 6.356C53.2313 5.31333 55.3507 4.792 57.7533 4.792C60.768 4.792 63.2613 5.51733 65.2333 6.968C67.2053 8.41867 68.4293 10.402 68.9053 12.918H61.7313Z" fill="#EC8B4A"/>
<path d="M87.3278 25.09H78.8278L77.5358 29H70.5318L79.2698 5.03H86.9538L95.6578 29H88.6198L87.3278 25.09ZM85.6618 19.99L83.0778 12.238L80.5278 19.99H85.6618ZM104.358 5.03V18.936C104.358 20.228 104.652 21.2253 105.242 21.928C105.854 22.6307 106.772 22.982 107.996 22.982C109.22 22.982 110.138 22.6307 110.75 21.928C111.384 21.2027 111.702 20.2053 111.702 18.936V5.03H118.366V18.936C118.366 21.1347 117.901 23.016 116.972 24.58C116.042 26.1213 114.773 27.2887 113.164 28.082C111.577 28.8527 109.809 29.238 107.86 29.238C105.91 29.238 104.165 28.8527 102.624 28.082C101.105 27.2887 99.9038 26.1213 99.0198 24.58C98.1584 23.0387 97.7278 21.1573 97.7278 18.936V5.03H104.358ZM140.089 5.03V10.334H133.697V29H127.033V10.334H120.709V5.03H140.089ZM154.046 29.238C151.802 29.238 149.74 28.7167 147.858 27.674C145.977 26.6087 144.481 25.1467 143.37 23.288C142.282 21.4067 141.738 19.2873 141.738 16.93C141.738 14.5727 142.282 12.4647 143.37 10.606C144.481 8.72467 145.977 7.26267 147.858 6.22C149.74 5.17733 151.802 4.656 154.046 4.656C156.313 4.656 158.376 5.17733 160.234 6.22C162.116 7.26267 163.6 8.72467 164.688 10.606C165.776 12.4647 166.32 14.5727 166.32 16.93C166.32 19.2873 165.776 21.4067 164.688 23.288C163.6 25.1467 162.116 26.6087 160.234 27.674C158.353 28.7167 156.29 29.238 154.046 29.238ZM154.046 23.05C155.746 23.05 157.084 22.4947 158.058 21.384C159.056 20.2733 159.554 18.7887 159.554 16.93C159.554 15.026 159.056 13.53 158.058 12.442C157.084 11.3313 155.746 10.776 154.046 10.776C152.324 10.776 150.975 11.3313 150 12.442C149.026 13.53 148.538 15.026 148.538 16.93C148.538 18.8113 149.026 20.3073 150 21.418C150.975 22.506 152.324 23.05 154.046 23.05Z" fill="white"/>
<rect x="0.5" y="34" width="167" height="19" rx="3" fill="#4550AD"/>
<path d="M11.99 46.76H9.37L8.95 48H7.16L9.7 40.98H11.68L14.22 48H12.41L11.99 46.76ZM11.55 45.44L10.68 42.87L9.82 45.44H11.55ZM17.873 40.98V45.18C17.873 45.6 17.9764 45.9233 18.183 46.15C18.3897 46.3767 18.693 46.49 19.093 46.49C19.493 46.49 19.7997 46.3767 20.013 46.15C20.2264 45.9233 20.333 45.6 20.333 45.18V40.98H22.043V45.17C22.043 45.7967 21.9097 46.3267 21.643 46.76C21.3764 47.1933 21.0164 47.52 20.563 47.74C20.1164 47.96 19.6164 48.07 19.063 48.07C18.5097 48.07 18.013 47.9633 17.573 47.75C17.1397 47.53 16.7964 47.2033 16.543 46.77C16.2897 46.33 16.163 45.7967 16.163 45.17V40.98H17.873ZM29.4938 40.98V42.35H27.6338V48H25.9238V42.35H24.0638V40.98H29.4938ZM34.872 48.07C34.212 48.07 33.6054 47.9167 33.052 47.61C32.5054 47.3033 32.0687 46.8767 31.742 46.33C31.422 45.7767 31.262 45.1567 31.262 44.47C31.262 43.7833 31.422 43.1667 31.742 42.62C32.0687 42.0733 32.5054 41.6467 33.052 41.34C33.6054 41.0333 34.212 40.88 34.872 40.88C35.532 40.88 36.1354 41.0333 36.682 41.34C37.2354 41.6467 37.6687 42.0733 37.982 42.62C38.302 43.1667 38.462 43.7833 38.462 44.47C38.462 45.1567 38.302 45.7767 37.982 46.33C37.662 46.8767 37.2287 47.3033 36.682 47.61C36.1354 47.9167 35.532 48.07 34.872 48.07ZM34.872 46.51C35.432 46.51 35.8787 46.3233 36.212 45.95C36.552 45.5767 36.722 45.0833 36.722 44.47C36.722 43.85 36.552 43.3567 36.212 42.99C35.8787 42.6167 35.432 42.43 34.872 42.43C34.3054 42.43 33.852 42.6133 33.512 42.98C33.1787 43.3467 33.012 43.8433 33.012 44.47C33.012 45.09 33.1787 45.5867 33.512 45.96C33.852 46.3267 34.3054 46.51 34.872 46.51ZM48.5634 40.98V48H46.8534V43.79L45.2834 48H43.9034L42.3234 43.78V48H40.6134V40.98H42.6334L44.6034 45.84L46.5534 40.98H48.5634ZM54.313 48.07C53.653 48.07 53.0464 47.9167 52.493 47.61C51.9464 47.3033 51.5097 46.8767 51.183 46.33C50.863 45.7767 50.703 45.1567 50.703 44.47C50.703 43.7833 50.863 43.1667 51.183 42.62C51.5097 42.0733 51.9464 41.6467 52.493 41.34C53.0464 41.0333 53.653 40.88 54.313 40.88C54.973 40.88 55.5764 41.0333 56.123 41.34C56.6764 41.6467 57.1097 42.0733 57.423 42.62C57.743 43.1667 57.903 43.7833 57.903 44.47C57.903 45.1567 57.743 45.7767 57.423 46.33C57.103 46.8767 56.6697 47.3033 56.123 47.61C55.5764 47.9167 54.973 48.07 54.313 48.07ZM54.313 46.51C54.873 46.51 55.3197 46.3233 55.653 45.95C55.993 45.5767 56.163 45.0833 56.163 44.47C56.163 43.85 55.993 43.3567 55.653 42.99C55.3197 42.6167 54.873 42.43 54.313 42.43C53.7464 42.43 53.293 42.6133 52.953 42.98C52.6197 43.3467 52.453 43.8433 52.453 44.47C52.453 45.09 52.6197 45.5867 52.953 45.96C53.293 46.3267 53.7464 46.51 54.313 46.51ZM64.3044 44.4C64.711 44.4867 65.0377 44.69 65.2844 45.01C65.531 45.3233 65.6544 45.6833 65.6544 46.09C65.6544 46.6767 65.4477 47.1433 65.0344 47.49C64.6277 47.83 64.0577 48 63.3244 48H60.0544V40.98H63.2144C63.9277 40.98 64.4844 41.1433 64.8844 41.47C65.291 41.7967 65.4944 42.24 65.4944 42.8C65.4944 43.2133 65.3844 43.5567 65.1644 43.83C64.951 44.1033 64.6644 44.2933 64.3044 44.4ZM61.7644 43.82H62.8844C63.1644 43.82 63.3777 43.76 63.5244 43.64C63.6777 43.5133 63.7544 43.33 63.7544 43.09C63.7544 42.85 63.6777 42.6667 63.5244 42.54C63.3777 42.4133 63.1644 42.35 62.8844 42.35H61.7644V43.82ZM63.0244 46.62C63.311 46.62 63.531 46.5567 63.6844 46.43C63.8444 46.2967 63.9244 46.1067 63.9244 45.86C63.9244 45.6133 63.841 45.42 63.6744 45.28C63.5144 45.14 63.291 45.07 63.0044 45.07H61.7644V46.62H63.0244ZM69.5562 40.98V48H67.8462V40.98H69.5562ZM73.7054 46.68H75.9454V48H71.9954V40.98H73.7054V46.68ZM79.671 40.98V48H77.961V40.98H79.671ZM87.9602 40.98V45.17C87.9602 45.93 87.7636 46.55 87.3702 47.03C86.9836 47.51 86.4736 47.8233 85.8402 47.97V47.98L85.3802 48.21C85.1336 48.3367 84.9602 48.4467 84.8602 48.54C84.7602 48.64 84.7102 48.7467 84.7102 48.86C84.7102 48.96 84.7469 49.04 84.8202 49.1C84.9002 49.16 85.0102 49.19 85.1502 49.19C85.3769 49.19 85.6302 49.14 85.9102 49.04V50C85.5969 50.1 85.2702 50.15 84.9302 50.15C84.4969 50.15 84.1402 50.05 83.8602 49.85C83.5869 49.6567 83.4502 49.3767 83.4502 49.01C83.4502 48.81 83.4936 48.6233 83.5802 48.45C83.6736 48.2833 83.8269 48.1167 84.0402 47.95C83.4402 47.79 82.9636 47.4733 82.6102 47C82.2569 46.5267 82.0802 45.9167 82.0802 45.17V40.98H83.7902V45.18C83.7902 45.6 83.8936 45.9233 84.1002 46.15C84.3069 46.3767 84.6102 46.49 85.0102 46.49C85.4102 46.49 85.7169 46.3767 85.9302 46.15C86.1436 45.9233 86.2502 45.6 86.2502 45.18V40.98H87.9602ZM98.0502 46.76H95.4302L95.0102 48H93.2202L95.7602 40.98H97.7402L100.28 48H98.4702L98.0502 46.76ZM97.6102 45.44L96.7402 42.87L95.8802 45.44H97.6102ZM103.933 40.98V45.18C103.933 45.6 104.037 45.9233 104.243 46.15C104.45 46.3767 104.753 46.49 105.153 46.49C105.553 46.49 105.86 46.3767 106.073 46.15C106.287 45.9233 106.393 45.6 106.393 45.18V40.98H108.103V45.17C108.103 45.7967 107.97 46.3267 107.703 46.76C107.437 47.1933 107.077 47.52 106.623 47.74C106.177 47.96 105.677 48.07 105.123 48.07C104.57 48.07 104.073 47.9633 103.633 47.75C103.2 47.53 102.857 47.2033 102.603 46.77C102.35 46.33 102.223 45.7967 102.223 45.17V40.98H103.933ZM114.574 48L112.214 44.9V48H110.504V40.98H112.214V44.06L114.554 40.98H116.564L113.844 44.42L116.664 48H114.574ZM118.387 44.48C118.387 43.7867 118.537 43.17 118.837 42.63C119.137 42.0833 119.553 41.66 120.087 41.36C120.627 41.0533 121.237 40.9 121.917 40.9C122.75 40.9 123.463 41.12 124.057 41.56C124.65 42 125.047 42.6 125.247 43.36H123.367C123.227 43.0667 123.027 42.8433 122.767 42.69C122.513 42.5367 122.223 42.46 121.897 42.46C121.37 42.46 120.943 42.6433 120.617 43.01C120.29 43.3767 120.127 43.8667 120.127 44.48C120.127 45.0933 120.29 45.5833 120.617 45.95C120.943 46.3167 121.37 46.5 121.897 46.5C122.223 46.5 122.513 46.4233 122.767 46.27C123.027 46.1167 123.227 45.8933 123.367 45.6H125.247C125.047 46.36 124.65 46.96 124.057 47.4C123.463 47.8333 122.75 48.05 121.917 48.05C121.237 48.05 120.627 47.9 120.087 47.6C119.553 47.2933 119.137 46.87 118.837 46.33C118.537 45.79 118.387 45.1733 118.387 44.48ZM129.204 40.98V48H127.494V40.98H129.204ZM134.963 48.07C134.303 48.07 133.696 47.9167 133.143 47.61C132.596 47.3033 132.16 46.8767 131.833 46.33C131.513 45.7767 131.353 45.1567 131.353 44.47C131.353 43.7833 131.513 43.1667 131.833 42.62C132.16 42.0733 132.596 41.6467 133.143 41.34C133.696 41.0333 134.303 40.88 134.963 40.88C135.623 40.88 136.226 41.0333 136.773 41.34C137.326 41.6467 137.76 42.0733 138.073 42.62C138.393 43.1667 138.553 43.7833 138.553 44.47C138.553 45.1567 138.393 45.7767 138.073 46.33C137.753 46.8767 137.32 47.3033 136.773 47.61C136.226 47.9167 135.623 48.07 134.963 48.07ZM134.963 46.51C135.523 46.51 135.97 46.3233 136.303 45.95C136.643 45.5767 136.813 45.0833 136.813 44.47C136.813 43.85 136.643 43.3567 136.303 42.99C135.97 42.6167 135.523 42.43 134.963 42.43C134.396 42.43 133.943 42.6133 133.603 42.98C133.27 43.3467 133.103 43.8433 133.103 44.47C133.103 45.09 133.27 45.5867 133.603 45.96C133.943 46.3267 134.396 46.51 134.963 46.51ZM146.984 48H145.274L142.414 43.67V48H140.704V40.98H142.414L145.274 45.33V40.98H146.984V48ZM153.794 46.76H151.174L150.754 48H148.964L151.504 40.98H153.484L156.024 48H154.214L153.794 46.76ZM153.354 45.44L152.484 42.87L151.624 45.44H153.354ZM159.707 40.98V48H157.997V40.98H159.707Z" fill="white"/>
</svg>
