<svg width="177" height="100" viewBox="0 0 177 100" fill="none" xmlns="http://www.w3.org/2000/svg">
<path d="M10.7266 62.7983V66.0714H167.166V62.7983H10.7266Z" fill="#CACACA"/>
<path d="M88.641 48.3032L10.877 59.837L166.557 59.6811L88.641 48.3032Z" fill="#CACACA"/>
<path d="M84.0859 59.767V48.9797L88.6425 48.3032V59.767H84.0859Z" fill="#E5E5E5"/>
<path d="M88.6425 66.0714V63.1101V62.7983H84.0859V66.0714H88.6425Z" fill="#E5E5E5"/>
<path d="M88.7943 3.57129L10.7266 48.6149L88.7943 20.56L166.255 53.7583L88.7943 3.57129Z" fill="#CACACA"/>
<path d="M36.2439 47.5244L21.9668 53.1353V54.3823L36.2439 52.0444V47.5244Z" fill="white"/>
<path d="M52.9517 41.29L38.9785 46.7452V51.4209L52.9517 49.0831V41.29Z" fill="white"/>
<path d="M56.5977 48.3034V40.0428L70.5708 34.2759V45.9655L56.5977 48.3034Z" fill="white"/>
<path d="M73.6074 45.3421V33.3411L87.4288 27.73V43.1602L73.6074 45.3421Z" fill="white"/>
<path d="M90.4668 43.1603V28.1978L104.592 33.6528V45.3422L90.4668 43.1603Z" fill="white"/>
<path d="M107.629 45.9656V34.7437L121.602 40.0429V48.1476L107.629 45.9656Z" fill="white"/>
<path d="M125.096 48.6156V41.29L139.069 46.4334V50.7975L125.096 48.6156Z" fill="white"/>
<path d="M141.955 51.4208V47.5244L156.08 52.6678V53.603L141.955 51.4208Z" fill="white"/>
<path d="M88.7942 3.57129V20.56L79.3775 23.9422L81.352 30.2234L87.4272 27.7297V43.1599C86.5159 43.3158 85.6046 43.4247 83.7821 43.7365C83.3264 39.0608 83.0226 35.3668 81.352 30.2234L79.3775 23.9422C78.0105 19.734 76.1879 16.3518 73.7578 12.1436C77.4029 9.96156 84.9971 5.75332 88.7942 3.57129Z" fill="#E5E5E5"/>
<path d="M1.2832 91.0713V78.0844H9.61309V80.0565H3.63868V83.5822H9.04169V85.5544H3.63868V91.0713H1.2832ZM11.8051 91.0713H9.29088L13.8685 78.0844H16.7764L21.3603 91.0713H18.8462L15.3732 80.7477H15.2716L11.8051 91.0713ZM11.8876 85.9792H18.7445V87.869H11.8876V85.9792ZM29.93 81.6545C29.8706 81.1006 29.6208 80.6695 29.1807 80.3608C28.7448 80.0522 28.1775 79.8979 27.4792 79.8979C26.9882 79.8979 26.567 79.9719 26.2157 80.1199C25.8643 80.2677 25.5956 80.4686 25.4093 80.7222C25.2232 80.976 25.1279 81.2656 25.1236 81.5911C25.1236 81.8617 25.1851 82.0963 25.3078 82.2949C25.4349 82.4936 25.6062 82.6627 25.8221 82.8022C26.0379 82.9376 26.2772 83.0517 26.5396 83.1447C26.8019 83.2377 27.0665 83.316 27.3331 83.3794L28.5522 83.6836C29.0432 83.7977 29.515 83.9522 29.9681 84.1467C30.425 84.3411 30.8336 84.5863 31.1933 84.8822C31.5573 85.1781 31.8452 85.5354 32.0568 85.9538C32.2685 86.3724 32.3742 86.8627 32.3742 87.4251C32.3742 88.186 32.1795 88.8561 31.7901 89.4353C31.4007 90.0103 30.8379 90.4604 30.1013 90.786C29.3691 91.1072 28.4823 91.2679 27.4411 91.2679C26.4295 91.2679 25.5513 91.1115 24.8063 90.7986C24.0656 90.4858 23.4857 90.0292 23.0667 89.429C22.6519 88.8286 22.4275 88.0972 22.3937 87.2349H24.711C24.7449 87.6872 24.8846 88.0635 25.1301 88.3636C25.3755 88.6638 25.695 88.8877 26.0887 89.0358C26.4867 89.1836 26.931 89.2578 27.4221 89.2578C27.9342 89.2578 28.3829 89.1817 28.768 89.0294C29.1574 88.8729 29.4623 88.6574 29.6824 88.3826C29.9024 88.1036 30.0145 87.7781 30.0188 87.406C30.0145 87.0677 29.9151 86.7888 29.7204 86.569C29.5257 86.3449 29.2527 86.159 28.9014 86.011C28.5542 85.8588 28.148 85.7235 27.6824 85.6051L26.203 85.2247C25.1322 84.9499 24.2856 84.5335 23.6635 83.9754C23.0454 83.4131 22.7364 82.667 22.7364 81.7369C22.7364 80.9717 22.9438 80.3017 23.3586 79.7267C23.7777 79.1517 24.347 78.7058 25.0666 78.3886C25.786 78.0674 26.6009 77.9067 27.511 77.9067C28.4337 77.9067 29.2422 78.0674 29.9362 78.3886C30.6346 78.7058 31.1827 79.1476 31.5807 79.714C31.9785 80.2763 32.1838 80.9231 32.1965 81.6545H29.93ZM35.9344 91.0713H33.4203L37.998 78.0844H40.9058L45.4897 91.0713H42.9756L39.5026 80.7477H39.4011L35.9344 91.0713ZM36.017 85.9792H42.8739V87.869H36.017V85.9792ZM51.6085 91.0713H47.2023V78.0844H51.6974C52.9884 78.0844 54.0975 78.3444 55.0243 78.8644C55.9556 79.3801 56.6709 80.122 57.1703 81.0901C57.6698 82.0583 57.9194 83.2165 57.9194 84.5651C57.9194 85.9179 57.6677 87.0806 57.164 88.0529C56.6645 89.0252 55.9429 89.7713 54.9989 90.2913C54.0594 90.8113 52.9291 91.0713 51.6085 91.0713ZM49.5578 89.0358H51.4943C52.4 89.0358 53.1556 88.871 53.7608 88.5411C54.3662 88.2072 54.8212 87.7104 55.1258 87.051C55.4307 86.3872 55.583 85.5586 55.583 84.5651C55.583 83.5717 55.4307 82.7472 55.1258 82.092C54.8212 81.4326 54.3705 80.9401 53.7735 80.6145C53.181 80.2847 52.4446 80.1199 51.5642 80.1199H49.5578V89.0358ZM68.354 78.0844H70.7095V86.569C70.7095 87.499 70.4894 88.317 70.0493 89.0231C69.6132 89.729 68.9996 90.2808 68.2081 90.6781C67.4164 91.0713 66.4917 91.2679 65.4335 91.2679C64.3711 91.2679 63.4441 91.0713 62.6526 90.6781C61.8611 90.2808 61.2473 89.729 60.8115 89.0231C60.3754 88.317 60.1575 87.499 60.1575 86.569V78.0844H62.513V86.3724C62.513 86.9135 62.6315 87.3954 62.8686 87.8183C63.1098 88.241 63.4484 88.5729 63.8843 88.8138C64.3204 89.0506 64.8367 89.169 65.4335 89.169C66.0303 89.169 66.5466 89.0506 66.9827 88.8138C67.4229 88.5729 67.7615 88.241 67.9986 87.8183C68.2355 87.3954 68.354 86.9135 68.354 86.3724V78.0844ZM65.7256 94.7494C65.1796 94.7494 64.7225 94.6056 64.3542 94.3181C63.9901 94.0306 63.7765 93.6163 63.713 93.0752C63.6664 92.7454 63.6939 92.4115 63.7954 92.0733C63.897 91.7351 64.079 91.4201 64.3415 91.1285C64.6039 90.8367 64.9509 90.5915 65.3827 90.3927L66.9509 91.0586C66.5574 91.2785 66.2271 91.511 65.9606 91.7561C65.6938 92.0013 65.5604 92.2888 65.5604 92.6186C65.5604 92.8215 65.6092 92.9779 65.7065 93.0879C65.8081 93.1977 65.969 93.2527 66.189 93.2527C66.35 93.2527 66.4896 93.2317 66.6081 93.1894C66.7308 93.147 66.8345 93.109 66.9192 93.0752L67.1477 94.3688C66.9954 94.4576 66.8007 94.5422 66.5636 94.6224C66.3265 94.707 66.0473 94.7494 65.7256 94.7494ZM84.771 81.6545C84.7117 81.1006 84.4621 80.6695 84.0219 80.3608C83.5858 80.0522 83.0187 79.8979 82.3202 79.8979C81.8292 79.8979 81.4082 79.9719 81.0569 80.1199C80.7056 80.2677 80.4367 80.4686 80.2505 80.7222C80.0642 80.976 79.9689 81.2656 79.9648 81.5911C79.9648 81.8617 80.0262 82.0963 80.149 82.2949C80.2759 82.4936 80.4474 82.6627 80.6632 82.8022C80.879 82.9376 81.1182 83.0517 81.3807 83.1447C81.6431 83.2377 81.9075 83.316 82.1743 83.3794L83.3933 83.6836C83.8842 83.7977 84.3562 83.9522 84.8091 84.1467C85.2663 84.3411 85.6746 84.5863 86.0345 84.8822C86.3985 85.1781 86.6862 85.5354 86.8979 85.9538C87.1096 86.3724 87.2154 86.8627 87.2154 87.4251C87.2154 88.186 87.0207 88.8561 86.6313 89.4353C86.2419 90.0103 85.6789 90.4604 84.9425 90.786C84.2102 91.1072 83.3234 91.2679 82.2821 91.2679C81.2705 91.2679 80.3923 91.1115 79.6473 90.7986C78.9066 90.4858 78.3268 90.0292 77.9077 89.429C77.4929 88.8286 77.2685 88.0972 77.2347 87.2349H79.5522C79.586 87.6872 79.7256 88.0635 79.9711 88.3636C80.2166 88.6638 80.5362 88.8877 80.9298 89.0358C81.3277 89.1836 81.7722 89.2578 82.2632 89.2578C82.7752 89.2578 83.224 89.1817 83.6091 89.0294C83.9985 88.8729 84.3033 88.6574 84.5234 88.3826C84.7435 88.1036 84.8556 87.7781 84.8599 87.406C84.8556 87.0677 84.7562 86.7888 84.5615 86.569C84.3668 86.3449 84.0938 86.159 83.7424 86.011C83.3954 85.8588 82.989 85.7235 82.5235 85.6051L81.0442 85.2247C79.9732 84.9499 79.1267 84.5335 78.5045 83.9754C77.8866 83.4131 77.5775 82.667 77.5775 81.7369C77.5775 80.9717 77.785 80.3017 78.1998 79.7267C78.6187 79.1517 79.1882 78.7058 79.9076 78.3886C80.6272 78.0674 81.442 77.9067 82.352 77.9067C83.2747 77.9067 84.0832 78.0674 84.7773 78.3886C85.4758 78.7058 86.0238 79.1476 86.4218 79.714C86.8196 80.2763 87.0248 80.9231 87.0375 81.6545H84.771ZM80.9298 74.0894L82.2186 75.7126L83.5075 74.0894H85.5201V74.1781L83.1203 76.9176H81.3234L78.9171 74.1781V74.0894H80.9298ZM91.6708 78.0844V91.0713H89.3153V78.0844H91.6708ZM94.2216 91.0713V78.0844H96.5769V89.0992H102.304V91.0713H94.2216ZM102.118 80.0565V78.0844H112.492V80.0565H108.473V91.0713H106.137V80.0565H102.118ZM116.848 78.0844V91.0713H114.492V78.0844H116.848ZM130.084 78.0844V91.0713H127.989L121.862 82.2252H121.754V91.0713H119.398V78.0844H121.506L127.627 86.9369H127.741V78.0844H130.084ZM135.006 78.0844V91.0713H132.65V78.0844H135.006ZM137.557 78.0844H140.439L144.299 87.4949H144.452L148.312 78.0844H151.194V91.0713H148.934V82.1492H148.813L145.22 91.0333H143.531L139.937 82.1301H139.817V91.0713H137.557V78.0844ZM155.429 91.0713H152.915L157.492 78.0844H160.4L164.984 91.0713H162.47L158.997 80.7477H158.896L155.429 91.0713ZM155.511 85.9792H162.369V87.869H155.511V85.9792ZM173.554 81.6545C173.494 81.1006 173.245 80.6695 172.805 80.3608C172.369 80.0522 171.802 79.8979 171.103 79.8979C170.612 79.8979 170.191 79.9719 169.84 80.1199C169.488 80.2677 169.22 80.4686 169.033 80.7222C168.847 80.976 168.752 81.2656 168.748 81.5911C168.748 81.8617 168.809 82.0963 168.932 82.2949C169.059 82.4936 169.23 82.6627 169.446 82.8022C169.662 82.9376 169.901 83.0517 170.163 83.1447C170.426 83.2377 170.69 83.316 170.957 83.3794L172.176 83.6836C172.667 83.7977 173.139 83.9522 173.592 84.1467C174.049 84.3411 174.457 84.5863 174.817 84.8822C175.181 85.1781 175.469 85.5354 175.681 85.9538C175.892 86.3724 175.998 86.8627 175.998 87.4251C175.998 88.186 175.804 88.8561 175.414 89.4353C175.025 90.0103 174.462 90.4604 173.725 90.786C172.993 91.1072 172.106 91.2679 171.065 91.2679C170.053 91.2679 169.175 91.1115 168.43 90.7986C167.689 90.4858 167.11 90.0292 166.691 89.429C166.276 88.8286 166.051 88.0972 166.018 87.2349H168.335C168.369 87.6872 168.508 88.0635 168.754 88.3636C168.999 88.6638 169.319 88.8877 169.713 89.0358C170.111 89.1836 170.555 89.2578 171.046 89.2578C171.558 89.2578 172.007 89.1817 172.392 89.0294C172.781 88.8729 173.086 88.6574 173.306 88.3826C173.526 88.1036 173.638 87.7781 173.643 87.406C173.638 87.0677 173.539 86.7888 173.344 86.569C173.15 86.3449 172.877 86.159 172.525 86.011C172.178 85.8588 171.772 85.7235 171.306 85.6051L169.827 85.2247C168.756 84.9499 167.91 84.5335 167.287 83.9754C166.669 83.4131 166.361 82.667 166.361 81.7369C166.361 80.9717 166.568 80.3017 166.983 79.7267C167.402 79.1517 167.971 78.7058 168.69 78.3886C169.41 78.0674 170.225 77.9067 171.135 77.9067C172.058 77.9067 172.866 78.0674 173.56 78.3886C174.259 78.7058 174.807 79.1476 175.205 79.714C175.602 80.2763 175.808 80.9231 175.82 81.6545H173.554Z" fill="white"/>
</svg>
