<svg width="79" height="53" viewBox="0 0 79 53" fill="none" xmlns="http://www.w3.org/2000/svg">
<path d="M5.922 20.512H13.538V25H0.108V1.132H5.922V20.512ZM44.7723 35.68C44.3416 34.8867 43.7183 34.286 42.9023 33.878C42.109 33.4473 41.1683 33.232 40.0803 33.232C38.199 33.232 36.6916 33.8553 35.5583 35.102C34.425 36.326 33.8583 37.9693 33.8583 40.032C33.8583 42.2307 34.4476 43.9533 35.6263 45.2C36.8276 46.424 38.471 47.036 40.5563 47.036C41.9843 47.036 43.1856 46.6733 44.1603 45.948C45.1576 45.2227 45.883 44.18 46.3363 42.82H38.9583V38.536H51.6063V43.942C51.1756 45.3927 50.439 46.7413 49.3963 47.988C48.3763 49.2347 47.073 50.2433 45.4863 51.014C43.8996 51.7847 42.109 52.17 40.1143 52.17C37.757 52.17 35.649 51.66 33.7903 50.64C31.9543 49.5973 30.515 48.158 29.4723 46.322C28.4523 44.486 27.9423 42.3893 27.9423 40.032C27.9423 37.6747 28.4523 35.578 29.4723 33.742C30.515 31.8833 31.9543 30.444 33.7903 29.424C35.6263 28.3813 37.723 27.86 40.0803 27.86C42.9363 27.86 45.339 28.5513 47.2883 29.934C49.2603 31.3167 50.5636 33.232 51.1983 35.68H44.7723Z" fill="#7200E4"/>
<path d="M27.5991 25.238C25.3551 25.238 23.2925 24.7167 21.4111 23.674C19.5525 22.6313 18.0678 21.1807 16.9571 19.322C15.8691 17.4407 15.3251 15.3327 15.3251 12.998C15.3251 10.6633 15.8691 8.56667 16.9571 6.708C18.0678 4.84933 19.5525 3.39867 21.4111 2.356C23.2925 1.31333 25.3551 0.792 27.5991 0.792C29.8431 0.792 31.8945 1.31333 33.7531 2.356C35.6345 3.39867 37.1078 4.84933 38.1731 6.708C39.2611 8.56667 39.8051 10.6633 39.8051 12.998C39.8051 15.3327 39.2611 17.4407 38.1731 19.322C37.0851 21.1807 35.6118 22.6313 33.7531 23.674C31.8945 24.7167 29.8431 25.238 27.5991 25.238ZM27.5991 19.934C29.5031 19.934 31.0218 19.2993 32.1551 18.03C33.3111 16.7607 33.8891 15.0833 33.8891 12.998C33.8891 10.89 33.3111 9.21267 32.1551 7.966C31.0218 6.69667 29.5031 6.062 27.5991 6.062C25.6725 6.062 24.1311 6.68533 22.9751 7.932C21.8418 9.17867 21.2751 10.8673 21.2751 12.998C21.2751 15.106 21.8418 16.7947 22.9751 18.064C24.1311 19.3107 25.6725 19.934 27.5991 19.934ZM66.1148 52.238C63.8708 52.238 61.8081 51.7167 59.9268 50.674C58.0681 49.6313 56.5834 48.1807 55.4728 46.322C54.3847 44.4407 53.8407 42.3327 53.8407 39.998C53.8407 37.6633 54.3847 35.5667 55.4728 33.708C56.5834 31.8493 58.0681 30.3987 59.9268 29.356C61.8081 28.3133 63.8708 27.792 66.1148 27.792C68.3588 27.792 70.4101 28.3133 72.2688 29.356C74.1501 30.3987 75.6234 31.8493 76.6888 33.708C77.7768 35.5667 78.3208 37.6633 78.3208 39.998C78.3208 42.3327 77.7768 44.4407 76.6888 46.322C75.6008 48.1807 74.1274 49.6313 72.2688 50.674C70.4101 51.7167 68.3588 52.238 66.1148 52.238ZM66.1148 46.934C68.0188 46.934 69.5374 46.2993 70.6707 45.03C71.8268 43.7607 72.4048 42.0833 72.4048 39.998C72.4048 37.89 71.8268 36.2127 70.6707 34.966C69.5374 33.6967 68.0188 33.062 66.1148 33.062C64.1881 33.062 62.6468 33.6853 61.4908 34.932C60.3574 36.1787 59.7908 37.8673 59.7908 39.998C59.7908 42.106 60.3574 43.7947 61.4908 45.064C62.6468 46.3107 64.1881 46.934 66.1148 46.934Z" fill="#E0E0E0"/>
</svg>
