<svg width="75" height="50" viewBox="0 0 75 50" fill="none" xmlns="http://www.w3.org/2000/svg">
<path d="M6.456 18.7761H13.624V23.0001H0.984V0.53606H6.456V18.7761ZM43.021 33.6401C42.6157 32.8934 42.029 32.3281 41.261 31.9441C40.5143 31.5387 39.629 31.3361 38.605 31.3361C36.8343 31.3361 35.4157 31.9227 34.349 33.0961C33.2823 34.2481 32.749 35.7947 32.749 37.7361C32.749 39.8054 33.3037 41.4267 34.413 42.6001C35.5437 43.7521 37.0903 44.3281 39.053 44.3281C40.397 44.3281 41.5277 43.9867 42.445 43.3041C43.3837 42.6214 44.0663 41.6401 44.493 40.3601H37.549V36.3281H49.453V41.4161C49.0477 42.7814 48.3543 44.0507 47.373 45.2241C46.413 46.3974 45.1863 47.3467 43.693 48.0721C42.1997 48.7974 40.5143 49.1601 38.637 49.1601C36.4183 49.1601 34.4343 48.6801 32.685 47.7201C30.957 46.7387 29.6023 45.3841 28.621 43.6561C27.661 41.9281 27.181 39.9547 27.181 37.7361C27.181 35.5174 27.661 33.5441 28.621 31.8161C29.6023 30.0667 30.957 28.7121 32.685 27.7521C34.413 26.7707 36.3863 26.2801 38.605 26.2801C41.293 26.2801 43.5543 26.9307 45.389 28.2321C47.245 29.5334 48.4717 31.3361 49.069 33.6401H43.021Z" fill="#B600E4"/>
<path d="M26.858 23.2241C24.746 23.2241 22.8047 22.7334 21.034 21.7521C19.2847 20.7707 17.8873 19.4054 16.842 17.6561C15.818 15.8854 15.306 13.9014 15.306 11.7041C15.306 9.50673 15.818 7.53339 16.842 5.78406C17.8873 4.03473 19.2847 2.66939 21.034 1.68806C22.8047 0.706727 24.746 0.216061 26.858 0.216061C28.97 0.216061 30.9007 0.706727 32.65 1.68806C34.4207 2.66939 35.8073 4.03473 36.81 5.78406C37.834 7.53339 38.346 9.50673 38.346 11.7041C38.346 13.9014 37.834 15.8854 36.81 17.6561C35.786 19.4054 34.3993 20.7707 32.65 21.7521C30.9007 22.7334 28.97 23.2241 26.858 23.2241ZM26.858 18.2321C28.65 18.2321 30.0793 17.6347 31.146 16.4401C32.234 15.2454 32.778 13.6667 32.778 11.7041C32.778 9.72006 32.234 8.14139 31.146 6.96806C30.0793 5.77339 28.65 5.17606 26.858 5.17606C25.0447 5.17606 23.594 5.76273 22.506 6.93606C21.4393 8.10939 20.906 9.69873 20.906 11.7041C20.906 13.6881 21.4393 15.2774 22.506 16.4721C23.594 17.6454 25.0447 18.2321 26.858 18.2321ZM63.108 49.2241C60.996 49.2241 59.0547 48.7334 57.284 47.7521C55.5347 46.7707 54.1373 45.4054 53.092 43.6561C52.068 41.8854 51.556 39.9014 51.556 37.7041C51.556 35.5067 52.068 33.5334 53.092 31.7841C54.1373 30.0347 55.5347 28.6694 57.284 27.6881C59.0547 26.7067 60.996 26.2161 63.108 26.2161C65.22 26.2161 67.1507 26.7067 68.9 27.6881C70.6707 28.6694 72.0573 30.0347 73.06 31.7841C74.084 33.5334 74.596 35.5067 74.596 37.7041C74.596 39.9014 74.084 41.8854 73.06 43.6561C72.036 45.4054 70.6493 46.7707 68.9 47.7521C67.1507 48.7334 65.22 49.2241 63.108 49.2241ZM63.108 44.2321C64.9 44.2321 66.3293 43.6347 67.396 42.4401C68.484 41.2454 69.028 39.6667 69.028 37.7041C69.028 35.7201 68.484 34.1414 67.396 32.9681C66.3293 31.7734 64.9 31.1761 63.108 31.1761C61.2947 31.1761 59.844 31.7627 58.756 32.9361C57.6893 34.1094 57.156 35.6987 57.156 37.7041C57.156 39.6881 57.6893 41.2774 58.756 42.4721C59.844 43.6454 61.2947 44.2321 63.108 44.2321Z" fill="#E0E0E0"/>
</svg>
