<svg width="136" height="27" viewBox="0 0 136 27" fill="none" xmlns="http://www.w3.org/2000/svg">
<path d="M19.568 3.152V20H15.464V9.896L11.696 20H8.384L4.592 9.872V20H0.488V3.152H5.336L10.064 14.816L14.744 3.152H19.568ZM21.7033 13.28C21.7033 11.904 21.9593 10.696 22.4713 9.656C22.9993 8.616 23.7113 7.816 24.6073 7.256C25.5033 6.696 26.5033 6.416 27.6073 6.416C28.5513 6.416 29.3753 6.608 30.0793 6.992C30.7993 7.376 31.3513 7.88 31.7353 8.504V6.608H35.8393V20H31.7353V18.104C31.3353 18.728 30.7753 19.232 30.0553 19.616C29.3513 20 28.5273 20.192 27.5833 20.192C26.4953 20.192 25.5033 19.912 24.6073 19.352C23.7113 18.776 22.9993 17.968 22.4713 16.928C21.9593 15.872 21.7033 14.656 21.7033 13.28ZM31.7353 13.304C31.7353 12.28 31.4473 11.472 30.8713 10.88C30.3113 10.288 29.6233 9.992 28.8073 9.992C27.9913 9.992 27.2953 10.288 26.7193 10.88C26.1593 11.456 25.8793 12.256 25.8793 13.28C25.8793 14.304 26.1593 15.12 26.7193 15.728C27.2953 16.32 27.9913 16.616 28.8073 16.616C29.6233 16.616 30.3113 16.32 30.8713 15.728C31.4473 15.136 31.7353 14.328 31.7353 13.304ZM46.7283 20L44.1603 16.28L42.0003 20H37.5603L41.9763 13.16L37.4403 6.608H42.0483L44.6163 10.304L46.7763 6.608H51.2163L46.7283 13.352L51.3363 20H46.7283ZM59.2297 3.152C61.0057 3.152 62.5577 3.504 63.8857 4.208C65.2137 4.912 66.2377 5.904 66.9577 7.184C67.6937 8.448 68.0617 9.912 68.0617 11.576C68.0617 13.224 67.6937 14.688 66.9577 15.968C66.2377 17.248 65.2057 18.24 63.8617 18.944C62.5337 19.648 60.9897 20 59.2297 20H52.9177V3.152H59.2297ZM58.9657 16.448C60.5177 16.448 61.7257 16.024 62.5897 15.176C63.4537 14.328 63.8857 13.128 63.8857 11.576C63.8857 10.024 63.4537 8.816 62.5897 7.952C61.7257 7.088 60.5177 6.656 58.9657 6.656H57.0217V16.448H58.9657ZM82.9792 13.088C82.9792 13.472 82.9552 13.872 82.9072 14.288H73.6192C73.6832 15.12 73.9472 15.76 74.4112 16.208C74.8912 16.64 75.4752 16.856 76.1632 16.856C77.1872 16.856 77.8992 16.424 78.2992 15.56H82.6672C82.4432 16.44 82.0352 17.232 81.4432 17.936C80.8672 18.64 80.1392 19.192 79.2592 19.592C78.3792 19.992 77.3952 20.192 76.3072 20.192C74.9952 20.192 73.8272 19.912 72.8032 19.352C71.7792 18.792 70.9792 17.992 70.4032 16.952C69.8272 15.912 69.5392 14.696 69.5392 13.304C69.5392 11.912 69.8192 10.696 70.3792 9.656C70.9552 8.616 71.7552 7.816 72.7792 7.256C73.8032 6.696 74.9792 6.416 76.3072 6.416C77.6032 6.416 78.7552 6.688 79.7632 7.232C80.7712 7.776 81.5552 8.552 82.1152 9.56C82.6912 10.568 82.9792 11.744 82.9792 13.088ZM78.7792 12.008C78.7792 11.304 78.5392 10.744 78.0592 10.328C77.5792 9.912 76.9792 9.704 76.2592 9.704C75.5712 9.704 74.9872 9.904 74.5072 10.304C74.0432 10.704 73.7552 11.272 73.6432 12.008H78.7792ZM90.5923 20.192C89.4243 20.192 88.3843 19.992 87.4723 19.592C86.5603 19.192 85.8403 18.648 85.3123 17.96C84.7843 17.256 84.4883 16.472 84.4243 15.608H88.4803C88.5283 16.072 88.7443 16.448 89.1283 16.736C89.5123 17.024 89.9843 17.168 90.5443 17.168C91.0563 17.168 91.4483 17.072 91.7203 16.88C92.0083 16.672 92.1523 16.408 92.1523 16.088C92.1523 15.704 91.9523 15.424 91.5523 15.248C91.1523 15.056 90.5043 14.848 89.6083 14.624C88.6483 14.4 87.8483 14.168 87.2083 13.928C86.5683 13.672 86.0163 13.28 85.5523 12.752C85.0883 12.208 84.8563 11.48 84.8563 10.568C84.8563 9.8 85.0643 9.104 85.4803 8.48C85.9123 7.84 86.5363 7.336 87.3523 6.968C88.1843 6.6 89.1683 6.416 90.3043 6.416C91.9843 6.416 93.3043 6.832 94.2643 7.664C95.2403 8.496 95.8003 9.6 95.9443 10.976H92.1523C92.0883 10.512 91.8803 10.144 91.5283 9.872C91.1923 9.6 90.7443 9.464 90.1843 9.464C89.7043 9.464 89.3363 9.56 89.0803 9.752C88.8243 9.928 88.6963 10.176 88.6963 10.496C88.6963 10.88 88.8963 11.168 89.2963 11.36C89.7123 11.552 90.3523 11.744 91.2163 11.936C92.2083 12.192 93.0163 12.448 93.6403 12.704C94.2643 12.944 94.8083 13.344 95.2723 13.904C95.7523 14.448 96.0003 15.184 96.0163 16.112C96.0163 16.896 95.7923 17.6 95.3443 18.224C94.9123 18.832 94.2803 19.312 93.4483 19.664C92.6323 20.016 91.6803 20.192 90.5923 20.192ZM100.591 5.216C99.8711 5.216 99.2791 5.008 98.8151 4.592C98.3671 4.16 98.1431 3.632 98.1431 3.008C98.1431 2.368 98.3671 1.84 98.8151 1.424C99.2791 0.991999 99.8711 0.775999 100.591 0.775999C101.295 0.775999 101.871 0.991999 102.319 1.424C102.783 1.84 103.015 2.368 103.015 3.008C103.015 3.632 102.783 4.16 102.319 4.592C101.871 5.008 101.295 5.216 100.591 5.216ZM102.631 6.608V20H98.5271V6.608H102.631ZM110.693 6.416C111.637 6.416 112.461 6.608 113.165 6.992C113.885 7.376 114.437 7.88 114.821 8.504V6.608H118.925V19.976C118.925 21.208 118.677 22.32 118.181 23.312C117.701 24.32 116.957 25.12 115.949 25.712C114.957 26.304 113.717 26.6 112.229 26.6C110.245 26.6 108.637 26.128 107.405 25.184C106.173 24.256 105.469 22.992 105.293 21.392H109.349C109.477 21.904 109.781 22.304 110.261 22.592C110.741 22.896 111.333 23.048 112.037 23.048C112.885 23.048 113.557 22.8 114.053 22.304C114.565 21.824 114.821 21.048 114.821 19.976V18.08C114.421 18.704 113.869 19.216 113.165 19.616C112.461 20 111.637 20.192 110.693 20.192C109.589 20.192 108.589 19.912 107.693 19.352C106.797 18.776 106.085 17.968 105.557 16.928C105.045 15.872 104.789 14.656 104.789 13.28C104.789 11.904 105.045 10.696 105.557 9.656C106.085 8.616 106.797 7.816 107.693 7.256C108.589 6.696 109.589 6.416 110.693 6.416ZM114.821 13.304C114.821 12.28 114.533 11.472 113.957 10.88C113.397 10.288 112.709 9.992 111.893 9.992C111.077 9.992 110.381 10.288 109.805 10.88C109.245 11.456 108.965 12.256 108.965 13.28C108.965 14.304 109.245 15.12 109.805 15.728C110.381 16.32 111.077 16.616 111.893 16.616C112.709 16.616 113.397 16.32 113.957 15.728C114.533 15.136 114.821 14.328 114.821 13.304ZM130.054 6.464C131.622 6.464 132.87 6.976 133.798 8C134.742 9.008 135.214 10.4 135.214 12.176V20H131.134V12.728C131.134 11.832 130.902 11.136 130.438 10.64C129.974 10.144 129.35 9.896 128.566 9.896C127.782 9.896 127.158 10.144 126.694 10.64C126.23 11.136 125.998 11.832 125.998 12.728V20H121.894V6.608H125.998V8.384C126.414 7.792 126.974 7.328 127.678 6.992C128.382 6.64 129.174 6.464 130.054 6.464Z" fill="#E7E7E7"/>
</svg>
