<svg width="12" height="8" viewBox="0 0 12 8" fill="none" xmlns="http://www.w3.org/2000/svg">
<path d="M5.3023 7.23487L0.858946 2.19829C0.334563 1.60569 0.76074 0.675 1.55658 0.675H10.4433C10.6214 0.674848 10.7958 0.725611 10.9455 0.82121C11.0953 0.916809 11.2141 1.05319 11.2877 1.21402C11.3613 1.37486 11.3866 1.55332 11.3606 1.72805C11.3346 1.90278 11.2583 2.06636 11.1409 2.19921L6.69756 7.23395C6.6106 7.33264 6.50336 7.41173 6.38304 7.46592C6.26271 7.52011 6.13209 7.54815 5.99993 7.54815C5.86778 7.54815 5.73715 7.52011 5.61683 7.46592C5.4965 7.41173 5.38926 7.33264 5.3023 7.23395V7.23487Z" fill="white"/>
</svg>
