<svg width="248" height="100" viewBox="0 0 248 100" fill="none" xmlns="http://www.w3.org/2000/svg">
<path d="M32.171 47.7899C32.171 49.3511 31.7946 50.8147 31.0419 52.1808C30.317 53.5469 29.1601 54.6481 27.571 55.4844C26.0097 56.3208 24.0303 56.739 21.6328 56.739H16.74V67.9463H10.8855V38.7571H21.6328C23.8909 38.7571 25.8146 39.1474 27.4037 39.928C28.9928 40.7086 30.1776 41.782 30.9582 43.148C31.7667 44.5141 32.171 46.0614 32.171 47.7899ZM21.3819 52.0135C22.9988 52.0135 24.1976 51.6511 24.9782 50.9262C25.7588 50.1735 26.1491 49.1281 26.1491 47.7899C26.1491 44.9462 24.56 43.5244 21.3819 43.5244H16.74V52.0135H21.3819ZM34.8222 56.279C34.8222 53.9372 35.2822 51.8602 36.2022 50.0481C37.1501 48.2359 38.4186 46.842 40.0076 45.8662C41.6246 44.8905 43.4228 44.4026 45.4022 44.4026C47.1307 44.4026 48.6362 44.7511 49.9186 45.4481C51.2289 46.145 52.2743 47.0232 53.055 48.0826V44.779H58.9513V67.9463H53.055V64.559C52.3022 65.6463 51.2568 66.5523 49.9186 67.2772C48.6083 67.9742 47.0889 68.3227 45.3604 68.3227C43.4089 68.3227 41.6246 67.8208 40.0076 66.8172C38.4186 65.8136 37.1501 64.4057 36.2022 62.5935C35.2822 60.7535 34.8222 58.6487 34.8222 56.279ZM53.055 56.3626C53.055 54.9408 52.7762 53.7281 52.2186 52.7244C51.661 51.6929 50.9083 50.9123 49.9604 50.3826C49.0125 49.825 47.9949 49.5462 46.9077 49.5462C45.8204 49.5462 44.8168 49.8111 43.8967 50.3408C42.9767 50.8705 42.224 51.6511 41.6386 52.6826C41.081 53.6863 40.8022 54.885 40.8022 56.279C40.8022 57.6729 41.081 58.8996 41.6386 59.959C42.224 60.9905 42.9767 61.7851 43.8967 62.3426C44.8446 62.9002 45.8483 63.179 46.9077 63.179C47.9949 63.179 49.0125 62.9142 49.9604 62.3845C50.9083 61.8269 51.661 61.0463 52.2186 60.0426C52.7762 59.0111 53.055 57.7844 53.055 56.3626ZM70.5239 48.1244C71.2766 47.065 72.3081 46.1868 73.6184 45.4899C74.9566 44.765 76.476 44.4026 78.1766 44.4026C80.156 44.4026 81.9403 44.8905 83.5294 45.8662C85.1463 46.842 86.4148 48.2359 87.3348 50.0481C88.2827 51.8323 88.7567 53.9093 88.7567 56.279C88.7567 58.6487 88.2827 60.7535 87.3348 62.5935C86.4148 64.4057 85.1463 65.8136 83.5294 66.8172C81.9403 67.8208 80.156 68.3227 78.1766 68.3227C76.476 68.3227 74.9706 67.9742 73.6603 67.2772C72.3778 66.5802 71.3324 65.702 70.5239 64.6426V78.9863H64.6693V44.779H70.5239V48.1244ZM82.7766 56.279C82.7766 54.885 82.4839 53.6863 81.8985 52.6826C81.3409 51.6511 80.5882 50.8705 79.6403 50.3408C78.7203 49.8111 77.7166 49.5462 76.6294 49.5462C75.57 49.5462 74.5663 49.825 73.6184 50.3826C72.6984 50.9123 71.9457 51.6929 71.3603 52.7244C70.8027 53.756 70.5239 54.9687 70.5239 56.3626C70.5239 57.7566 70.8027 58.9693 71.3603 60.0008C71.9457 61.0323 72.6984 61.8269 73.6184 62.3845C74.5663 62.9142 75.57 63.179 76.6294 63.179C77.7166 63.179 78.7203 62.9002 79.6403 62.3426C80.5882 61.7851 81.3409 60.9905 81.8985 59.959C82.4839 58.9275 82.7766 57.7008 82.7766 56.279ZM114.882 44.779V67.9463H108.986V65.019C108.233 66.0226 107.243 66.8172 106.017 67.4027C104.818 67.9602 103.507 68.239 102.086 68.239C100.273 68.239 98.6704 67.8627 97.2765 67.1099C95.8825 66.3293 94.7813 65.2002 93.9728 63.7226C93.1922 62.2172 92.8019 60.4329 92.8019 58.3699V44.779H98.6565V57.5335C98.6565 59.3735 99.1165 60.7954 100.036 61.799C100.956 62.7748 102.211 63.2626 103.8 63.2626C105.417 63.2626 106.686 62.7748 107.606 61.799C108.526 60.7954 108.986 59.3735 108.986 57.5335V44.779H114.882Z" fill="white"/>
<path d="M160.357 68.3222C158.461 68.3222 156.761 67.9876 155.255 67.3185C153.75 66.6216 152.551 65.6876 151.659 64.5167C150.794 63.3458 150.321 62.0494 150.237 60.6276H156.133C156.245 61.5197 156.677 62.2585 157.43 62.844C158.21 63.4294 159.172 63.7222 160.315 63.7222C161.43 63.7222 162.294 63.4991 162.908 63.0531C163.549 62.607 163.87 62.0355 163.87 61.3385C163.87 60.5858 163.479 60.0282 162.699 59.6658C161.946 59.2755 160.733 58.8573 159.061 58.4112C157.332 57.993 155.91 57.5609 154.795 57.1149C153.708 56.6688 152.76 55.9858 151.951 55.0658C151.171 54.1458 150.781 52.9052 150.781 51.3439C150.781 50.0615 151.143 48.8906 151.868 47.8312C152.621 46.7718 153.68 45.9354 155.046 45.3221C156.44 44.7088 158.071 44.4021 159.939 44.4021C162.699 44.4021 164.901 45.0991 166.546 46.493C168.191 47.8591 169.097 49.713 169.264 52.0549H163.661C163.577 51.1349 163.187 50.41 162.49 49.8803C161.821 49.3227 160.914 49.0439 159.771 49.0439C158.712 49.0439 157.89 49.2391 157.304 49.6294C156.747 50.0197 156.468 50.5633 156.468 51.2603C156.468 52.0409 156.858 52.6403 157.639 53.0585C158.419 53.4488 159.632 53.853 161.277 54.2712C162.95 54.6894 164.33 55.1215 165.417 55.5676C166.504 56.0137 167.438 56.7106 168.219 57.6585C169.027 58.5785 169.445 59.8052 169.473 61.3385C169.473 62.6767 169.097 63.8755 168.344 64.9349C167.619 65.9943 166.56 66.8306 165.166 67.444C163.8 68.0294 162.197 68.3222 160.357 68.3222ZM187.996 67.9458L180.134 58.0767V67.9458H174.279V37.0003H180.134V54.6058L187.912 44.7785H195.523L185.319 56.404L195.606 67.9458H187.996ZM201.293 68.2385C200.234 68.2385 199.355 67.9179 198.659 67.2767C197.989 66.6076 197.655 65.7852 197.655 64.8094C197.655 63.8337 197.989 63.0252 198.659 62.384C199.355 61.7149 200.234 61.3803 201.293 61.3803C202.325 61.3803 203.175 61.7149 203.844 62.384C204.513 63.0252 204.848 63.8337 204.848 64.8094C204.848 65.7852 204.513 66.6076 203.844 67.2767C203.175 67.9179 202.325 68.2385 201.293 68.2385ZM215.418 37.0003V67.9458H209.563V37.0003H215.418ZM228.019 49.5876V60.7949C228.019 61.5755 228.2 62.147 228.562 62.5094C228.952 62.844 229.594 63.0112 230.486 63.0112H233.204V67.9458H229.524C224.589 67.9458 222.122 65.5482 222.122 60.7531V49.5876H219.362V44.7785H222.122V39.0494H228.019V44.7785H233.204V49.5876H228.019Z" fill="white"/>
<ellipse cx="133.374" cy="56.5405" rx="12.8889" ry="13.081" fill="white"/>
<circle cx="133" cy="57" r="8" fill="#527DC8"/>
<circle cx="133" cy="57" r="2" fill="white" stroke="white" stroke-width="2.32324"/>
<path d="M133.247 45.8378C133.247 45.8378 133.302 38.105 133.247 36.461C133.192 34.817 135.985 36.2024 137.609 33.4316C138.726 31.1041 137.609 29.183 136.043 28.3333C134.085 27.4836 132.91 28.3333 130.952 30.0328C129.147 31.378 128.394 32.7567 126.253 33.4316C124.112 34.1065 124.879 33.9073 124 34.1838" stroke="white" stroke-width="3.48486"/>
</svg>
