<svg width="269" height="62" viewBox="0 0 269 62" fill="none" xmlns="http://www.w3.org/2000/svg">
<path d="M29.1987 25.4759C29.1987 27.4648 28.7422 29.2908 27.8293 30.9537C26.9163 32.584 25.5142 33.9045 23.6231 34.9153C21.7319 35.9261 19.3843 36.4315 16.5802 36.4315H11.3958V48.7566H3.03236V14.4224H16.5802C19.3191 14.4224 21.6341 14.8952 23.5253 15.8408C25.4164 16.7864 26.8348 18.0906 27.7804 19.7535C28.7259 21.4164 29.1987 23.3239 29.1987 25.4759ZM15.9444 29.7799C17.5421 29.7799 18.7322 29.4049 19.5147 28.655C20.2973 27.905 20.6885 26.8453 20.6885 25.4759C20.6885 24.1064 20.2973 23.0467 19.5147 22.2968C18.7322 21.5468 17.5421 21.1719 15.9444 21.1719H11.3958V29.7799H15.9444ZM31.8899 35.062C31.8899 32.2579 32.4116 29.7962 33.455 27.6768C34.531 25.5574 35.9819 23.9271 37.8079 22.7859C39.6338 21.6447 41.6717 21.074 43.9215 21.074C45.8453 21.074 47.5245 21.4653 48.9591 22.2479C50.4264 23.0304 51.5513 24.0575 52.3339 25.3291V21.4653H60.6973V48.7566H52.3339V44.8928C51.5187 46.1644 50.3775 47.1915 48.9102 47.974C47.4756 48.7566 45.7964 49.1479 43.8726 49.1479C41.6554 49.1479 39.6338 48.5773 37.8079 47.436C35.9819 46.2622 34.531 44.6156 33.455 42.4962C32.4116 40.3442 31.8899 37.8662 31.8899 35.062ZM52.3339 35.111C52.3339 33.0242 51.747 31.3776 50.5731 30.1711C49.4319 28.9647 48.0299 28.3615 46.367 28.3615C44.704 28.3615 43.2857 28.9647 42.1119 30.1711C40.9707 31.345 40.4 32.9753 40.4 35.062C40.4 37.1488 40.9707 38.8117 42.1119 40.0508C43.2857 41.2572 44.704 41.8604 46.367 41.8604C48.0299 41.8604 49.4319 41.2572 50.5731 40.0508C51.747 38.8444 52.3339 37.1977 52.3339 35.111ZM75.1114 25.3291C75.9265 24.0575 77.0514 23.0304 78.4861 22.2479C79.9208 21.4653 81.6 21.074 83.5237 21.074C85.7735 21.074 87.8114 21.6447 89.6374 22.7859C91.4633 23.9271 92.898 25.5574 93.9414 27.6768C95.0174 29.7962 95.5554 32.2579 95.5554 35.062C95.5554 37.8662 95.0174 40.3442 93.9414 42.4962C92.898 44.6156 91.4633 46.2622 89.6374 47.436C87.8114 48.5773 85.7735 49.1479 83.5237 49.1479C81.6326 49.1479 79.9534 48.7566 78.4861 47.974C77.0514 47.1915 75.9265 46.1807 75.1114 44.9417V61.7664H66.7479V21.4653H75.1114V25.3291ZM87.0452 35.062C87.0452 32.9753 86.4583 31.345 85.2845 30.1711C84.1432 28.9647 82.7249 28.3615 81.0294 28.3615C79.3665 28.3615 77.9481 28.9647 76.7743 30.1711C75.6331 31.3776 75.0625 33.0242 75.0625 35.111C75.0625 37.1977 75.6331 38.8444 76.7743 40.0508C77.9481 41.2572 79.3665 41.8604 81.0294 41.8604C82.6923 41.8604 84.1106 41.2572 85.2845 40.0508C86.4583 38.8117 87.0452 37.1488 87.0452 35.062ZM126.892 21.4653V48.7566H118.528V45.0395C117.681 46.2459 116.523 47.2241 115.056 47.974C113.621 48.6914 112.024 49.05 110.263 49.05C108.176 49.05 106.334 48.5936 104.736 47.6806C103.138 46.735 101.899 45.3819 101.019 43.6211C100.139 41.8604 99.6985 39.7899 99.6985 37.4097V21.4653H108.013V36.2848C108.013 38.1107 108.486 39.5291 109.431 40.5399C110.377 41.5507 111.649 42.056 113.246 42.056C114.877 42.056 116.165 41.5507 117.11 40.5399C118.056 39.5291 118.528 38.1107 118.528 36.2848V21.4653H126.892Z" fill="white"/>
<path d="M177.165 49.1479C174.785 49.1479 172.665 48.7403 170.807 47.9251C168.948 47.11 167.481 46.0014 166.405 44.5993C165.329 43.1647 164.726 41.567 164.595 39.8062H172.861C172.959 40.7518 173.399 41.518 174.182 42.105C174.964 42.6919 175.926 42.9853 177.067 42.9853C178.111 42.9853 178.909 42.7897 179.464 42.3984C180.051 41.9745 180.344 41.4365 180.344 40.7844C180.344 40.0019 179.937 39.4313 179.121 39.0726C178.306 38.6813 176.986 38.2574 175.16 37.801C173.203 37.3445 171.573 36.8717 170.269 36.3826C168.965 35.8609 167.84 35.062 166.894 33.986C165.949 32.8774 165.476 31.3939 165.476 29.5353C165.476 27.9702 165.9 26.5519 166.747 25.2802C167.628 23.976 168.899 22.9489 170.562 22.199C172.258 21.449 174.263 21.074 176.578 21.074C180.002 21.074 182.692 21.9218 184.648 23.6173C186.637 25.3128 187.778 27.5627 188.072 30.3668H180.344C180.214 29.4212 179.79 28.6713 179.072 28.117C178.388 27.5627 177.475 27.2855 176.334 27.2855C175.355 27.2855 174.605 27.4811 174.084 27.8724C173.562 28.2311 173.301 28.7365 173.301 29.3886C173.301 30.1711 173.709 30.758 174.524 31.1493C175.372 31.5406 176.676 31.9319 178.437 32.3231C180.458 32.8448 182.105 33.3665 183.376 33.8882C184.648 34.3773 185.757 35.1925 186.702 36.3337C187.68 37.4423 188.186 38.9422 188.218 40.8333C188.218 42.431 187.762 43.8657 186.849 45.1373C185.969 46.3763 184.681 47.3545 182.985 48.0719C181.322 48.7892 179.382 49.1479 177.165 49.1479ZM210.013 48.7566L201.699 37.3119V48.7566H193.335V12.5639H201.699V32.5677L209.964 21.4653H220.284L208.937 35.1599L220.382 48.7566H210.013ZM227.482 49.1479C226.014 49.1479 224.808 48.724 223.862 47.8762C222.95 46.9959 222.493 45.9199 222.493 44.6482C222.493 43.344 222.95 42.2517 223.862 41.3713C224.808 40.491 226.014 40.0508 227.482 40.0508C228.916 40.0508 230.09 40.491 231.003 41.3713C231.949 42.2517 232.422 43.344 232.422 44.6482C232.422 45.9199 231.949 46.9959 231.003 47.8762C230.09 48.724 228.916 49.1479 227.482 49.1479ZM245.736 12.5639V48.7566H237.372V12.5639H245.736ZM267.008 41.6648V48.7566H262.752C259.72 48.7566 257.356 48.023 255.661 46.5557C253.965 45.0558 253.117 42.6267 253.117 39.2682V28.4104H249.792V21.4653H253.117V14.8137H261.481V21.4653H266.959V28.4104H261.481V39.366C261.481 40.1812 261.676 40.7681 262.068 41.1268C262.459 41.4854 263.111 41.6648 264.024 41.6648H267.008Z" fill="white"/>
<ellipse cx="145.369" cy="35.4325" rx="14.9444" ry="14.8649" fill="white"/>
<ellipse cx="145.369" cy="35.4324" rx="8.15152" ry="8.10813" fill="#527DC8"/>
<ellipse cx="145.369" cy="35.4324" rx="1.35859" ry="1.35136" fill="white" stroke="white" stroke-width="2.71717"/>
<path d="M145.221 23.2703C145.221 23.2703 145.285 14.483 145.221 12.6148C145.157 10.7466 148.396 12.321 150.279 9.17233C151.574 6.52746 150.279 4.34438 148.463 3.37879C146.193 2.41323 144.83 3.3788 142.56 5.30997C140.467 6.83868 139.595 8.40542 137.112 9.17233C134.629 9.93923 135.519 9.71287 134.5 10.027" stroke="white" stroke-width="4.07576"/>
</svg>
