<svg width="48" height="48" viewBox="0 0 48 48" fill="none" xmlns="http://www.w3.org/2000/svg">
<path d="M10.7368 6.10352e-05C12.1468 6.10352e-05 13.543 0.277778 14.8457 0.817355C16.1483 1.35693 17.3319 2.1478 18.3289 3.14481C19.3259 4.14182 20.1168 5.32544 20.6564 6.62809C21.196 7.93074 21.4737 9.32692 21.4737 10.7369V21.4737H10.7368C7.88926 21.4737 5.1583 20.3425 3.14475 18.329C1.1312 16.3154 4.59079e-06 13.5845 4.59079e-06 10.7369C4.59079e-06 7.88931 1.1312 5.15836 3.14475 3.14481C5.1583 1.13126 7.88926 6.10352e-05 10.7368 6.10352e-05ZM16.4211 16.4211V10.7369C16.4211 9.61267 16.0877 8.51369 15.4631 7.57892C14.8385 6.64416 13.9508 5.9156 12.9121 5.48538C11.8734 5.05515 10.7305 4.94259 9.62791 5.16191C8.52528 5.38124 7.51245 5.92261 6.7175 6.71756C5.92255 7.51251 5.38118 8.52534 5.16186 9.62797C4.94253 10.7306 5.0551 11.8735 5.48532 12.9122C5.91554 13.9508 6.6441 14.8386 7.57887 15.4632C8.51363 16.0877 9.61261 16.4211 10.7368 16.4211H16.4211ZM10.7368 26.5264H21.4737V37.2632C21.4737 39.3868 20.844 41.4626 19.6642 43.2283C18.4844 44.9939 16.8076 46.3701 14.8457 47.1828C12.8838 47.9954 10.7249 48.208 8.64219 47.7937C6.55945 47.3795 4.64633 46.3569 3.14475 44.8553C1.64318 43.3537 0.620594 41.4406 0.20631 39.3579C-0.207973 37.2751 0.0046521 35.1163 0.817298 33.1544C1.62994 31.1925 3.00611 29.5156 4.77178 28.3359C6.53744 27.1561 8.6133 26.5264 10.7368 26.5264ZM10.7368 31.579C9.61261 31.579 8.51363 31.9124 7.57887 32.537C6.6441 33.1616 5.91554 34.0493 5.48532 35.088C5.0551 36.1266 4.94253 37.2695 5.16186 38.3722C5.38118 39.4748 5.92255 40.4876 6.7175 41.2826C7.51245 42.0775 8.52528 42.6189 9.62791 42.8382C10.7305 43.0575 11.8734 42.945 12.9121 42.5147C13.9508 42.0845 14.8385 41.356 15.4631 40.4212C16.0877 39.4864 16.4211 38.3874 16.4211 37.2632V31.579H10.7368ZM37.2632 6.10352e-05C40.1107 6.10352e-05 42.8417 1.13126 44.8552 3.14481C46.8688 5.15836 48 7.88931 48 10.7369C48 13.5845 46.8688 16.3154 44.8552 18.329C42.8417 20.3425 40.1107 21.4737 37.2632 21.4737H26.5263V10.7369C26.5263 7.88931 27.6575 5.15836 29.6711 3.14481C31.6846 1.13126 34.4156 6.10352e-05 37.2632 6.10352e-05ZM37.2632 16.4211C38.3874 16.4211 39.4864 16.0877 40.4211 15.4632C41.3559 14.8386 42.0845 13.9508 42.5147 12.9122C42.9449 11.8735 43.0575 10.7306 42.8381 9.62797C42.6188 8.52534 42.0774 7.51251 41.2825 6.71756C40.4875 5.92261 39.4747 5.38124 38.3721 5.16191C37.2695 4.94259 36.1266 5.05515 35.0879 5.48538C34.0492 5.9156 33.1615 6.64416 32.5369 7.57892C31.9123 8.51369 31.5789 9.61267 31.5789 10.7369V16.4211H37.2632ZM26.5263 26.5264H37.2632C39.3867 26.5264 41.4626 27.1561 43.2282 28.3359C44.9939 29.5156 46.3701 31.1925 47.1827 33.1544C47.9953 35.1163 48.208 37.2751 47.7937 39.3579C47.3794 41.4406 46.3568 43.3537 44.8552 44.8553C43.3537 46.3569 41.4406 47.3795 39.3578 47.7937C37.2751 48.208 35.1162 47.9954 33.1543 47.1828C31.1924 46.3701 29.5156 44.9939 28.3358 43.2283C27.156 41.4626 26.5263 39.3868 26.5263 37.2632V26.5264ZM31.5789 31.579V37.2632C31.5789 38.3874 31.9123 39.4864 32.5369 40.4212C33.1615 41.356 34.0492 42.0845 35.0879 42.5147C36.1266 42.945 37.2695 43.0575 38.3721 42.8382C39.4747 42.6189 40.4875 42.0775 41.2825 41.2826C42.0774 40.4876 42.6188 39.4748 42.8381 38.3722C43.0575 37.2695 42.9449 36.1266 42.5147 35.088C42.0845 34.0493 41.3559 33.1616 40.4211 32.537C39.4864 31.9124 38.3874 31.579 37.2632 31.579H31.5789Z" fill="#2B4CC0"/>
</svg>
