<svg width="57" height="55" viewBox="0 0 57 55" fill="none" xmlns="http://www.w3.org/2000/svg">
<path d="M12.75 0C14.4244 0 16.0823 0.318217 17.6292 0.936482C19.1761 1.55475 20.5817 2.46095 21.7656 3.60336C22.9496 4.74576 23.8887 6.10199 24.5295 7.59462C25.1702 9.08724 25.5 10.687 25.5 12.3026V24.6053H12.75C9.36849 24.6053 6.12548 23.3091 3.73439 21.0019C1.3433 18.6947 5.45157e-06 15.5655 5.45157e-06 12.3026C5.45157e-06 9.03977 1.3433 5.91055 3.73439 3.60336C6.12548 1.29617 9.36849 0 12.75 0ZM19.5 18.8158V12.3026C19.5 11.0144 19.1041 9.7552 18.3624 8.68411C17.6207 7.61303 16.5665 6.77822 15.3331 6.28526C14.0997 5.79229 12.7425 5.66331 11.4331 5.91462C10.1238 6.16593 8.92104 6.78625 7.97703 7.69713C7.03303 8.60801 6.39015 9.76855 6.1297 11.032C5.86925 12.2954 6.00293 13.605 6.51382 14.7951C7.02471 15.9852 7.88987 17.0024 8.9999 17.7181C10.1099 18.4338 11.415 18.8158 12.75 18.8158H19.5ZM12.75 30.3947H25.5V42.6974C25.5 45.1306 24.7522 47.5092 23.3512 49.5323C21.9503 51.5555 19.959 53.1324 17.6292 54.0635C15.2995 54.9947 12.7359 55.2383 10.2626 54.7636C7.78934 54.2889 5.51751 53.1172 3.73439 51.3966C1.95127 49.6761 0.736955 47.484 0.244993 45.0975C-0.246968 42.711 0.00552437 40.2374 0.970541 37.9893C1.93556 35.7413 3.56976 33.8199 5.66648 32.4681C7.76321 31.1163 10.2283 30.3947 12.75 30.3947ZM12.75 36.1842C11.415 36.1842 10.1099 36.5662 8.9999 37.2819C7.88987 37.9975 7.02471 39.0148 6.51382 40.2049C6.00293 41.395 5.86925 42.7046 6.1297 43.968C6.39015 45.2314 7.03303 46.392 7.97703 47.3029C8.92104 48.2137 10.1238 48.8341 11.4331 49.0854C12.7425 49.3367 14.0997 49.2077 15.3331 48.7147C16.5665 48.2218 17.6207 47.387 18.3624 46.3159C19.1041 45.2448 19.5 43.9855 19.5 42.6974V36.1842H12.75ZM44.25 0C47.6315 0 50.8745 1.29617 53.2656 3.60336C55.6567 5.91055 57 9.03977 57 12.3026C57 15.5655 55.6567 18.6947 53.2656 21.0019C50.8745 23.3091 47.6315 24.6053 44.25 24.6053H31.5V12.3026C31.5 9.03977 32.8433 5.91055 35.2344 3.60336C37.6255 1.29617 40.8685 0 44.25 0ZM44.25 18.8158C45.585 18.8158 46.8901 18.4338 48.0001 17.7181C49.1101 17.0024 49.9753 15.9852 50.4862 14.7951C50.9971 13.605 51.1307 12.2954 50.8703 11.032C50.6098 9.76855 49.967 8.60801 49.023 7.69713C48.079 6.78625 46.8762 6.16593 45.5669 5.91462C44.2575 5.66331 42.9003 5.79229 41.6669 6.28526C40.4335 6.77822 39.3793 7.61303 38.6376 8.68411C37.8959 9.7552 37.5 11.0144 37.5 12.3026V18.8158H44.25ZM31.5 30.3947H44.25C46.7717 30.3947 49.2368 31.1163 51.3335 32.4681C53.4302 33.8199 55.0644 35.7413 56.0295 37.9893C56.9945 40.2374 57.247 42.711 56.755 45.0975C56.263 47.484 55.0487 49.6761 53.2656 51.3966C51.4825 53.1172 49.2107 54.2889 46.7374 54.7636C44.2641 55.2383 41.7005 54.9947 39.3708 54.0635C37.041 53.1324 35.0497 51.5555 33.6488 49.5323C32.2478 47.5092 31.5 45.1306 31.5 42.6974V30.3947ZM37.5 36.1842V42.6974C37.5 43.9855 37.8959 45.2448 38.6376 46.3159C39.3793 47.387 40.4335 48.2218 41.6669 48.7147C42.9003 49.2077 44.2575 49.3367 45.5669 49.0854C46.8762 48.8341 48.079 48.2137 49.023 47.3029C49.967 46.392 50.6098 45.2314 50.8703 43.968C51.1307 42.7046 50.9971 41.395 50.4862 40.2049C49.9753 39.0148 49.1101 37.9975 48.0001 37.2819C46.8901 36.5662 45.585 36.1842 44.25 36.1842H37.5Z" fill="#00E472"/>
</svg>
