<svg width="331" height="357" viewBox="0 0 331 357" fill="none" xmlns="http://www.w3.org/2000/svg">
<circle r="5.39646" transform="matrix(1 -1.96554e-08 -1.96554e-08 -1 21.2822 249.836)" fill="url(#paint0_linear_418_1341)"/>
<ellipse rx="10.3432" ry="10.3432" transform="matrix(1 -1.96554e-08 -1.96554e-08 -1 67.6166 227.608)" fill="url(#paint1_linear_418_1341)"/>
<ellipse rx="10.3432" ry="10.3432" transform="matrix(1 -1.96554e-08 -1.96554e-08 -1 274.436 135.506)" fill="url(#paint2_linear_418_1341)"/>
<circle r="5.39646" transform="matrix(1 -1.96554e-08 -1.96554e-08 -1 320.772 113.277)" fill="url(#paint3_linear_418_1341)"/>
<circle r="71.9528" transform="matrix(0.998346 0.0574955 0.0574955 -0.998346 167.729 172.499)" fill="url(#paint4_linear_418_1341)"/>
<defs>
<linearGradient id="paint0_linear_418_1341" x1="1.83817" y1="1.2142" x2="7.31895" y2="10.169" gradientUnits="userSpaceOnUse">
<stop stop-color="#D738FF"/>
<stop offset="0.31105" stop-color="#73128B"/>
<stop offset="0.593894" stop-color="#2D0038"/>
<stop offset="0.951901"/>
</linearGradient>
<linearGradient id="paint1_linear_418_1341" x1="3.52316" y1="2.32722" x2="14.028" y2="19.4905" gradientUnits="userSpaceOnUse">
<stop stop-color="#D738FF"/>
<stop offset="0.31105" stop-color="#73128B"/>
<stop offset="0.593894" stop-color="#2D0038"/>
<stop offset="0.951901"/>
</linearGradient>
<linearGradient id="paint2_linear_418_1341" x1="3.52316" y1="2.32722" x2="14.028" y2="19.4905" gradientUnits="userSpaceOnUse">
<stop stop-color="#D738FF"/>
<stop offset="0.31105" stop-color="#73128B"/>
<stop offset="0.593894" stop-color="#2D0038"/>
<stop offset="0.951901"/>
</linearGradient>
<linearGradient id="paint3_linear_418_1341" x1="1.83817" y1="1.2142" x2="7.31895" y2="10.169" gradientUnits="userSpaceOnUse">
<stop stop-color="#D738FF"/>
<stop offset="0.31105" stop-color="#73128B"/>
<stop offset="0.593894" stop-color="#2D0038"/>
<stop offset="0.951901"/>
</linearGradient>
<linearGradient id="paint4_linear_418_1341" x1="24.5089" y1="16.1894" x2="97.586" y2="135.586" gradientUnits="userSpaceOnUse">
<stop stop-color="#D738FF"/>
<stop offset="0.31105" stop-color="#73128B"/>
<stop offset="0.593894" stop-color="#2D0038"/>
<stop offset="0.951901"/>
</linearGradient>
</defs>
</svg>
