<svg width="247" height="131" viewBox="0 0 247 131" fill="none" xmlns="http://www.w3.org/2000/svg">
<path d="M86.8711 120.195C86.8711 120.867 86.7461 121.496 86.4961 122.082C86.2461 122.66 85.9023 123.168 85.4648 123.605C85.0352 124.035 84.5273 124.375 83.9414 124.625C83.3633 124.875 82.7422 125 82.0781 125H67.4766V122.598H82.0781C82.4141 122.598 82.7266 122.535 83.0156 122.41C83.3047 122.285 83.5547 122.113 83.7656 121.895C83.9844 121.676 84.1562 121.422 84.2812 121.133C84.4062 120.836 84.4688 120.523 84.4688 120.195C84.4688 119.867 84.4062 119.559 84.2812 119.27C84.1562 118.98 83.9844 118.727 83.7656 118.508C83.5547 118.289 83.3047 118.117 83.0156 117.992C82.7266 117.867 82.4141 117.805 82.0781 117.805H72.2812C71.625 117.805 71.0039 117.68 70.418 117.43C69.832 117.18 69.3203 116.84 68.8828 116.41C68.4531 115.973 68.1094 115.461 67.8516 114.875C67.6016 114.289 67.4766 113.664 67.4766 113C67.4766 112.344 67.6016 111.723 67.8516 111.137C68.1094 110.551 68.4531 110.043 68.8828 109.613C69.3203 109.176 69.832 108.832 70.418 108.582C71.0039 108.324 71.625 108.195 72.2812 108.195H85.6758V110.598H72.2812C71.9531 110.598 71.6406 110.66 71.3438 110.785C71.0547 110.91 70.8008 111.082 70.582 111.301C70.3633 111.52 70.1914 111.777 70.0664 112.074C69.9414 112.363 69.8789 112.672 69.8789 113C69.8789 113.328 69.9414 113.641 70.0664 113.938C70.1914 114.227 70.3633 114.48 70.582 114.699C70.8008 114.918 71.0547 115.09 71.3438 115.215C71.6406 115.34 71.9531 115.402 72.2812 115.402H82.0781C82.7422 115.402 83.3633 115.531 83.9414 115.789C84.5273 116.039 85.0352 116.383 85.4648 116.82C85.9023 117.25 86.2461 117.758 86.4961 118.344C86.7461 118.922 86.8711 119.539 86.8711 120.195ZM74.25 103.449L77.168 104.961L80.0977 103.449L80.8945 104.621L77.168 107.117L73.4531 104.621L74.25 103.449ZM108.234 108.195L99.3984 125H96.6562L87.832 108.195H90.5625L98.0273 122.41L105.492 108.195H108.234ZM128.977 125H126.574V120.195H113.168V117.805H126.574V110.598H117.961C117.141 110.598 116.367 110.758 115.641 111.078C114.914 111.391 114.281 111.82 113.742 112.367C113.203 112.906 112.773 113.539 112.453 114.266C112.141 114.992 111.984 115.77 111.984 116.598V125H109.582V116.598C109.582 115.824 109.68 115.082 109.875 114.371C110.078 113.652 110.359 112.984 110.719 112.367C111.086 111.742 111.523 111.176 112.031 110.668C112.547 110.152 113.113 109.711 113.73 109.344C114.355 108.977 115.023 108.695 115.734 108.5C116.445 108.297 117.188 108.195 117.961 108.195H128.977V125ZM152.402 125H149.156L144.117 120.195H136.758V117.828H146.402C146.902 117.828 147.371 117.734 147.809 117.547C148.246 117.352 148.625 117.09 148.945 116.762C149.273 116.434 149.531 116.051 149.719 115.613C149.906 115.168 150 114.695 150 114.195C150 113.695 149.906 113.227 149.719 112.789C149.531 112.352 149.273 111.973 148.945 111.652C148.625 111.324 148.246 111.066 147.809 110.879C147.371 110.691 146.902 110.598 146.402 110.598H135.41V125H133.008V108.195H146.402C147.23 108.195 148.008 108.355 148.734 108.676C149.461 108.988 150.094 109.418 150.633 109.965C151.18 110.504 151.609 111.137 151.922 111.863C152.242 112.59 152.402 113.367 152.402 114.195C152.402 114.945 152.273 115.656 152.016 116.328C151.758 116.992 151.402 117.59 150.949 118.121C150.496 118.645 149.961 119.082 149.344 119.434C148.734 119.777 148.074 120.008 147.363 120.125L152.402 125ZM174.586 125H172.184V120.195H158.777V117.805H172.184V110.598H163.57C162.75 110.598 161.977 110.758 161.25 111.078C160.523 111.391 159.891 111.82 159.352 112.367C158.812 112.906 158.383 113.539 158.062 114.266C157.75 114.992 157.594 115.77 157.594 116.598V125H155.191V116.598C155.191 115.824 155.289 115.082 155.484 114.371C155.688 113.652 155.969 112.984 156.328 112.367C156.695 111.742 157.133 111.176 157.641 110.668C158.156 110.152 158.723 109.711 159.34 109.344C159.965 108.977 160.633 108.695 161.344 108.5C162.055 108.297 162.797 108.195 163.57 108.195H174.586V125Z" fill="white"/>
<path d="M67.7177 20.1529C39.0419 19.1598 9.86319 35.049 0.304688 42.0005C4.32929 40.5108 15.3971 37.0351 27.9741 32.5663C42.0603 28.594 58.6617 25.6148 76.7727 27.1044C94.8837 28.594 103.939 32.5663 132.112 35.049C166.825 37.0351 192.482 26.6079 182.42 29.0905C172.358 31.5732 147.204 33.0628 127.584 30.0836C102.933 25.6148 96.3927 21.146 67.7177 20.1529Z" fill="url(#paint0_linear_272_2)"/>
<path d="M140.161 0.291031C118.529 -2.19167 98.2377 11.8768 91.8657 17.1732C95.0517 16.0146 103.436 12.7044 116.013 9.22873C128.59 5.75293 148.211 7.44803 159.781 11.9168C183.426 20.3579 192.482 25.1178 204.052 25.1178C215.623 24.3302 219.648 18.4973 220.654 16.1802L243.293 12.2079L215.623 11.2148C215.12 13.863 212.102 19.0601 204.052 18.6628C196.003 18.2656 184.935 12.9673 179.905 11.2148C171.352 8.23563 161.794 2.77373 140.161 0.291031Z" fill="url(#paint1_linear_272_2)"/>
<path d="M223.673 23.6279C199.927 37.5309 169.172 40.3446 156.763 40.0136C161.458 40.6756 165.315 42.4963 186.948 41.0067C208.58 39.5171 215.623 36.0413 223.673 33.5586C234.137 35.1475 242.454 38.524 245.305 40.0136C239.939 35.5448 228.1 26.0113 223.673 23.6279Z" fill="url(#paint2_linear_272_2)"/>
<path d="M0.304688 116.5H53.3047" stroke="white" stroke-width="3"/>
<path d="M190.305 116.5H243.305" stroke="white" stroke-width="3"/>
<mask id="mask0_272_2" style="mask-type:alpha" maskUnits="userSpaceOnUse" x="0" y="58" width="247" height="34">
<path d="M247 58.1909H0V91.1909H247V58.1909Z" fill="white"/>
<path d="M32.8613 89.9999H1V59.1909H32.8613V63.5959H5.4043V85.5959H32.8613V89.9999ZM29.1231 76.8089H7.5957V72.4039H29.1231V76.8089Z" fill="black"/>
<path d="M55.0547 89.9999H50.6507V63.5959H35.0742V59.1909H70.6307V63.5959H55.0547V89.9999Z" fill="black"/>
<path d="M125.61 89.9999H121.205V81.1909H96.6267V76.8089H121.205V63.5959H105.414C103.91 63.5959 102.493 63.8889 101.16 64.4769C99.8277 65.0489 98.6677 65.8369 97.6797 66.8399C96.6917 67.8279 95.9037 68.9879 95.3167 70.3199C94.7437 71.6519 94.4567 73.0769 94.4567 74.5959V89.9999H90.0527V74.5959C90.0527 73.1779 90.2317 71.8169 90.5897 70.5139C90.9627 69.1959 91.4777 67.9709 92.1367 66.8399C92.8097 65.6939 93.6117 64.6559 94.5427 63.7249C95.4887 62.7789 96.5267 61.9699 97.6587 61.2969C98.8037 60.6239 100.029 60.1079 101.332 59.7499C102.636 59.3779 103.996 59.1909 105.414 59.1909H125.61V89.9999Z" fill="black"/>
<path d="M166 59.1909L165.957 74.5959C165.957 76.0279 165.771 77.4029 165.399 78.7209C165.041 80.0239 164.525 81.2489 163.852 82.3949C163.193 83.5259 162.391 84.5639 161.446 85.5099C160.515 86.4409 159.476 87.2429 158.33 87.9159C157.199 88.5749 155.981 89.0899 154.678 89.4629C153.375 89.8209 152.014 89.9999 150.596 89.9999H147.352C145.934 89.9999 144.566 89.8209 143.248 89.4629C141.945 89.0899 140.72 88.5679 139.575 87.8949C138.443 87.2209 137.412 86.4189 136.481 85.4879C135.55 84.5429 134.748 83.5049 134.075 82.3729C133.416 81.2269 132.9 80.0029 132.528 78.6989C132.17 77.3819 131.991 76.0139 131.991 74.5959V59.1909H136.395V74.5959C136.395 76.1139 136.681 77.5459 137.254 78.8929C137.827 80.2249 138.608 81.3919 139.596 82.3949C140.599 83.3829 141.766 84.1629 143.098 84.7359C144.43 85.3089 145.848 85.5959 147.352 85.5959H150.596C152.114 85.5959 153.539 85.3089 154.871 84.7359C156.203 84.1629 157.364 83.3829 158.352 82.3949C159.34 81.3919 160.121 80.2249 160.694 78.8929C161.267 77.5459 161.553 76.1139 161.553 74.5959V59.1909H166Z" fill="black"/>
<path d="M189.075 89.9999H184.67V63.5959H169.094V59.1909H204.651V63.5959H189.075V89.9999Z" fill="black"/>
<path d="M245.063 74.5959C245.063 76.7299 244.726 78.7349 244.053 80.6109C243.38 82.4879 242.42 84.1199 241.174 85.5099C239.942 86.8989 238.46 87.9949 236.727 88.7969C234.994 89.5989 233.067 89.9999 230.948 89.9999H220.7C218.565 89.9999 216.625 89.5989 214.877 88.7969C213.13 87.9949 211.633 86.8989 210.387 85.5099C209.155 84.1199 208.203 82.4879 207.53 80.6109C206.856 78.7349 206.52 76.7299 206.52 74.5959C206.52 72.4759 206.856 70.4849 207.53 68.6229C208.203 66.7469 209.155 65.1139 210.387 63.7249C211.633 62.3209 213.13 61.2179 214.877 60.4159C216.625 59.5999 218.565 59.1909 220.7 59.1909H230.948C233.067 59.1909 234.994 59.5999 236.727 60.4159C238.46 61.2179 239.942 62.3209 241.174 63.7249C242.42 65.1139 243.38 66.7469 244.053 68.6229C244.726 70.4849 245.063 72.4759 245.063 74.5959ZM240.659 74.5959C240.659 73.0769 240.437 71.6519 239.993 70.3199C239.548 68.9879 238.904 67.8279 238.059 66.8399C237.228 65.8369 236.211 65.0489 235.008 64.4769C233.819 63.8889 232.466 63.5959 230.948 63.5959H220.7C219.181 63.5959 217.813 63.8889 216.596 64.4769C215.393 65.0489 214.369 65.8369 213.524 66.8399C212.693 67.8279 212.048 68.9879 211.59 70.3199C211.146 71.6519 210.924 73.0769 210.924 74.5959C210.924 76.1139 211.146 77.5459 211.59 78.8929C212.048 80.2249 212.693 81.3919 213.524 82.3949C214.369 83.3829 215.393 84.1629 216.596 84.7359C217.813 85.3089 219.181 85.5959 220.7 85.5959H230.948C232.466 85.5959 233.819 85.3089 235.008 84.7359C236.211 84.1629 237.228 83.3829 238.059 82.3949C238.904 81.3919 239.548 80.2249 239.993 78.8929C240.437 77.5459 240.659 76.1139 240.659 74.5959Z" fill="black"/>
</mask>
<g mask="url(#mask0_272_2)">
<path d="M32.8613 89.9999H1V59.1909H32.8613V63.5959H5.4043V85.5959H32.8613V89.9999ZM29.1231 76.8089H7.5957V72.4039H29.1231V76.8089Z" fill="white"/>
<path d="M55.0547 89.9999H50.6507V63.5959H35.0742V59.1909H70.6307V63.5959H55.0547V89.9999Z" fill="white"/>
<path d="M125.61 89.9999H121.205V81.1909H96.6267V76.8089H121.205V63.5959H105.414C103.91 63.5959 102.493 63.8889 101.16 64.4769C99.8277 65.0489 98.6677 65.8369 97.6797 66.8399C96.6917 67.8279 95.9037 68.9879 95.3167 70.3199C94.7437 71.6519 94.4567 73.0769 94.4567 74.5959V89.9999H90.0527V74.5959C90.0527 73.1779 90.2317 71.8169 90.5897 70.5139C90.9627 69.1959 91.4777 67.9709 92.1367 66.8399C92.8097 65.6939 93.6117 64.6559 94.5427 63.7249C95.4887 62.7789 96.5267 61.9699 97.6587 61.2969C98.8037 60.6239 100.029 60.1079 101.332 59.7499C102.636 59.3779 103.996 59.1909 105.414 59.1909H125.61V89.9999Z" fill="white"/>
<path d="M166 59.1909L165.957 74.5959C165.957 76.0279 165.771 77.4029 165.399 78.7209C165.041 80.0239 164.525 81.2489 163.852 82.3949C163.193 83.5259 162.391 84.5639 161.446 85.5099C160.515 86.4409 159.476 87.2429 158.33 87.9159C157.199 88.5749 155.981 89.0899 154.678 89.4629C153.375 89.8209 152.014 89.9999 150.596 89.9999H147.352C145.934 89.9999 144.566 89.8209 143.248 89.4629C141.945 89.0899 140.72 88.5679 139.575 87.8949C138.443 87.2209 137.412 86.4189 136.481 85.4879C135.55 84.5429 134.748 83.5049 134.075 82.3729C133.416 81.2269 132.9 80.0029 132.528 78.6989C132.17 77.3819 131.991 76.0139 131.991 74.5959V59.1909H136.395V74.5959C136.395 76.1139 136.681 77.5459 137.254 78.8929C137.827 80.2249 138.608 81.3919 139.596 82.3949C140.599 83.3829 141.766 84.1629 143.098 84.7359C144.43 85.3089 145.848 85.5959 147.352 85.5959H150.596C152.114 85.5959 153.539 85.3089 154.871 84.7359C156.203 84.1629 157.364 83.3829 158.352 82.3949C159.34 81.3919 160.121 80.2249 160.694 78.8929C161.267 77.5459 161.553 76.1139 161.553 74.5959V59.1909H166Z" fill="white"/>
<path d="M189.075 89.9999H184.67V63.5959H169.094V59.1909H204.651V63.5959H189.075V89.9999Z" fill="white"/>
<path d="M245.063 74.5959C245.063 76.7299 244.726 78.7349 244.053 80.6109C243.38 82.4879 242.42 84.1199 241.174 85.5099C239.942 86.8989 238.46 87.9949 236.727 88.7969C234.994 89.5989 233.067 89.9999 230.948 89.9999H220.7C218.565 89.9999 216.625 89.5989 214.877 88.7969C213.13 87.9949 211.633 86.8989 210.387 85.5099C209.155 84.1199 208.203 82.4879 207.53 80.6109C206.856 78.7349 206.52 76.7299 206.52 74.5959C206.52 72.4759 206.856 70.4849 207.53 68.6229C208.203 66.7469 209.155 65.1139 210.387 63.7249C211.633 62.3209 213.13 61.2179 214.877 60.4159C216.625 59.5999 218.565 59.1909 220.7 59.1909H230.948C233.067 59.1909 234.994 59.5999 236.727 60.4159C238.46 61.2179 239.942 62.3209 241.174 63.7249C242.42 65.1139 243.38 66.7469 244.053 68.6229C244.726 70.4849 245.063 72.4759 245.063 74.5959ZM240.659 74.5959C240.659 73.0769 240.437 71.6519 239.993 70.3199C239.548 68.9879 238.904 67.8279 238.059 66.8399C237.228 65.8369 236.211 65.0489 235.008 64.4769C233.819 63.8889 232.466 63.5959 230.948 63.5959H220.7C219.181 63.5959 217.813 63.8889 216.596 64.4769C215.393 65.0489 214.369 65.8369 213.524 66.8399C212.693 67.8279 212.048 68.9879 211.59 70.3199C211.146 71.6519 210.924 73.0769 210.924 74.5959C210.924 76.1139 211.146 77.5459 211.59 78.8929C212.048 80.2249 212.693 81.3919 213.524 82.3949C214.369 83.3829 215.393 84.1629 216.596 84.7359C217.813 85.3089 219.181 85.5959 220.7 85.5959H230.948C232.466 85.5959 233.819 85.3089 235.008 84.7359C236.211 84.1629 237.228 83.3829 238.059 82.3949C238.904 81.3919 239.548 80.2249 239.993 78.8929C240.437 77.5459 240.659 76.1139 240.659 74.5959Z" fill="white"/>
</g>
<defs>
<linearGradient id="paint0_linear_272_2" x1="178.898" y1="30.7856" x2="8.86369" y2="37.4116" gradientUnits="userSpaceOnUse">
<stop stop-color="#FF0000"/>
<stop offset="1" stop-color="#FF7474"/>
</linearGradient>
<linearGradient id="paint1_linear_272_2" x1="239.771" y1="20.8545" x2="98.9907" y2="-0.540877" gradientUnits="userSpaceOnUse">
<stop stop-color="#FF0000"/>
<stop offset="1" stop-color="#FF4F4F"/>
</linearGradient>
<linearGradient id="paint2_linear_272_2" x1="237.759" y1="32.7711" x2="163.835" y2="41.9423" gradientUnits="userSpaceOnUse">
<stop stop-color="#FF0000"/>
<stop offset="1" stop-color="#FF5B5B"/>
</linearGradient>
</defs>
</svg>
