<svg width="248" height="131" viewBox="0 0 248 131" fill="none" xmlns="http://www.w3.org/2000/svg">
<path d="M68.413 20.1529C39.7372 19.1598 10.5585 35.049 1 42.0005C5.0246 40.5108 16.0924 37.0351 28.6694 32.5663C42.7556 28.594 59.357 25.6148 77.468 27.1044C95.579 28.594 104.634 32.5663 132.807 35.049C167.52 37.0351 193.177 26.6079 183.115 29.0905C173.053 31.5732 147.899 33.0628 128.279 30.0836C103.628 25.6148 97.088 21.146 68.413 20.1529Z" fill="url(#paint0_linear_412_18)"/>
<path d="M140.856 0.291031C119.224 -2.19167 98.933 11.8768 92.561 17.1732C95.747 16.0146 104.131 12.7044 116.708 9.22873C129.285 5.75293 148.906 7.44803 160.476 11.9168C184.121 20.3579 193.177 25.1178 204.747 25.1178C216.318 24.3302 220.343 18.4973 221.349 16.1802L243.988 12.2079L216.318 11.2148C215.815 13.863 212.797 19.0601 204.747 18.6628C196.698 18.2656 185.63 12.9673 180.6 11.2148C172.047 8.23563 162.489 2.77373 140.856 0.291031Z" fill="url(#paint1_linear_412_18)"/>
<path d="M224.368 23.6279C200.622 37.5309 169.867 40.3446 157.458 40.0136C162.153 40.6756 166.01 42.4963 187.643 41.0067C209.275 39.5171 216.318 36.0413 224.368 33.5586C234.832 35.1475 243.149 38.524 246 40.0136C240.634 35.5448 228.795 26.0113 224.368 23.6279Z" fill="url(#paint2_linear_412_18)"/>
<path d="M1 116.5H54" stroke="white" stroke-width="3"/>
<path d="M191 116.5H244" stroke="white" stroke-width="3"/>
<path d="M171.5 20.5C168.5 21.5 94 19.5001 94 19.5001L100.5 17C110 13.5 116.5 10 136 10.5C153 11 174.5 19.5 171.5 20.5Z" fill="url(#paint3_linear_412_18)"/>
<path d="M87.5664 120.195C87.5664 120.867 87.4414 121.496 87.1914 122.082C86.9414 122.66 86.5977 123.168 86.1602 123.605C85.7305 124.035 85.2227 124.375 84.6367 124.625C84.0586 124.875 83.4375 125 82.7734 125H68.1719V122.598H82.7734C83.1094 122.598 83.4219 122.535 83.7109 122.41C84 122.285 84.25 122.113 84.4609 121.895C84.6797 121.676 84.8516 121.422 84.9766 121.133C85.1016 120.836 85.1641 120.523 85.1641 120.195C85.1641 119.867 85.1016 119.559 84.9766 119.27C84.8516 118.98 84.6797 118.727 84.4609 118.508C84.25 118.289 84 118.117 83.7109 117.992C83.4219 117.867 83.1094 117.805 82.7734 117.805H72.9766C72.3203 117.805 71.6992 117.68 71.1133 117.43C70.5273 117.18 70.0156 116.84 69.5781 116.41C69.1484 115.973 68.8047 115.461 68.5469 114.875C68.2969 114.289 68.1719 113.664 68.1719 113C68.1719 112.344 68.2969 111.723 68.5469 111.137C68.8047 110.551 69.1484 110.043 69.5781 109.613C70.0156 109.176 70.5273 108.832 71.1133 108.582C71.6992 108.324 72.3203 108.195 72.9766 108.195H86.3711V110.598H72.9766C72.6484 110.598 72.3359 110.66 72.0391 110.785C71.75 110.91 71.4961 111.082 71.2773 111.301C71.0586 111.52 70.8867 111.777 70.7617 112.074C70.6367 112.363 70.5742 112.672 70.5742 113C70.5742 113.328 70.6367 113.641 70.7617 113.938C70.8867 114.227 71.0586 114.48 71.2773 114.699C71.4961 114.918 71.75 115.09 72.0391 115.215C72.3359 115.34 72.6484 115.402 72.9766 115.402H82.7734C83.4375 115.402 84.0586 115.531 84.6367 115.789C85.2227 116.039 85.7305 116.383 86.1602 116.82C86.5977 117.25 86.9414 117.758 87.1914 118.344C87.4414 118.922 87.5664 119.539 87.5664 120.195ZM74.9453 103.449L77.8633 104.961L80.793 103.449L81.5898 104.621L77.8633 107.117L74.1484 104.621L74.9453 103.449ZM108.93 108.195L100.094 125H97.3516L88.5273 108.195H91.2578L98.7227 122.41L106.188 108.195H108.93ZM129.672 125H127.27V120.195H113.863V117.805H127.27V110.598H118.656C117.836 110.598 117.062 110.758 116.336 111.078C115.609 111.391 114.977 111.82 114.438 112.367C113.898 112.906 113.469 113.539 113.148 114.266C112.836 114.992 112.68 115.77 112.68 116.598V125H110.277V116.598C110.277 115.824 110.375 115.082 110.57 114.371C110.773 113.652 111.055 112.984 111.414 112.367C111.781 111.742 112.219 111.176 112.727 110.668C113.242 110.152 113.809 109.711 114.426 109.344C115.051 108.977 115.719 108.695 116.43 108.5C117.141 108.297 117.883 108.195 118.656 108.195H129.672V125ZM153.098 125H149.852L144.812 120.195H137.453V117.828H147.098C147.598 117.828 148.066 117.734 148.504 117.547C148.941 117.352 149.32 117.09 149.641 116.762C149.969 116.434 150.227 116.051 150.414 115.613C150.602 115.168 150.695 114.695 150.695 114.195C150.695 113.695 150.602 113.227 150.414 112.789C150.227 112.352 149.969 111.973 149.641 111.652C149.32 111.324 148.941 111.066 148.504 110.879C148.066 110.691 147.598 110.598 147.098 110.598H136.105V125H133.703V108.195H147.098C147.926 108.195 148.703 108.355 149.43 108.676C150.156 108.988 150.789 109.418 151.328 109.965C151.875 110.504 152.305 111.137 152.617 111.863C152.938 112.59 153.098 113.367 153.098 114.195C153.098 114.945 152.969 115.656 152.711 116.328C152.453 116.992 152.098 117.59 151.645 118.121C151.191 118.645 150.656 119.082 150.039 119.434C149.43 119.777 148.77 120.008 148.059 120.125L153.098 125ZM175.281 125H172.879V120.195H159.473V117.805H172.879V110.598H164.266C163.445 110.598 162.672 110.758 161.945 111.078C161.219 111.391 160.586 111.82 160.047 112.367C159.508 112.906 159.078 113.539 158.758 114.266C158.445 114.992 158.289 115.77 158.289 116.598V125H155.887V116.598C155.887 115.824 155.984 115.082 156.18 114.371C156.383 113.652 156.664 112.984 157.023 112.367C157.391 111.742 157.828 111.176 158.336 110.668C158.852 110.152 159.418 109.711 160.035 109.344C160.66 108.977 161.328 108.695 162.039 108.5C162.75 108.297 163.492 108.195 164.266 108.195H175.281V125Z" fill="white"/>
<path d="M87.1914 122.082L87.6503 122.28L87.6513 122.278L87.1914 122.082ZM84.6367 124.625L84.4405 124.165L84.4383 124.166L84.6367 124.625ZM68.1719 125H67.6719V125.5H68.1719V125ZM68.1719 122.598V122.098H67.6719V122.598H68.1719ZM84.4609 121.895L84.1073 121.541L84.101 121.547L84.4609 121.895ZM84.9766 121.133L85.4355 121.331L85.4374 121.327L84.9766 121.133ZM84.4609 118.508L84.101 118.855L84.1074 118.861L84.4609 118.508ZM69.5781 116.41L69.2213 116.761L69.2278 116.767L69.5781 116.41ZM68.5469 114.875L68.087 115.071L68.0892 115.076L68.5469 114.875ZM68.5469 111.137L68.0892 110.935L68.087 110.94L68.5469 111.137ZM71.1133 108.582L71.3095 109.042L71.3147 109.04L71.1133 108.582ZM86.3711 108.195H86.8711V107.695H86.3711V108.195ZM86.3711 110.598V111.098H86.8711V110.598H86.3711ZM72.0391 110.785L71.845 110.324L71.8406 110.326L72.0391 110.785ZM70.7617 112.074L71.2207 112.273L71.2225 112.268L70.7617 112.074ZM70.7617 113.938L70.3009 114.132L70.3028 114.136L70.7617 113.938ZM72.0391 115.215L71.8406 115.674L71.845 115.676L72.0391 115.215ZM84.6367 115.789L84.4331 116.246L84.4405 116.249L84.6367 115.789ZM86.1602 116.82L85.8034 117.171L85.8098 117.177L86.1602 116.82ZM87.1914 118.344L86.7315 118.54L86.7325 118.542L87.1914 118.344ZM74.9453 103.449L75.1753 103.005L74.7813 102.801L74.5318 103.168L74.9453 103.449ZM77.8633 104.961L77.6333 105.405L77.8628 105.524L78.0926 105.405L77.8633 104.961ZM80.793 103.449L81.2064 103.168L80.9573 102.802L80.5637 103.005L80.793 103.449ZM81.5898 104.621L81.8681 105.037L82.2864 104.756L82.0033 104.34L81.5898 104.621ZM77.8633 107.117L77.5844 107.532L77.8628 107.719L78.1415 107.533L77.8633 107.117ZM74.1484 104.621L73.735 104.34L73.4523 104.756L73.8696 105.036L74.1484 104.621ZM87.0664 120.195C87.0664 120.803 86.9536 121.365 86.7315 121.886L87.6513 122.278C87.9292 121.627 88.0664 120.931 88.0664 120.195H87.0664ZM86.7325 121.884C86.507 122.405 86.1987 122.86 85.8066 123.252L86.5137 123.959C86.9966 123.476 87.3758 122.915 87.6503 122.28L86.7325 121.884ZM85.8066 123.252C85.4243 123.634 84.9706 123.939 84.4405 124.165L84.8329 125.085C85.4747 124.811 86.0367 124.436 86.5137 123.959L85.8066 123.252ZM84.4383 124.166C83.9262 124.388 83.373 124.5 82.7734 124.5V125.5C83.502 125.5 84.191 125.362 84.8352 125.084L84.4383 124.166ZM82.7734 124.5H68.1719V125.5H82.7734V124.5ZM68.6719 125V122.598H67.6719V125H68.6719ZM68.1719 123.098H82.7734V122.098H68.1719V123.098ZM82.7734 123.098C83.173 123.098 83.5536 123.023 83.9094 122.869L83.5125 121.951C83.2902 122.047 83.0457 122.098 82.7734 122.098V123.098ZM83.9094 122.869C84.2569 122.719 84.5624 122.51 84.8209 122.242L84.101 121.547C83.9376 121.717 83.7431 121.851 83.5125 121.951L83.9094 122.869ZM84.8145 122.248C85.0786 121.984 85.2859 121.677 85.4355 121.331L84.5176 120.934C84.4172 121.167 84.2807 121.368 84.1074 121.541L84.8145 122.248ZM85.4374 121.327C85.5887 120.967 85.6641 120.589 85.6641 120.195H84.6641C84.6641 120.458 84.6144 120.704 84.5157 120.939L85.4374 121.327ZM85.6641 120.195C85.6641 119.802 85.5887 119.425 85.4355 119.071L84.5176 119.468C84.6144 119.692 84.6641 119.933 84.6641 120.195H85.6641ZM85.4355 119.071C85.2859 118.725 85.0786 118.418 84.8145 118.154L84.1074 118.861C84.2807 119.035 84.4172 119.236 84.5176 119.468L85.4355 119.071ZM84.8209 118.161C84.5624 117.893 84.2569 117.684 83.9094 117.533L83.5125 118.451C83.7431 118.551 83.9376 118.685 84.101 118.855L84.8209 118.161ZM83.9094 117.533C83.5536 117.379 83.173 117.305 82.7734 117.305V118.305C83.0457 118.305 83.2902 118.355 83.5125 118.451L83.9094 117.533ZM82.7734 117.305H72.9766V118.305H82.7734V117.305ZM72.9766 117.305C72.3857 117.305 71.8315 117.193 71.3095 116.97L70.9171 117.89C71.5669 118.167 72.255 118.305 72.9766 118.305V117.305ZM71.3095 116.97C70.7787 116.743 70.3198 116.438 69.9285 116.053L69.2278 116.767C69.7115 117.242 70.276 117.616 70.9171 117.89L71.3095 116.97ZM69.9348 116.06C69.5494 115.667 69.2391 115.207 69.0045 114.674L68.0892 115.076C68.3703 115.715 68.7475 116.278 69.2214 116.761L69.9348 116.06ZM69.0068 114.679C68.7844 114.158 68.6719 113.6 68.6719 113H67.6719C67.6719 113.729 67.8094 114.421 68.087 115.071L69.0068 114.679ZM68.6719 113C68.6719 112.409 68.784 111.855 69.0068 111.333L68.087 110.94C67.8097 111.59 67.6719 112.278 67.6719 113H68.6719ZM69.0045 111.338C69.2387 110.806 69.5481 110.35 69.9317 109.967L69.2246 109.26C68.7487 109.736 68.3706 110.296 68.0892 110.935L69.0045 111.338ZM69.9317 109.967C70.3227 109.576 70.7805 109.268 71.3095 109.042L70.9171 108.122C70.2741 108.396 69.7086 108.776 69.2246 109.26L69.9317 109.967ZM71.3147 109.04C71.8355 108.811 72.3879 108.695 72.9766 108.695V107.695C72.2528 107.695 71.5629 107.838 70.9119 108.124L71.3147 109.04ZM72.9766 108.695H86.3711V107.695H72.9766V108.695ZM85.8711 108.195V110.598H86.8711V108.195H85.8711ZM86.3711 110.098H72.9766V111.098H86.3711V110.098ZM72.9766 110.098C72.5831 110.098 72.2045 110.173 71.845 110.324L72.2331 111.246C72.4674 111.147 72.7138 111.098 72.9766 111.098V110.098ZM71.8406 110.326C71.4947 110.476 71.1879 110.683 70.9238 110.947L71.6309 111.654C71.8042 111.481 72.0053 111.345 72.2375 111.244L71.8406 110.326ZM70.9238 110.947C70.6574 111.214 70.4499 111.526 70.3009 111.88L71.2225 112.268C71.3235 112.028 71.4598 111.825 71.6309 111.654L70.9238 110.947ZM70.3028 111.876C70.1496 112.23 70.0742 112.607 70.0742 113H71.0742C71.0742 112.737 71.1239 112.496 71.2206 112.273L70.3028 111.876ZM70.0742 113C70.0742 113.393 70.1496 113.772 70.3009 114.132L71.2225 113.743C71.1239 113.509 71.0742 113.263 71.0742 113H70.0742ZM70.3028 114.136C70.4524 114.482 70.6596 114.789 70.9238 115.053L71.6309 114.346C71.4576 114.172 71.3211 113.971 71.2206 113.739L70.3028 114.136ZM70.9238 115.053C71.1879 115.317 71.4947 115.524 71.8406 115.674L72.2375 114.756C72.0053 114.655 71.8042 114.519 71.6309 114.346L70.9238 115.053ZM71.845 115.676C72.2045 115.827 72.5831 115.902 72.9766 115.902V114.902C72.7138 114.902 72.4674 114.853 72.2331 114.754L71.845 115.676ZM72.9766 115.902H82.7734V114.902H72.9766V115.902ZM82.7734 115.902C83.3708 115.902 83.9222 116.018 84.4331 116.246L84.8404 115.332C84.195 115.045 83.5042 114.902 82.7734 114.902V115.902ZM84.4405 116.249C84.9687 116.474 85.4213 116.782 85.8034 117.171L86.5169 116.47C86.0396 115.984 85.4766 115.604 84.8329 115.329L84.4405 116.249ZM85.8098 117.177C86.1988 117.559 86.5062 118.012 86.7315 118.54L87.6513 118.148C87.3766 117.504 86.9965 116.941 86.5105 116.464L85.8098 117.177ZM86.7325 118.542C86.9542 119.055 87.0664 119.604 87.0664 120.195H88.0664C88.0664 119.474 87.9286 118.789 87.6503 118.145L86.7325 118.542ZM74.7153 103.893L77.6333 105.405L78.0933 104.517L75.1753 103.005L74.7153 103.893ZM78.0926 105.405L81.0222 103.894L80.5637 103.005L77.634 104.517L78.0926 105.405ZM80.3795 103.73L81.1764 104.902L82.0033 104.34L81.2064 103.168L80.3795 103.73ZM81.3116 104.206L77.585 106.702L78.1415 107.533L81.8681 105.037L81.3116 104.206ZM78.1421 106.702L74.4273 104.206L73.8696 105.036L77.5844 107.532L78.1421 106.702ZM74.5619 104.902L75.3588 103.73L74.5318 103.168L73.735 104.34L74.5619 104.902ZM108.93 108.195L109.372 108.428L109.757 107.695H108.93V108.195ZM100.094 125V125.5H100.396L100.536 125.233L100.094 125ZM97.3516 125L96.9089 125.232L97.0494 125.5H97.3516V125ZM88.5273 108.195V107.695H87.7L88.0847 108.428L88.5273 108.195ZM91.2578 108.195L91.7005 107.963L91.56 107.695H91.2578V108.195ZM98.7227 122.41L98.28 122.643L98.7227 123.486L99.1653 122.643L98.7227 122.41ZM106.188 108.195V107.695H105.885L105.745 107.963L106.188 108.195ZM108.487 107.963L99.6512 124.767L100.536 125.233L109.372 108.428L108.487 107.963ZM100.094 124.5H97.3516V125.5H100.094V124.5ZM97.7942 124.768L88.97 107.963L88.0847 108.428L96.9089 125.232L97.7942 124.768ZM88.5273 108.695H91.2578V107.695H88.5273V108.695ZM90.8151 108.428L98.28 122.643L99.1653 122.178L91.7005 107.963L90.8151 108.428ZM99.1653 122.643L106.63 108.428L105.745 107.963L98.28 122.178L99.1653 122.643ZM106.188 108.695H108.93V107.695H106.188V108.695ZM129.672 125V125.5H130.172V125H129.672ZM127.27 125H126.77V125.5H127.27V125ZM127.27 120.195H127.77V119.695H127.27V120.195ZM113.863 120.195H113.363V120.695H113.863V120.195ZM113.863 117.805V117.305H113.363V117.805H113.863ZM127.27 117.805V118.305H127.77V117.805H127.27ZM127.27 110.598H127.77V110.098H127.27V110.598ZM116.336 111.078L116.534 111.537L116.538 111.536L116.336 111.078ZM114.438 112.367L114.791 112.721L114.794 112.718L114.438 112.367ZM113.148 114.266L112.691 114.064L112.689 114.068L113.148 114.266ZM112.68 125V125.5H113.18V125H112.68ZM110.277 125H109.777V125.5H110.277V125ZM110.57 114.371L110.089 114.235L110.088 114.239L110.57 114.371ZM111.414 112.367L110.983 112.114L110.982 112.116L111.414 112.367ZM114.426 109.344L114.173 108.913L114.17 108.914L114.426 109.344ZM116.43 108.5L116.562 108.982L116.567 108.981L116.43 108.5ZM129.672 108.195H130.172V107.695H129.672V108.195ZM129.672 124.5H127.27V125.5H129.672V124.5ZM127.77 125V120.195H126.77V125H127.77ZM127.27 119.695H113.863V120.695H127.27V119.695ZM114.363 120.195V117.805H113.363V120.195H114.363ZM113.863 118.305H127.27V117.305H113.863V118.305ZM127.77 117.805V110.598H126.77V117.805H127.77ZM127.27 110.098H118.656V111.098H127.27V110.098ZM118.656 110.098C117.769 110.098 116.926 110.271 116.134 110.621L116.538 111.536C117.199 111.244 117.903 111.098 118.656 111.098V110.098ZM116.138 110.619C115.354 110.956 114.667 111.422 114.081 112.016L114.794 112.718C115.286 112.219 115.864 111.825 116.533 111.537L116.138 110.619ZM114.084 112.014C113.499 112.598 113.035 113.283 112.691 114.064L113.606 114.467C113.902 113.795 114.298 113.214 114.791 112.721L114.084 112.014ZM112.689 114.068C112.349 114.86 112.18 115.705 112.18 116.598H113.18C113.18 115.834 113.323 115.124 113.608 114.463L112.689 114.068ZM112.18 116.598V125H113.18V116.598H112.18ZM112.68 124.5H110.277V125.5H112.68V124.5ZM110.777 125V116.598H109.777V125H110.777ZM110.777 116.598C110.777 115.867 110.87 115.169 111.052 114.504L110.088 114.239C109.88 114.995 109.777 115.782 109.777 116.598H110.777ZM111.051 114.507C111.244 113.827 111.509 113.198 111.846 112.619L110.982 112.116C110.601 112.771 110.303 113.478 110.089 114.235L111.051 114.507ZM111.845 112.62C112.191 112.032 112.603 111.499 113.08 111.022L112.373 110.314C111.835 110.853 111.371 111.453 110.983 112.114L111.845 112.62ZM113.08 111.022C113.567 110.535 114.1 110.119 114.681 109.773L114.17 108.914C113.517 109.303 112.918 109.77 112.373 110.314L113.08 111.022ZM114.679 109.775C115.266 109.43 115.893 109.166 116.562 108.982L116.297 108.018C115.545 108.225 114.836 108.523 114.173 108.913L114.679 109.775ZM116.567 108.981C117.231 108.791 117.927 108.695 118.656 108.695V107.695C117.839 107.695 117.05 107.803 116.292 108.019L116.567 108.981ZM118.656 108.695H129.672V107.695H118.656V108.695ZM129.172 108.195V125H130.172V108.195H129.172ZM153.098 125V125.5H154.334L153.445 124.641L153.098 125ZM149.852 125L149.507 125.362L149.651 125.5H149.852V125ZM144.812 120.195L145.158 119.833L145.013 119.695H144.812V120.195ZM137.453 120.195H136.953V120.695H137.453V120.195ZM137.453 117.828V117.328H136.953V117.828H137.453ZM148.504 117.547L148.701 118.006L148.708 118.003L148.504 117.547ZM149.641 116.762L149.287 116.408L149.283 116.412L149.641 116.762ZM150.414 115.613L150.874 115.81L150.875 115.807L150.414 115.613ZM149.641 111.652L149.283 112.002L149.291 112.01L149.641 111.652ZM136.105 110.598V110.098H135.605V110.598H136.105ZM136.105 125V125.5H136.605V125H136.105ZM133.703 125H133.203V125.5H133.703V125ZM133.703 108.195V107.695H133.203V108.195H133.703ZM149.43 108.676L149.228 109.133L149.232 109.135L149.43 108.676ZM151.328 109.965L150.972 110.316L150.977 110.321L151.328 109.965ZM152.617 111.863L152.158 112.061L152.16 112.065L152.617 111.863ZM152.711 116.328L153.177 116.509L153.178 116.507L152.711 116.328ZM151.645 118.121L152.023 118.448L152.025 118.446L151.645 118.121ZM150.039 119.434L150.285 119.869L150.287 119.868L150.039 119.434ZM148.059 120.125L147.977 119.632L146.997 119.793L147.711 120.484L148.059 120.125ZM153.098 124.5H149.852V125.5H153.098V124.5ZM150.197 124.638L145.158 119.833L144.467 120.557L149.507 125.362L150.197 124.638ZM144.812 119.695H137.453V120.695H144.812V119.695ZM137.953 120.195V117.828H136.953V120.195H137.953ZM137.453 118.328H147.098V117.328H137.453V118.328ZM147.098 118.328C147.662 118.328 148.198 118.222 148.701 118.006L148.307 117.087C147.935 117.247 147.533 117.328 147.098 117.328V118.328ZM148.708 118.003C149.2 117.784 149.632 117.486 149.998 117.111L149.283 116.412C149.009 116.693 148.683 116.92 148.3 117.09L148.708 118.003ZM149.994 117.115C150.368 116.741 150.662 116.305 150.874 115.81L149.954 115.416C149.791 115.797 149.569 116.126 149.287 116.408L149.994 117.115ZM150.875 115.807C151.089 115.298 151.195 114.76 151.195 114.195H150.195C150.195 114.631 150.114 115.038 149.953 115.419L150.875 115.807ZM151.195 114.195C151.195 113.631 151.089 113.095 150.874 112.592L149.954 112.986C150.114 113.358 150.195 113.76 150.195 114.195H151.195ZM150.874 112.592C150.661 112.097 150.367 111.662 149.99 111.295L149.291 112.01C149.571 112.283 149.792 112.607 149.954 112.986L150.874 112.592ZM149.998 111.303C149.631 110.926 149.196 110.632 148.701 110.419L148.307 111.338C148.686 111.501 149.01 111.722 149.283 112.002L149.998 111.303ZM148.701 110.419C148.198 110.204 147.662 110.098 147.098 110.098V111.098C147.533 111.098 147.935 111.179 148.307 111.338L148.701 110.419ZM147.098 110.098H136.105V111.098H147.098V110.098ZM135.605 110.598V125H136.605V110.598H135.605ZM136.105 124.5H133.703V125.5H136.105V124.5ZM134.203 125V108.195H133.203V125H134.203ZM133.703 108.695H147.098V107.695H133.703V108.695ZM147.098 108.695C147.859 108.695 148.568 108.842 149.228 109.133L149.631 108.218C148.839 107.869 147.992 107.695 147.098 107.695V108.695ZM149.232 109.135C149.901 109.423 150.48 109.816 150.972 110.316L151.684 109.614C151.098 109.02 150.411 108.554 149.627 108.216L149.232 109.135ZM150.977 110.321C151.477 110.813 151.87 111.392 152.158 112.061L153.077 111.666C152.739 110.882 152.273 110.195 151.679 109.609L150.977 110.321ZM152.16 112.065C152.451 112.725 152.598 113.434 152.598 114.195H153.598C153.598 113.301 153.424 112.454 153.075 111.662L152.16 112.065ZM152.598 114.195C152.598 114.887 152.479 115.537 152.244 116.149L153.178 116.507C153.458 115.776 153.598 115.004 153.598 114.195H152.598ZM152.245 116.147C152.007 116.76 151.68 117.309 151.264 117.797L152.025 118.446C152.515 117.871 152.899 117.224 153.177 116.509L152.245 116.147ZM151.267 117.794C150.851 118.273 150.361 118.675 149.792 118.999L150.287 119.868C150.952 119.489 151.531 119.016 152.023 118.448L151.267 117.794ZM149.793 118.998C149.237 119.312 148.632 119.524 147.977 119.632L148.14 120.618C148.907 120.492 149.623 120.242 150.285 119.869L149.793 118.998ZM147.711 120.484L152.75 125.359L153.445 124.641L148.406 119.766L147.711 120.484ZM175.281 125V125.5H175.781V125H175.281ZM172.879 125H172.379V125.5H172.879V125ZM172.879 120.195H173.379V119.695H172.879V120.195ZM159.473 120.195H158.973V120.695H159.473V120.195ZM159.473 117.805V117.305H158.973V117.805H159.473ZM172.879 117.805V118.305H173.379V117.805H172.879ZM172.879 110.598H173.379V110.098H172.879V110.598ZM161.945 111.078L162.143 111.537L162.147 111.536L161.945 111.078ZM160.047 112.367L160.4 112.721L160.403 112.718L160.047 112.367ZM158.758 114.266L158.3 114.064L158.298 114.068L158.758 114.266ZM158.289 125V125.5H158.789V125H158.289ZM155.887 125H155.387V125.5H155.887V125ZM156.18 114.371L155.699 114.235L155.698 114.239L156.18 114.371ZM157.023 112.367L156.592 112.114L156.591 112.116L157.023 112.367ZM160.035 109.344L159.782 108.913L159.78 108.914L160.035 109.344ZM162.039 108.5L162.172 108.982L162.176 108.981L162.039 108.5ZM175.281 108.195H175.781V107.695H175.281V108.195ZM175.281 124.5H172.879V125.5H175.281V124.5ZM173.379 125V120.195H172.379V125H173.379ZM172.879 119.695H159.473V120.695H172.879V119.695ZM159.973 120.195V117.805H158.973V120.195H159.973ZM159.473 118.305H172.879V117.305H159.473V118.305ZM173.379 117.805V110.598H172.379V117.805H173.379ZM172.879 110.098H164.266V111.098H172.879V110.098ZM164.266 110.098C163.378 110.098 162.536 110.271 161.744 110.621L162.147 111.536C162.808 111.244 163.512 111.098 164.266 111.098V110.098ZM161.748 110.619C160.964 110.956 160.277 111.422 159.691 112.016L160.403 112.718C160.895 112.219 161.474 111.825 162.143 111.537L161.748 110.619ZM159.693 112.014C159.109 112.598 158.645 113.283 158.3 114.064L159.215 114.467C159.512 113.795 159.907 113.214 160.4 112.721L159.693 112.014ZM158.298 114.068C157.958 114.86 157.789 115.705 157.789 116.598H158.789C158.789 115.834 158.933 115.124 159.217 114.463L158.298 114.068ZM157.789 116.598V125H158.789V116.598H157.789ZM158.289 124.5H155.887V125.5H158.289V124.5ZM156.387 125V116.598H155.387V125H156.387ZM156.387 116.598C156.387 115.867 156.479 115.169 156.662 114.504L155.698 114.239C155.49 114.995 155.387 115.782 155.387 116.598H156.387ZM156.661 114.507C156.853 113.827 157.118 113.198 157.456 112.619L156.591 112.116C156.21 112.771 155.913 113.478 155.699 114.235L156.661 114.507ZM157.455 112.62C157.8 112.032 158.212 111.499 158.689 111.022L157.982 110.314C157.444 110.853 156.981 111.453 156.592 112.114L157.455 112.62ZM158.689 111.022C159.176 110.535 159.71 110.119 160.291 109.773L159.78 108.914C159.126 109.303 158.527 109.77 157.982 110.314L158.689 111.022ZM160.288 109.775C160.875 109.43 161.502 109.166 162.172 108.982L161.907 108.018C161.154 108.225 160.445 108.523 159.782 108.913L160.288 109.775ZM162.176 108.981C162.841 108.791 163.536 108.695 164.266 108.695V107.695C163.448 107.695 162.659 107.803 161.902 108.019L162.176 108.981ZM164.266 108.695H175.281V107.695H164.266V108.695ZM174.781 108.195V125H175.781V108.195H174.781Z" fill="#5E5E5E"/>
<mask id="mask0_412_18" style="mask-type:alpha" maskUnits="userSpaceOnUse" x="0" y="58" width="248" height="34">
<path d="M247.695 58.1909H0.695312V91.1909H247.695V58.1909Z" fill="white"/>
<path d="M33.5566 89.9999H1.69531V59.1909H33.5566V63.5959H6.09961V85.5959H33.5566V89.9999ZM29.8184 76.8089H8.29101V72.4039H29.8184V76.8089Z" fill="black"/>
<path d="M55.75 89.9999H51.346V63.5959H35.7695V59.1909H71.326V63.5959H55.75V89.9999Z" fill="black"/>
<path d="M126.305 89.9999H121.9V81.1909H97.3221V76.8089H121.9V63.5959H106.109C104.605 63.5959 103.188 63.8889 101.855 64.4769C100.523 65.0489 99.363 65.8369 98.375 66.8399C97.387 67.8279 96.599 68.9879 96.012 70.3199C95.439 71.6519 95.152 73.0769 95.152 74.5959V89.9999H90.748V74.5959C90.748 73.1779 90.927 71.8169 91.285 70.5139C91.658 69.1959 92.173 67.9709 92.832 66.8399C93.505 65.6939 94.3071 64.6559 95.2381 63.7249C96.1841 62.7789 97.222 61.9699 98.354 61.2969C99.4991 60.6239 100.724 60.1079 102.027 59.7499C103.331 59.3779 104.691 59.1909 106.109 59.1909H126.305V89.9999Z" fill="black"/>
<path d="M166.695 59.1909L166.652 74.5959C166.652 76.0279 166.466 77.4029 166.094 78.7209C165.736 80.0239 165.22 81.2489 164.547 82.3949C163.888 83.5259 163.086 84.5639 162.141 85.5099C161.21 86.4409 160.171 87.2429 159.025 87.9159C157.894 88.5749 156.676 89.0899 155.373 89.4629C154.07 89.8209 152.709 89.9999 151.291 89.9999H148.047C146.629 89.9999 145.261 89.8209 143.943 89.4629C142.64 89.0899 141.415 88.5679 140.27 87.8949C139.138 87.2209 138.107 86.4189 137.176 85.4879C136.245 84.5429 135.443 83.5049 134.77 82.3729C134.111 81.2269 133.595 80.0029 133.223 78.6989C132.865 77.3819 132.686 76.0139 132.686 74.5959V59.1909H137.09V74.5959C137.09 76.1139 137.376 77.5459 137.949 78.8929C138.522 80.2249 139.303 81.3919 140.291 82.3949C141.294 83.3829 142.461 84.1629 143.793 84.7359C145.125 85.3089 146.543 85.5959 148.047 85.5959H151.291C152.809 85.5959 154.234 85.3089 155.566 84.7359C156.898 84.1629 158.059 83.3829 159.047 82.3949C160.035 81.3919 160.816 80.2249 161.389 78.8929C161.962 77.5459 162.248 76.1139 162.248 74.5959V59.1909H166.695Z" fill="black"/>
<path d="M189.77 89.9999H185.365V63.5959H169.789V59.1909H205.346V63.5959H189.77V89.9999Z" fill="black"/>
<path d="M245.758 74.5959C245.758 76.7299 245.421 78.7349 244.748 80.6109C244.075 82.4879 243.115 84.1199 241.869 85.5099C240.637 86.8989 239.155 87.9949 237.422 88.7969C235.689 89.5989 233.762 89.9999 231.643 89.9999H221.395C219.26 89.9999 217.32 89.5989 215.572 88.7969C213.825 87.9949 212.328 86.8989 211.082 85.5099C209.85 84.1199 208.898 82.4879 208.225 80.6109C207.551 78.7349 207.215 76.7299 207.215 74.5959C207.215 72.4759 207.551 70.4849 208.225 68.6229C208.898 66.7469 209.85 65.1139 211.082 63.7249C212.328 62.3209 213.825 61.2179 215.572 60.4159C217.32 59.5999 219.26 59.1909 221.395 59.1909H231.643C233.762 59.1909 235.689 59.5999 237.422 60.4159C239.155 61.2179 240.637 62.3209 241.869 63.7249C243.115 65.1139 244.075 66.7469 244.748 68.6229C245.421 70.4849 245.758 72.4759 245.758 74.5959ZM241.354 74.5959C241.354 73.0769 241.132 71.6519 240.688 70.3199C240.243 68.9879 239.599 67.8279 238.754 66.8399C237.923 65.8369 236.906 65.0489 235.703 64.4769C234.514 63.8889 233.161 63.5959 231.643 63.5959H221.395C219.876 63.5959 218.508 63.8889 217.291 64.4769C216.088 65.0489 215.064 65.8369 214.219 66.8399C213.388 67.8279 212.743 68.9879 212.285 70.3199C211.841 71.6519 211.619 73.0769 211.619 74.5959C211.619 76.1139 211.841 77.5459 212.285 78.8929C212.743 80.2249 213.388 81.3919 214.219 82.3949C215.064 83.3829 216.088 84.1629 217.291 84.7359C218.508 85.3089 219.876 85.5959 221.395 85.5959H231.643C233.161 85.5959 234.514 85.3089 235.703 84.7359C236.906 84.1629 237.923 83.3829 238.754 82.3949C239.599 81.3919 240.243 80.2249 240.688 78.8929C241.132 77.5459 241.354 76.1139 241.354 74.5959Z" fill="black"/>
</mask>
<g mask="url(#mask0_412_18)">
<path d="M33.5566 89.9999H1.69531V59.1909H33.5566V63.5959H6.09961V85.5959H33.5566V89.9999ZM29.8184 76.8089H8.29101V72.4039H29.8184V76.8089Z" fill="white"/>
<path d="M55.75 89.9999H51.346V63.5959H35.7695V59.1909H71.326V63.5959H55.75V89.9999Z" fill="white"/>
<path d="M126.305 89.9999H121.9V81.1909H97.3221V76.8089H121.9V63.5959H106.109C104.605 63.5959 103.188 63.8889 101.855 64.4769C100.523 65.0489 99.363 65.8369 98.375 66.8399C97.387 67.8279 96.599 68.9879 96.012 70.3199C95.439 71.6519 95.152 73.0769 95.152 74.5959V89.9999H90.748V74.5959C90.748 73.1779 90.927 71.8169 91.285 70.5139C91.658 69.1959 92.173 67.9709 92.832 66.8399C93.505 65.6939 94.3071 64.6559 95.2381 63.7249C96.1841 62.7789 97.222 61.9699 98.354 61.2969C99.4991 60.6239 100.724 60.1079 102.027 59.7499C103.331 59.3779 104.691 59.1909 106.109 59.1909H126.305V89.9999Z" fill="white"/>
<path d="M166.695 59.1909L166.652 74.5959C166.652 76.0279 166.466 77.4029 166.094 78.7209C165.736 80.0239 165.22 81.2489 164.547 82.3949C163.888 83.5259 163.086 84.5639 162.141 85.5099C161.21 86.4409 160.171 87.2429 159.025 87.9159C157.894 88.5749 156.676 89.0899 155.373 89.4629C154.07 89.8209 152.709 89.9999 151.291 89.9999H148.047C146.629 89.9999 145.261 89.8209 143.943 89.4629C142.64 89.0899 141.415 88.5679 140.27 87.8949C139.138 87.2209 138.107 86.4189 137.176 85.4879C136.245 84.5429 135.443 83.5049 134.77 82.3729C134.111 81.2269 133.595 80.0029 133.223 78.6989C132.865 77.3819 132.686 76.0139 132.686 74.5959V59.1909H137.09V74.5959C137.09 76.1139 137.376 77.5459 137.949 78.8929C138.522 80.2249 139.303 81.3919 140.291 82.3949C141.294 83.3829 142.461 84.1629 143.793 84.7359C145.125 85.3089 146.543 85.5959 148.047 85.5959H151.291C152.809 85.5959 154.234 85.3089 155.566 84.7359C156.898 84.1629 158.059 83.3829 159.047 82.3949C160.035 81.3919 160.816 80.2249 161.389 78.8929C161.962 77.5459 162.248 76.1139 162.248 74.5959V59.1909H166.695Z" fill="white"/>
<path d="M189.77 89.9999H185.365V63.5959H169.789V59.1909H205.346V63.5959H189.77V89.9999Z" fill="white"/>
<path d="M245.758 74.5959C245.758 76.7299 245.421 78.7349 244.748 80.6109C244.075 82.4879 243.115 84.1199 241.869 85.5099C240.637 86.8989 239.155 87.9949 237.422 88.7969C235.689 89.5989 233.762 89.9999 231.643 89.9999H221.395C219.26 89.9999 217.32 89.5989 215.572 88.7969C213.825 87.9949 212.328 86.8989 211.082 85.5099C209.85 84.1199 208.898 82.4879 208.225 80.6109C207.551 78.7349 207.215 76.7299 207.215 74.5959C207.215 72.4759 207.551 70.4849 208.225 68.6229C208.898 66.7469 209.85 65.1139 211.082 63.7249C212.328 62.3209 213.825 61.2179 215.572 60.4159C217.32 59.5999 219.26 59.1909 221.395 59.1909H231.643C233.762 59.1909 235.689 59.5999 237.422 60.4159C239.155 61.2179 240.637 62.3209 241.869 63.7249C243.115 65.1139 244.075 66.7469 244.748 68.6229C245.421 70.4849 245.758 72.4759 245.758 74.5959ZM241.354 74.5959C241.354 73.0769 241.132 71.6519 240.688 70.3199C240.243 68.9879 239.599 67.8279 238.754 66.8399C237.923 65.8369 236.906 65.0489 235.703 64.4769C234.514 63.8889 233.161 63.5959 231.643 63.5959H221.395C219.876 63.5959 218.508 63.8889 217.291 64.4769C216.088 65.0489 215.064 65.8369 214.219 66.8399C213.388 67.8279 212.743 68.9879 212.285 70.3199C211.841 71.6519 211.619 73.0769 211.619 74.5959C211.619 76.1139 211.841 77.5459 212.285 78.8929C212.743 80.2249 213.388 81.3919 214.219 82.3949C215.064 83.3829 216.088 84.1629 217.291 84.7359C218.508 85.3089 219.876 85.5959 221.395 85.5959H231.643C233.161 85.5959 234.514 85.3089 235.703 84.7359C236.906 84.1629 237.923 83.3829 238.754 82.3949C239.599 81.3919 240.243 80.2249 240.688 78.8929C241.132 77.5459 241.354 76.1139 241.354 74.5959Z" fill="white"/>
</g>
<defs>
<linearGradient id="paint0_linear_412_18" x1="179.593" y1="30.7856" x2="9.559" y2="37.4116" gradientUnits="userSpaceOnUse">
<stop stop-color="#FF0000"/>
<stop offset="1" stop-color="#FF7474"/>
</linearGradient>
<linearGradient id="paint1_linear_412_18" x1="240.466" y1="20.8545" x2="99.686" y2="-0.540877" gradientUnits="userSpaceOnUse">
<stop stop-color="#FF0000"/>
<stop offset="1" stop-color="#FF4F4F"/>
</linearGradient>
<linearGradient id="paint2_linear_412_18" x1="238.454" y1="32.7711" x2="164.53" y2="41.9423" gradientUnits="userSpaceOnUse">
<stop stop-color="#FF0000"/>
<stop offset="1" stop-color="#FF5B5B"/>
</linearGradient>
<linearGradient id="paint3_linear_412_18" x1="134.75" y1="10.5" x2="134.75" y2="20" gradientUnits="userSpaceOnUse">
<stop stop-color="#D1D1D1"/>
<stop offset="0.583333" stop-color="#424242"/>
<stop offset="1"/>
</linearGradient>
</defs>
</svg>
