<svg width="255" height="129" viewBox="0 0 255 129" fill="none" xmlns="http://www.w3.org/2000/svg">
<mask id="path-1-outside-1_0_3" maskUnits="userSpaceOnUse" x="8.69531" y="60" width="247" height="33" fill="black">
<rect fill="white" x="8.69531" y="60" width="247" height="33"/>
<path d="M41.5566 91.8086H9.69531V61H41.5566V65.4043H14.0996V87.4043H41.5566V91.8086ZM37.8184 78.6172H16.291V74.2129H37.8184V78.6172Z"/>
<path d="M63.75 91.8086H59.3457V65.4043H43.7695V61H79.3262V65.4043H63.75V91.8086Z"/>
<path d="M134.305 91.8086H129.9V83H105.322V78.6172H129.9V65.4043H114.109C112.605 65.4043 111.188 65.6979 109.855 66.2852C108.523 66.8581 107.363 67.6458 106.375 68.6484C105.387 69.6367 104.599 70.7969 104.012 72.1289C103.439 73.4609 103.152 74.8861 103.152 76.4043V91.8086H98.748V76.4043C98.748 74.9863 98.9271 73.6257 99.2852 72.3223C99.6576 71.0046 100.173 69.7799 100.832 68.6484C101.505 67.5026 102.307 66.4642 103.238 65.5332C104.184 64.5879 105.222 63.7786 106.354 63.1055C107.499 62.4323 108.724 61.9167 110.027 61.5586C111.331 61.1862 112.691 61 114.109 61H134.305V91.8086Z"/>
<path d="M174.695 61L174.652 76.4043C174.652 77.8366 174.466 79.2116 174.094 80.5293C173.736 81.8327 173.22 83.0573 172.547 84.2031C171.888 85.3346 171.086 86.373 170.141 87.3184C169.21 88.2493 168.171 89.0514 167.025 89.7246C165.894 90.3835 164.676 90.8991 163.373 91.2715C162.07 91.6296 160.709 91.8086 159.291 91.8086H156.047C154.629 91.8086 153.261 91.6296 151.943 91.2715C150.64 90.8991 149.415 90.3763 148.27 89.7031C147.138 89.0299 146.107 88.2279 145.176 87.2969C144.245 86.3516 143.443 85.3132 142.77 84.1816C142.111 83.0358 141.595 81.8112 141.223 80.5078C140.865 79.1901 140.686 77.8223 140.686 76.4043V61H145.09V76.4043C145.09 77.9225 145.376 79.3548 145.949 80.7012C146.522 82.0332 147.303 83.2005 148.291 84.2031C149.294 85.1914 150.461 85.972 151.793 86.5449C153.125 87.1178 154.543 87.4043 156.047 87.4043H159.291C160.809 87.4043 162.234 87.1178 163.566 86.5449C164.898 85.972 166.059 85.1914 167.047 84.2031C168.035 83.2005 168.816 82.0332 169.389 80.7012C169.962 79.3548 170.248 77.9225 170.248 76.4043V61H174.695Z"/>
<path d="M197.77 91.8086H193.365V65.4043H177.789V61H213.346V65.4043H197.77V91.8086Z"/>
<path d="M253.758 76.4043C253.758 78.5384 253.421 80.5436 252.748 82.4199C252.075 84.2962 251.115 85.929 249.869 87.3184C248.637 88.7077 247.155 89.8034 245.422 90.6055C243.689 91.4076 241.762 91.8086 239.643 91.8086H229.395C227.26 91.8086 225.32 91.4076 223.572 90.6055C221.825 89.8034 220.328 88.7077 219.082 87.3184C217.85 85.929 216.898 84.2962 216.225 82.4199C215.551 80.5436 215.215 78.5384 215.215 76.4043C215.215 74.2845 215.551 72.2936 216.225 70.4316C216.898 68.5553 217.85 66.9225 219.082 65.5332C220.328 64.1296 221.825 63.0267 223.572 62.2246C225.32 61.4082 227.26 61 229.395 61H239.643C241.762 61 243.689 61.4082 245.422 62.2246C247.155 63.0267 248.637 64.1296 249.869 65.5332C251.115 66.9225 252.075 68.5553 252.748 70.4316C253.421 72.2936 253.758 74.2845 253.758 76.4043ZM249.354 76.4043C249.354 74.8861 249.132 73.4609 248.688 72.1289C248.243 70.7969 247.599 69.6367 246.754 68.6484C245.923 67.6458 244.906 66.8581 243.703 66.2852C242.514 65.6979 241.161 65.4043 239.643 65.4043H229.395C227.876 65.4043 226.508 65.6979 225.291 66.2852C224.088 66.8581 223.064 67.6458 222.219 68.6484C221.388 69.6367 220.743 70.7969 220.285 72.1289C219.841 73.4609 219.619 74.8861 219.619 76.4043C219.619 77.9225 219.841 79.3548 220.285 80.7012C220.743 82.0332 221.388 83.2005 222.219 84.2031C223.064 85.1914 224.088 85.972 225.291 86.5449C226.508 87.1178 227.876 87.4043 229.395 87.4043H239.643C241.161 87.4043 242.514 87.1178 243.703 86.5449C244.906 85.972 245.923 85.1914 246.754 84.2031C247.599 83.2005 248.243 82.0332 248.688 80.7012C249.132 79.3548 249.354 77.9225 249.354 76.4043Z"/>
</mask>
<path d="M41.5566 91.8086H9.69531V61H41.5566V65.4043H14.0996V87.4043H41.5566V91.8086ZM37.8184 78.6172H16.291V74.2129H37.8184V78.6172Z" fill="white"/>
<path d="M63.75 91.8086H59.3457V65.4043H43.7695V61H79.3262V65.4043H63.75V91.8086Z" fill="white"/>
<path d="M134.305 91.8086H129.9V83H105.322V78.6172H129.9V65.4043H114.109C112.605 65.4043 111.188 65.6979 109.855 66.2852C108.523 66.8581 107.363 67.6458 106.375 68.6484C105.387 69.6367 104.599 70.7969 104.012 72.1289C103.439 73.4609 103.152 74.8861 103.152 76.4043V91.8086H98.748V76.4043C98.748 74.9863 98.9271 73.6257 99.2852 72.3223C99.6576 71.0046 100.173 69.7799 100.832 68.6484C101.505 67.5026 102.307 66.4642 103.238 65.5332C104.184 64.5879 105.222 63.7786 106.354 63.1055C107.499 62.4323 108.724 61.9167 110.027 61.5586C111.331 61.1862 112.691 61 114.109 61H134.305V91.8086Z" fill="white"/>
<path d="M174.695 61L174.652 76.4043C174.652 77.8366 174.466 79.2116 174.094 80.5293C173.736 81.8327 173.22 83.0573 172.547 84.2031C171.888 85.3346 171.086 86.373 170.141 87.3184C169.21 88.2493 168.171 89.0514 167.025 89.7246C165.894 90.3835 164.676 90.8991 163.373 91.2715C162.07 91.6296 160.709 91.8086 159.291 91.8086H156.047C154.629 91.8086 153.261 91.6296 151.943 91.2715C150.64 90.8991 149.415 90.3763 148.27 89.7031C147.138 89.0299 146.107 88.2279 145.176 87.2969C144.245 86.3516 143.443 85.3132 142.77 84.1816C142.111 83.0358 141.595 81.8112 141.223 80.5078C140.865 79.1901 140.686 77.8223 140.686 76.4043V61H145.09V76.4043C145.09 77.9225 145.376 79.3548 145.949 80.7012C146.522 82.0332 147.303 83.2005 148.291 84.2031C149.294 85.1914 150.461 85.972 151.793 86.5449C153.125 87.1178 154.543 87.4043 156.047 87.4043H159.291C160.809 87.4043 162.234 87.1178 163.566 86.5449C164.898 85.972 166.059 85.1914 167.047 84.2031C168.035 83.2005 168.816 82.0332 169.389 80.7012C169.962 79.3548 170.248 77.9225 170.248 76.4043V61H174.695Z" fill="white"/>
<path d="M197.77 91.8086H193.365V65.4043H177.789V61H213.346V65.4043H197.77V91.8086Z" fill="white"/>
<path d="M253.758 76.4043C253.758 78.5384 253.421 80.5436 252.748 82.4199C252.075 84.2962 251.115 85.929 249.869 87.3184C248.637 88.7077 247.155 89.8034 245.422 90.6055C243.689 91.4076 241.762 91.8086 239.643 91.8086H229.395C227.26 91.8086 225.32 91.4076 223.572 90.6055C221.825 89.8034 220.328 88.7077 219.082 87.3184C217.85 85.929 216.898 84.2962 216.225 82.4199C215.551 80.5436 215.215 78.5384 215.215 76.4043C215.215 74.2845 215.551 72.2936 216.225 70.4316C216.898 68.5553 217.85 66.9225 219.082 65.5332C220.328 64.1296 221.825 63.0267 223.572 62.2246C225.32 61.4082 227.26 61 229.395 61H239.643C241.762 61 243.689 61.4082 245.422 62.2246C247.155 63.0267 248.637 64.1296 249.869 65.5332C251.115 66.9225 252.075 68.5553 252.748 70.4316C253.421 72.2936 253.758 74.2845 253.758 76.4043ZM249.354 76.4043C249.354 74.8861 249.132 73.4609 248.688 72.1289C248.243 70.7969 247.599 69.6367 246.754 68.6484C245.923 67.6458 244.906 66.8581 243.703 66.2852C242.514 65.6979 241.161 65.4043 239.643 65.4043H229.395C227.876 65.4043 226.508 65.6979 225.291 66.2852C224.088 66.8581 223.064 67.6458 222.219 68.6484C221.388 69.6367 220.743 70.7969 220.285 72.1289C219.841 73.4609 219.619 74.8861 219.619 76.4043C219.619 77.9225 219.841 79.3548 220.285 80.7012C220.743 82.0332 221.388 83.2005 222.219 84.2031C223.064 85.1914 224.088 85.972 225.291 86.5449C226.508 87.1178 227.876 87.4043 229.395 87.4043H239.643C241.161 87.4043 242.514 87.1178 243.703 86.5449C244.906 85.972 245.923 85.1914 246.754 84.2031C247.599 83.2005 248.243 82.0332 248.688 80.7012C249.132 79.3548 249.354 77.9225 249.354 76.4043Z" fill="white"/>
<path d="M41.5566 91.8086H9.69531V61H41.5566V65.4043H14.0996V87.4043H41.5566V91.8086ZM37.8184 78.6172H16.291V74.2129H37.8184V78.6172Z" stroke="white" stroke-width="2" mask="url(#path-1-outside-1_0_3)"/>
<path d="M63.75 91.8086H59.3457V65.4043H43.7695V61H79.3262V65.4043H63.75V91.8086Z" stroke="white" stroke-width="2" mask="url(#path-1-outside-1_0_3)"/>
<path d="M134.305 91.8086H129.9V83H105.322V78.6172H129.9V65.4043H114.109C112.605 65.4043 111.188 65.6979 109.855 66.2852C108.523 66.8581 107.363 67.6458 106.375 68.6484C105.387 69.6367 104.599 70.7969 104.012 72.1289C103.439 73.4609 103.152 74.8861 103.152 76.4043V91.8086H98.748V76.4043C98.748 74.9863 98.9271 73.6257 99.2852 72.3223C99.6576 71.0046 100.173 69.7799 100.832 68.6484C101.505 67.5026 102.307 66.4642 103.238 65.5332C104.184 64.5879 105.222 63.7786 106.354 63.1055C107.499 62.4323 108.724 61.9167 110.027 61.5586C111.331 61.1862 112.691 61 114.109 61H134.305V91.8086Z" stroke="white" stroke-width="2" mask="url(#path-1-outside-1_0_3)"/>
<path d="M174.695 61L174.652 76.4043C174.652 77.8366 174.466 79.2116 174.094 80.5293C173.736 81.8327 173.22 83.0573 172.547 84.2031C171.888 85.3346 171.086 86.373 170.141 87.3184C169.21 88.2493 168.171 89.0514 167.025 89.7246C165.894 90.3835 164.676 90.8991 163.373 91.2715C162.07 91.6296 160.709 91.8086 159.291 91.8086H156.047C154.629 91.8086 153.261 91.6296 151.943 91.2715C150.64 90.8991 149.415 90.3763 148.27 89.7031C147.138 89.0299 146.107 88.2279 145.176 87.2969C144.245 86.3516 143.443 85.3132 142.77 84.1816C142.111 83.0358 141.595 81.8112 141.223 80.5078C140.865 79.1901 140.686 77.8223 140.686 76.4043V61H145.09V76.4043C145.09 77.9225 145.376 79.3548 145.949 80.7012C146.522 82.0332 147.303 83.2005 148.291 84.2031C149.294 85.1914 150.461 85.972 151.793 86.5449C153.125 87.1178 154.543 87.4043 156.047 87.4043H159.291C160.809 87.4043 162.234 87.1178 163.566 86.5449C164.898 85.972 166.059 85.1914 167.047 84.2031C168.035 83.2005 168.816 82.0332 169.389 80.7012C169.962 79.3548 170.248 77.9225 170.248 76.4043V61H174.695Z" stroke="white" stroke-width="2" mask="url(#path-1-outside-1_0_3)"/>
<path d="M197.77 91.8086H193.365V65.4043H177.789V61H213.346V65.4043H197.77V91.8086Z" stroke="white" stroke-width="2" mask="url(#path-1-outside-1_0_3)"/>
<path d="M253.758 76.4043C253.758 78.5384 253.421 80.5436 252.748 82.4199C252.075 84.2962 251.115 85.929 249.869 87.3184C248.637 88.7077 247.155 89.8034 245.422 90.6055C243.689 91.4076 241.762 91.8086 239.643 91.8086H229.395C227.26 91.8086 225.32 91.4076 223.572 90.6055C221.825 89.8034 220.328 88.7077 219.082 87.3184C217.85 85.929 216.898 84.2962 216.225 82.4199C215.551 80.5436 215.215 78.5384 215.215 76.4043C215.215 74.2845 215.551 72.2936 216.225 70.4316C216.898 68.5553 217.85 66.9225 219.082 65.5332C220.328 64.1296 221.825 63.0267 223.572 62.2246C225.32 61.4082 227.26 61 229.395 61H239.643C241.762 61 243.689 61.4082 245.422 62.2246C247.155 63.0267 248.637 64.1296 249.869 65.5332C251.115 66.9225 252.075 68.5553 252.748 70.4316C253.421 72.2936 253.758 74.2845 253.758 76.4043ZM249.354 76.4043C249.354 74.8861 249.132 73.4609 248.688 72.1289C248.243 70.7969 247.599 69.6367 246.754 68.6484C245.923 67.6458 244.906 66.8581 243.703 66.2852C242.514 65.6979 241.161 65.4043 239.643 65.4043H229.395C227.876 65.4043 226.508 65.6979 225.291 66.2852C224.088 66.8581 223.064 67.6458 222.219 68.6484C221.388 69.6367 220.743 70.7969 220.285 72.1289C219.841 73.4609 219.619 74.8861 219.619 76.4043C219.619 77.9225 219.841 79.3548 220.285 80.7012C220.743 82.0332 221.388 83.2005 222.219 84.2031C223.064 85.1914 224.088 85.972 225.291 86.5449C226.508 87.1178 227.876 87.4043 229.395 87.4043H239.643C241.161 87.4043 242.514 87.1178 243.703 86.5449C244.906 85.972 245.923 85.1914 246.754 84.2031C247.599 83.2005 248.243 82.0332 248.688 80.7012C249.132 79.3548 249.354 77.9225 249.354 76.4043Z" stroke="white" stroke-width="2" mask="url(#path-1-outside-1_0_3)"/>
<path d="M100.332 127.251C99.3787 127.251 98.4427 127.121 97.524 126.861C96.6053 126.601 95.8513 126.228 95.262 125.743C94.69 125.257 94.404 124.703 94.404 124.079V121.297H94.872C95.1667 123.03 95.7387 124.287 96.588 125.067C97.4373 125.829 98.6073 126.211 100.098 126.211C101.034 126.211 101.831 125.977 102.49 125.509C103.166 125.041 103.504 124.391 103.504 123.559C103.504 122.831 103.279 122.198 102.828 121.661C102.377 121.123 101.649 120.56 100.644 119.971L97.446 118.073C96.3367 117.414 95.548 116.747 95.08 116.071C94.6293 115.395 94.404 114.571 94.404 113.601C94.404 112.266 94.8633 111.2 95.782 110.403C96.718 109.588 97.94 109.181 99.448 109.181C100.332 109.181 101.207 109.311 102.074 109.571C102.941 109.813 103.651 110.177 104.206 110.663C104.778 111.131 105.064 111.677 105.064 112.301V115.083H104.596C104.301 113.349 103.738 112.11 102.906 111.365C102.091 110.602 100.939 110.221 99.448 110.221C98.6507 110.221 97.9487 110.463 97.342 110.949C96.7353 111.434 96.432 112.067 96.432 112.847C96.432 113.557 96.6487 114.147 97.082 114.615C97.5327 115.083 98.278 115.629 99.318 116.253L102.516 118.151C103.695 118.861 104.527 119.52 105.012 120.127C105.497 120.733 105.74 121.505 105.74 122.441C105.74 123.897 105.255 125.067 104.284 125.951C103.313 126.817 101.996 127.251 100.332 127.251ZM98.174 108.089L96.094 105.099H97.394L99.604 107.179L101.814 105.099H103.114L101.034 108.089H98.174ZM108.969 112.691C108.536 111.685 108.129 111.001 107.747 110.637C107.366 110.255 106.82 110.03 106.109 109.961V109.441C106.196 109.441 106.326 109.432 106.499 109.415C106.655 109.397 106.82 109.389 106.993 109.389C107.86 109.389 108.692 109.614 109.489 110.065C110.287 110.498 110.963 111.373 111.517 112.691L115.963 123.169L117.497 119.607C118.225 117.925 119.621 114.606 121.683 109.649H122.931L115.469 127.069H115.001L108.969 112.691ZM137.483 126.939C136.651 126.939 135.827 126.713 135.013 126.263C134.198 125.795 133.548 124.893 133.063 123.559L132.413 121.869H125.133L123.053 126.809H121.883L129.163 109.649H129.943L135.663 123.559C136.096 124.564 136.503 125.257 136.885 125.639C137.266 126.003 137.812 126.219 138.523 126.289V126.809C138.211 126.895 137.864 126.939 137.483 126.939ZM125.523 120.829H131.893L128.773 113.289L125.523 120.829ZM152.01 127.069C151.092 127.069 150.286 126.8 149.592 126.263C148.916 125.708 148.162 124.72 147.33 123.299L144.73 118.879H142.91V126.809H140.57V112.769C140.57 111.885 140.449 111.235 140.206 110.819C139.964 110.385 139.478 110.169 138.75 110.169H138.23V109.649H144.99C146.637 109.649 148.128 109.978 149.462 110.637C150.814 111.278 151.49 112.509 151.49 114.329C151.49 116.634 150.104 118.107 147.33 118.749L150.06 123.299C150.702 124.373 151.274 125.127 151.776 125.561C152.296 125.977 152.894 126.219 153.57 126.289V126.809C153.414 126.878 153.189 126.939 152.894 126.991C152.617 127.043 152.322 127.069 152.01 127.069ZM144.86 117.969C145.398 117.969 145.978 117.839 146.602 117.579C147.244 117.319 147.781 116.911 148.214 116.357C148.665 115.802 148.89 115.126 148.89 114.329C148.89 113.479 148.665 112.777 148.214 112.223C147.781 111.651 147.244 111.235 146.602 110.975C145.978 110.697 145.398 110.559 144.86 110.559C144.254 110.559 143.604 110.645 142.91 110.819V117.709C143.604 117.882 144.254 117.969 144.86 117.969ZM169.449 126.939C168.617 126.939 167.794 126.713 166.979 126.263C166.165 125.795 165.515 124.893 165.029 123.559L164.379 121.869H157.099L155.019 126.809H153.849L161.129 109.649H161.909L167.629 123.559C168.063 124.564 168.47 125.257 168.851 125.639C169.233 126.003 169.779 126.219 170.489 126.289V126.809C170.177 126.895 169.831 126.939 169.449 126.939ZM157.489 120.829H163.859L160.739 113.289L157.489 120.829Z" fill="white"/>
<line x1="9" y1="118.309" x2="78" y2="118.309" stroke="white" stroke-width="3"/>
<line x1="185" y1="118.309" x2="254" y2="118.309" stroke="white" stroke-width="3"/>
<path d="M67.5 19.5C39 18.5 10.5 36.293 1 43.293C5 41.793 15 38.2142 28 34.4999C42 30.4999 58 27.4999 76 28.9999C94 30.4999 104 34.9999 132 37.4999C166.5 39.4999 192 27.793 182 30.293C172 32.793 147 33.293 127.5 30.293C103 25.793 96 20.5 67.5 19.5Z" fill="#FF0000" stroke="black" stroke-width="1.5"/>
<path d="M140 1.29306C118.5 -1.20695 98.3333 12.9597 92 18.2931C95.1667 17.1264 102 10 121 10C140 10 151 14.8385 157 17.2931C180.5 25.7931 192 26.2931 203.5 26.2931C215 25.5 220 20.6264 221 18.2931L251 12.2931L216.5 10C216 12.6667 211.5 17.6931 203.5 17.2931C195.5 16.8931 184.5 14.0578 179.5 12.2931C171 9.29306 161.5 3.79306 140 1.29306Z" fill="#FF0000" stroke="black" stroke-width="1.5"/>
<path d="M223 24.7931C199.4 38.7931 169 40 156.5 41.2931C161.167 41.9598 166 45 187.5 43.5C209 41.5 215 39 223 36.5C235 40.5 243.5 42 246 43.5C240.667 39 231.5 32 223 24.7931Z" fill="#FF0000" stroke="black" stroke-width="1.5"/>
</svg>
