<svg width="220" height="100" viewBox="0 0 220 100" fill="none" xmlns="http://www.w3.org/2000/svg">
<path d="M67.4452 16.7959C46.0834 16.0667 24.3471 27.7322 17.2266 32.8358C20.2246 31.7421 28.4695 29.1903 37.8386 25.9095C48.332 22.9931 60.699 20.8058 74.1906 21.8995C87.6822 22.9931 94.4276 25.9095 115.415 27.7322C141.274 29.1904 160.387 21.535 152.891 23.3576C145.396 25.1804 126.657 26.274 112.042 24.0867C93.6782 20.8058 88.8063 17.525 67.4452 16.7959Z" fill="url(#paint0_linear_501_188)"/>
<path d="M121.411 2.21367C105.297 0.39093 90.1813 10.7197 85.4346 14.6082C87.8079 13.7576 94.0535 11.3273 103.423 8.77551C112.792 6.22366 127.408 7.46816 136.027 10.749C153.641 16.9463 160.387 20.4409 169.006 20.4409C177.626 19.8627 180.624 15.5803 181.374 13.8791L198.238 10.9628L177.626 10.2337C177.251 12.1779 175.003 15.9935 169.006 15.7018C163.01 15.4102 154.765 11.5203 151.018 10.2337C144.647 8.0464 137.527 4.03641 121.411 2.21367Z" fill="url(#paint1_linear_501_188)"/>
<path d="M183.622 19.3467C165.933 29.5539 143.022 31.6197 133.778 31.3767C137.276 31.8627 140.149 33.1994 156.264 32.1058C172.379 31.0121 177.625 28.4603 183.622 26.6376C191.417 27.8041 197.613 30.283 199.737 31.3767C195.739 28.0958 186.92 21.0965 183.622 19.3467Z" fill="url(#paint2_linear_501_188)"/>
<path d="M17.2266 87.5312H56.7083" stroke="white" stroke-width="2.22571"/>
<path d="M158.766 87.5312H198.247" stroke="white" stroke-width="2.22571"/>
<path d="M144.239 17.0503C142.004 17.7844 86.5059 16.3162 86.5059 16.3162L91.348 14.4806C98.4249 11.911 103.267 9.34142 117.793 9.70851C130.457 10.0756 146.473 16.3161 144.239 17.0503Z" fill="url(#paint3_linear_501_188)"/>
<path d="M81.6518 90.3211C81.6518 90.8196 81.5591 91.2862 81.3736 91.7209C81.1881 92.1498 80.9331 92.5266 80.6085 92.8511C80.2897 93.1699 79.913 93.4221 79.4783 93.6075C79.0494 93.793 78.5886 93.8857 78.0959 93.8857H67.263V92.1034H78.0959C78.3451 92.1034 78.577 92.0571 78.7914 91.9643C79.0059 91.8716 79.1914 91.7441 79.3479 91.5818C79.5102 91.4195 79.6377 91.2311 79.7304 91.0167C79.8232 90.7964 79.8695 90.5646 79.8695 90.3211C79.8695 90.0777 79.8232 89.8487 79.7304 89.6343C79.6377 89.4198 79.5102 89.2315 79.3479 89.0692C79.1914 88.9069 79.0059 88.7794 78.7914 88.6866C78.577 88.5939 78.3451 88.5475 78.0959 88.5475H70.8276C70.3407 88.5475 69.8799 88.4548 69.4452 88.2693C69.0105 88.0838 68.6309 87.8317 68.3063 87.5129C67.9875 87.1883 67.7325 86.8087 67.5412 86.374C67.3557 85.9393 67.263 85.4756 67.263 84.9829C67.263 84.496 67.3557 84.0352 67.5412 83.6005C67.7325 83.1658 67.9875 82.7891 68.3063 82.4703C68.6309 82.1457 69.0105 81.8907 69.4452 81.7052C69.8799 81.5139 70.3407 81.4183 70.8276 81.4183H80.765V83.2006H70.8276C70.5841 83.2006 70.3523 83.247 70.132 83.3397C69.9176 83.4324 69.7292 83.56 69.5669 83.7223C69.4046 83.8845 69.2771 84.0758 69.1844 84.2961C69.0916 84.5105 69.0453 84.7395 69.0453 84.9829C69.0453 85.2263 69.0916 85.4582 69.1844 85.6784C69.2771 85.8929 69.4046 86.0813 69.5669 86.2436C69.7292 86.4059 69.9176 86.5334 70.132 86.6261C70.3523 86.7188 70.5841 86.7652 70.8276 86.7652H78.0959C78.5886 86.7652 79.0494 86.8608 79.4783 87.0521C79.913 87.2376 80.2897 87.4926 80.6085 87.8172C80.9331 88.136 81.1881 88.5127 81.3736 88.9475C81.5591 89.3764 81.6518 89.8343 81.6518 90.3211ZM72.2882 77.8972L74.4531 79.0187L76.6266 77.8972L77.2178 78.7666L74.4531 80.6184L71.697 78.7666L72.2882 77.8972ZM97.5013 81.4183L90.9459 93.8857H88.9115L82.3648 81.4183H84.3905L89.9287 91.9643L95.4669 81.4183H97.5013ZM112.89 93.8857H111.108V90.3211H101.162V88.5475H111.108V83.2006H104.717C104.109 83.2006 103.535 83.3194 102.996 83.5571C102.457 83.7889 101.988 84.1077 101.588 84.5134C101.188 84.9134 100.869 85.3828 100.631 85.9219C100.399 86.4609 100.283 87.0376 100.283 87.652V93.8857H98.5011V87.652C98.5011 87.0782 98.5736 86.5276 98.7185 86.0001C98.8692 85.4669 99.0779 84.9713 99.3445 84.5134C99.6169 84.0497 99.9415 83.6295 100.318 83.2528C100.701 82.8702 101.121 82.5427 101.579 82.2703C102.043 81.9979 102.538 81.7892 103.066 81.6443C103.593 81.4936 104.144 81.4183 104.717 81.4183H112.89V93.8857ZM130.27 93.8857H127.861L124.123 90.3211H118.663V88.5649H125.818C126.189 88.5649 126.537 88.4954 126.862 88.3562C127.186 88.2113 127.467 88.0172 127.705 87.7737C127.948 87.5303 128.14 87.2463 128.279 86.9217C128.418 86.5913 128.487 86.2407 128.487 85.8697C128.487 85.4988 128.418 85.151 128.279 84.8264C128.14 84.5018 127.948 84.2207 127.705 83.9831C127.467 83.7396 127.186 83.5484 126.862 83.4093C126.537 83.2702 126.189 83.2006 125.818 83.2006H117.663V93.8857H115.881V81.4183H125.818C126.433 81.4183 127.009 81.5371 127.548 81.7748C128.087 82.0066 128.557 82.3254 128.957 82.7311C129.363 83.131 129.681 83.6005 129.913 84.1396C130.151 84.6786 130.27 85.2553 130.27 85.8697C130.27 86.4261 130.174 86.9536 129.983 87.4521C129.791 87.9447 129.528 88.3881 129.192 88.7823C128.855 89.1706 128.458 89.4952 128 89.756C127.548 90.011 127.059 90.182 126.531 90.269L130.27 93.8857ZM146.728 93.8857H144.945V90.3211H134.999V88.5475H144.945V83.2006H138.555C137.947 83.2006 137.373 83.3194 136.834 83.5571C136.295 83.7889 135.825 84.1077 135.425 84.5134C135.025 84.9134 134.707 85.3828 134.469 85.9219C134.237 86.4609 134.121 87.0376 134.121 87.652V93.8857H132.339V87.652C132.339 87.0782 132.411 86.5276 132.556 86.0001C132.707 85.4669 132.916 84.9713 133.182 84.5134C133.455 84.0497 133.779 83.6295 134.156 83.2528C134.538 82.8702 134.959 82.5427 135.417 82.2703C135.88 81.9979 136.376 81.7892 136.903 81.6443C137.431 81.4936 137.981 81.4183 138.555 81.4183H146.728V93.8857Z" fill="white"/>
<path d="M81.3736 91.7209L81.7141 91.8681L81.7148 91.8665L81.3736 91.7209ZM80.6085 92.8511L80.8708 93.1134L80.6085 92.8511ZM79.4783 93.6075L79.3327 93.2663L79.3311 93.267L79.4783 93.6075ZM67.263 93.8857H66.892V94.2567H67.263V93.8857ZM67.263 92.1034V91.7325H66.892V92.1034H67.263ZM79.3479 91.5818L79.0855 91.3194L79.0808 91.3243L79.3479 91.5818ZM79.7304 91.0167L80.0709 91.1639L80.0723 91.1606L79.7304 91.0167ZM79.7304 89.6343L80.0709 89.4871L79.7304 89.6343ZM79.3479 89.0692L79.0808 89.3267L79.0856 89.3315L79.3479 89.0692ZM68.3063 87.5129L68.0416 87.7729L68.0463 87.7776L68.3063 87.5129ZM67.5412 86.374L67.2 86.5196L67.2016 86.5234L67.5412 86.374ZM67.5412 83.6005L67.2016 83.4511L67.2 83.455L67.5412 83.6005ZM68.3063 82.4703L68.044 82.208L68.3063 82.4703ZM69.4452 81.7052L69.5908 82.0464L69.5946 82.0447L69.4452 81.7052ZM80.765 81.4183H81.136V81.0473H80.765V81.4183ZM80.765 83.2006V83.5716H81.136V83.2006H80.765ZM70.132 83.3397L69.9881 82.9978L69.9848 82.9992L70.132 83.3397ZM69.1844 84.2961L69.5249 84.4433L69.5263 84.44L69.1844 84.2961ZM69.1844 85.6784L68.8425 85.8224L68.8439 85.8257L69.1844 85.6784ZM70.132 86.6261L69.9848 86.9666L69.9881 86.968L70.132 86.6261ZM79.4783 87.0521L79.3272 87.391L79.3327 87.3933L79.4783 87.0521ZM80.6085 87.8172L80.3438 88.0772L80.3486 88.0819L80.6085 87.8172ZM81.3736 88.9475L81.0324 89.093L81.0331 89.0947L81.3736 88.9475ZM72.2882 77.8972L72.4588 77.5678L72.1666 77.4164L71.9815 77.6886L72.2882 77.8972ZM74.4531 79.0187L74.2824 79.3481L74.4527 79.4363L74.6232 79.3484L74.4531 79.0187ZM76.6266 77.8972L76.9333 77.6886L76.7485 77.4168L76.4565 77.5675L76.6266 77.8972ZM77.2178 78.7666L77.4242 79.0748L77.7346 78.8669L77.5246 78.558L77.2178 78.7666ZM74.4531 80.6184L74.2462 80.9263L74.4527 81.0651L74.6595 80.9266L74.4531 80.6184ZM71.697 78.7666L71.3903 78.558L71.1805 78.8664L71.4901 79.0745L71.697 78.7666ZM81.2809 90.3211C81.2809 90.7723 81.1972 91.1891 81.0324 91.5753L81.7148 91.8665C81.921 91.3832 82.0228 90.8668 82.0228 90.3211H81.2809ZM81.0331 91.5737C80.8659 91.9604 80.6371 92.2979 80.3462 92.5888L80.8708 93.1134C81.2291 92.7552 81.5104 92.3392 81.7141 91.8681L81.0331 91.5737ZM80.3462 92.5888C80.0626 92.8725 79.726 93.0985 79.3327 93.2663L79.6239 93.9487C80.1 93.7456 80.5169 93.4673 80.8708 93.1134L80.3462 92.5888ZM79.3311 93.267C78.9511 93.4313 78.5407 93.5148 78.0959 93.5148V94.2567C78.6364 94.2567 79.1476 94.1547 79.6255 93.948L79.3311 93.267ZM78.0959 93.5148H67.263V94.2567H78.0959V93.5148ZM67.6339 93.8857V92.1034H66.892V93.8857H67.6339ZM67.263 92.4744H78.0959V91.7325H67.263V92.4744ZM78.0959 92.4744C78.3924 92.4744 78.6747 92.419 78.9387 92.3048L78.6442 91.6238C78.4793 91.6952 78.2979 91.7325 78.0959 91.7325V92.4744ZM78.9387 92.3048C79.1965 92.1933 79.4231 92.0382 79.6149 91.8393L79.0808 91.3243C78.9596 91.45 78.8153 91.5499 78.6442 91.6238L78.9387 92.3048ZM79.6102 91.8441C79.8062 91.6481 79.9599 91.4205 80.0709 91.1639L79.3899 90.8694C79.3154 91.0417 79.2142 91.1909 79.0856 91.3195L79.6102 91.8441ZM80.0723 91.1606C80.1846 90.8939 80.2405 90.6131 80.2405 90.3211H79.4986C79.4986 90.5161 79.4617 90.6989 79.3885 90.8727L80.0723 91.1606ZM80.2405 90.3211C80.2405 90.0292 80.1846 89.7499 80.0709 89.4871L79.3899 89.7815C79.4617 89.9475 79.4986 90.1262 79.4986 90.3211H80.2405ZM80.0709 89.4871C79.9599 89.2304 79.8062 89.0028 79.6102 88.8069L79.0856 89.3315C79.2142 89.4601 79.3154 89.6092 79.3899 89.7815L80.0709 89.4871ZM79.6149 88.8117C79.4231 88.6128 79.1965 88.4576 78.9387 88.3461L78.6442 89.0271C78.8153 89.1011 78.9596 89.201 79.0808 89.3267L79.6149 88.8117ZM78.9387 88.3461C78.6747 88.232 78.3924 88.1766 78.0959 88.1766V88.9185C78.2979 88.9185 78.4793 88.9558 78.6442 89.0271L78.9387 88.3461ZM78.0959 88.1766H70.8276V88.9185H78.0959V88.1766ZM70.8276 88.1766C70.3892 88.1766 69.9781 88.0934 69.5908 87.9281L69.2996 88.6105C69.7818 88.8162 70.2922 88.9185 70.8276 88.9185V88.1766ZM69.5908 87.9281C69.197 87.7601 68.8565 87.5334 68.5662 87.2483L68.0463 87.7776C68.4052 88.13 68.824 88.4076 69.2996 88.6105L69.5908 87.9281ZM68.5709 87.253C68.285 86.9618 68.0547 86.62 67.8807 86.2246L67.2016 86.5234C67.4102 86.9973 67.69 87.4149 68.0416 87.7728L68.5709 87.253ZM67.8824 86.2284C67.7174 85.8417 67.6339 85.4277 67.6339 84.9829H66.892C66.892 85.5234 66.994 86.0369 67.2 86.5196L67.8824 86.2284ZM67.6339 84.9829C67.6339 84.5445 67.7171 84.1334 67.8824 83.7461L67.2 83.455C66.9943 83.9371 66.892 84.4475 66.892 84.9829H67.6339ZM67.8807 83.7499C68.0545 83.355 68.284 83.0171 68.5686 82.7326L68.044 82.208C67.6909 82.561 67.4104 82.9766 67.2016 83.4511L67.8807 83.7499ZM68.5686 82.7326C68.8586 82.4425 69.1984 82.2138 69.5908 82.0464L69.2996 81.364C68.8227 81.5675 68.4031 81.8489 68.044 82.208L68.5686 82.7326ZM69.5946 82.0447C69.981 81.8747 70.3908 81.7892 70.8276 81.7892V81.0473C70.2906 81.0473 69.7788 81.1531 69.2958 81.3657L69.5946 82.0447ZM70.8276 81.7892H80.765V81.0473H70.8276V81.7892ZM80.3941 81.4183V83.2006H81.136V81.4183H80.3941ZM80.765 82.8296H70.8276V83.5716H80.765V82.8296ZM70.8276 82.8296C70.5357 82.8296 70.2548 82.8855 69.9881 82.9978L70.276 83.6816C70.4498 83.6084 70.6326 83.5716 70.8276 83.5716V82.8296ZM69.9848 82.9992C69.7282 83.1102 69.5006 83.264 69.3046 83.4599L69.8292 83.9846C69.9578 83.8559 70.107 83.7547 70.2793 83.6802L69.9848 82.9992ZM69.3046 83.4599C69.107 83.6576 68.9531 83.8895 68.8425 84.1521L69.5263 84.44C69.6012 84.2621 69.7023 84.1115 69.8292 83.9846L69.3046 83.4599ZM68.8439 84.1488C68.7302 84.4117 68.6743 84.691 68.6743 84.9829H69.4162C69.4162 84.7879 69.4531 84.6093 69.5249 84.4433L68.8439 84.1488ZM68.6743 84.9829C68.6743 85.2748 68.7302 85.5557 68.8425 85.8224L69.5263 85.5345C69.4531 85.3607 69.4162 85.1778 69.4162 84.9829H68.6743ZM68.8439 85.8257C68.9549 86.0823 69.1086 86.3099 69.3046 86.5059L69.8292 85.9813C69.7006 85.8527 69.5994 85.7035 69.5249 85.5312L68.8439 85.8257ZM69.3046 86.5059C69.5006 86.7018 69.7282 86.8556 69.9848 86.9666L70.2793 86.2856C70.107 86.2111 69.9578 86.1099 69.8292 85.9813L69.3046 86.5059ZM69.9881 86.968C70.2548 87.0803 70.5357 87.1362 70.8276 87.1362V86.3943C70.6326 86.3943 70.4498 86.3574 70.276 86.2842L69.9881 86.968ZM70.8276 87.1362H78.0959V86.3943H70.8276V87.1362ZM78.0959 87.1362C78.5391 87.1362 78.9482 87.2219 79.3272 87.3909L79.6294 86.7133C79.1506 86.4998 78.638 86.3943 78.0959 86.3943V87.1362ZM79.3327 87.3933C79.7246 87.5605 80.0604 87.7885 80.3439 88.0771L80.8732 87.5573C80.5191 87.1967 80.1014 86.9147 79.6239 86.7109L79.3327 87.3933ZM80.3486 88.0819C80.6372 88.3653 80.8652 88.7012 81.0324 89.093L81.7148 88.8019C81.511 88.3243 81.229 87.9067 80.8685 87.5526L80.3486 88.0819ZM81.0331 89.0947C81.1977 89.4752 81.2809 89.8827 81.2809 90.3211H82.0228C82.0228 89.7858 81.9205 89.2776 81.7141 88.8002L81.0331 89.0947ZM72.1176 78.2265L74.2824 79.3481L74.6237 78.6893L72.4588 77.5678L72.1176 78.2265ZM74.6232 79.3484L76.7967 78.2268L76.4565 77.5675L74.283 78.6891L74.6232 79.3484ZM76.3198 78.1057L76.9111 78.9752L77.5246 78.558L76.9333 77.6886L76.3198 78.1057ZM77.0114 78.4584L74.2466 80.3102L74.6595 80.9266L77.4242 79.0748L77.0114 78.4584ZM74.6599 80.3105L71.9039 78.4587L71.4901 79.0745L74.2462 80.9263L74.6599 80.3105ZM72.0038 78.9752L72.595 78.1057L71.9815 77.6886L71.3903 78.558L72.0038 78.9752ZM97.5013 81.4183L97.8296 81.5909L98.1155 81.0473H97.5013V81.4183ZM90.9459 93.8857V94.2567H91.17L91.2742 94.0584L90.9459 93.8857ZM88.9115 93.8857L88.583 94.0582L88.6873 94.2567H88.9115V93.8857ZM82.3648 81.4183V81.0473H81.751L82.0363 81.5908L82.3648 81.4183ZM84.3905 81.4183L84.7189 81.2458L84.6147 81.0473H84.3905V81.4183ZM89.9287 91.9643L89.6003 92.1368L89.9287 92.7622L90.2571 92.1368L89.9287 91.9643ZM95.4669 81.4183V81.0473H95.2427L95.1385 81.2458L95.4669 81.4183ZM97.173 81.2457L90.6176 93.7131L91.2742 94.0584L97.8296 81.5909L97.173 81.2457ZM90.9459 93.5148H88.9115V94.2567H90.9459V93.5148ZM89.2399 93.7133L82.6932 81.2458L82.0363 81.5908L88.583 94.0582L89.2399 93.7133ZM82.3648 81.7892H84.3905V81.0473H82.3648V81.7892ZM84.0621 81.5908L89.6003 92.1368L90.2571 91.7919L84.7189 81.2458L84.0621 81.5908ZM90.2571 92.1368L95.7953 81.5908L95.1385 81.2458L89.6003 91.7919L90.2571 92.1368ZM95.4669 81.7892H97.5013V81.0473H95.4669V81.7892ZM112.89 93.8857V94.2567H113.261V93.8857H112.89ZM111.108 93.8857H110.737V94.2567H111.108V93.8857ZM111.108 90.3211H111.479V89.9502H111.108V90.3211ZM101.162 90.3211H100.791V90.6921H101.162V90.3211ZM101.162 88.5475V88.1766H100.791V88.5475H101.162ZM111.108 88.5475V88.9185H111.479V88.5475H111.108ZM111.108 83.2006H111.479V82.8296H111.108V83.2006ZM102.996 83.5571L103.143 83.8978L103.146 83.8965L102.996 83.5571ZM101.588 84.5134L101.85 84.7757L101.852 84.7738L101.588 84.5134ZM100.631 85.9219L100.292 85.7722L100.29 85.7753L100.631 85.9219ZM100.283 93.8857V94.2567H100.654V93.8857H100.283ZM98.5011 93.8857H98.1302V94.2567H98.5011V93.8857ZM98.7185 86.0001L98.3615 85.8992L98.3608 85.9019L98.7185 86.0001ZM99.3445 84.5134L99.0246 84.3255L99.0239 84.3268L99.3445 84.5134ZM100.318 83.2528L100.581 83.5151L100.318 83.2528ZM101.579 82.2703L101.391 81.9505L101.389 81.9515L101.579 82.2703ZM103.066 81.6443L103.164 82.0021L103.167 82.001L103.066 81.6443ZM112.89 81.4183H113.261V81.0473H112.89V81.4183ZM112.89 93.5148H111.108V94.2567H112.89V93.5148ZM111.479 93.8857V90.3211H110.737V93.8857H111.479ZM111.108 89.9502H101.162V90.6921H111.108V89.9502ZM101.533 90.3211V88.5475H100.791V90.3211H101.533ZM101.162 88.9185H111.108V88.1766H101.162V88.9185ZM111.479 88.5475V83.2006H110.737V88.5475H111.479ZM111.108 82.8296H104.717V83.5716H111.108V82.8296ZM104.717 82.8296C104.059 82.8296 103.434 82.9585 102.846 83.2176L103.146 83.8965C103.636 83.6803 104.159 83.5716 104.717 83.5716V82.8296ZM102.849 83.2163C102.268 83.4665 101.758 83.8121 101.323 84.253L101.852 84.7738C102.217 84.4033 102.646 84.1113 103.143 83.8978L102.849 83.2163ZM101.325 84.2511C100.892 84.6849 100.547 85.193 100.292 85.7722L100.971 86.0715C101.191 85.5727 101.484 85.1419 101.85 84.7757L101.325 84.2511ZM100.29 85.7753C100.038 86.3628 99.9125 86.9896 99.9125 87.652H100.654C100.654 87.0856 100.761 86.559 100.972 86.0684L100.29 85.7753ZM99.9125 87.652V93.8857H100.654V87.652H99.9125ZM100.283 93.5148H98.5011V94.2567H100.283V93.5148ZM98.8721 93.8857V87.652H98.1302V93.8857H98.8721ZM98.8721 87.652C98.8721 87.1098 98.9405 86.5923 99.0762 86.0984L98.3608 85.9019C98.2067 86.4629 98.1302 87.0466 98.1302 87.652H98.8721ZM99.0755 86.101C99.2181 85.5964 99.4148 85.1298 99.665 84.7001L99.0239 84.3268C98.7409 84.8128 98.5203 85.3374 98.3615 85.8992L99.0755 86.101ZM99.6643 84.7013C99.9209 84.2645 100.226 83.8693 100.581 83.5151L100.056 82.9905C99.6567 83.3897 99.3129 83.8349 99.0246 84.3255L99.6643 84.7013ZM100.581 83.5151C100.942 83.154 101.338 82.8456 101.769 82.5891L101.389 81.9515C100.904 82.2399 100.46 82.5865 100.056 82.9905L100.581 83.5151ZM101.767 82.5902C102.202 82.3345 102.667 82.1385 103.164 82.002L102.967 81.2866C102.409 81.44 101.883 81.6613 101.391 81.9505L101.767 82.5902ZM103.167 82.001C103.66 81.8602 104.177 81.7892 104.717 81.7892V81.0473C104.111 81.0473 103.526 81.1271 102.964 81.2877L103.167 82.001ZM104.717 81.7892H112.89V81.0473H104.717V81.7892ZM112.519 81.4183V93.8857H113.261V81.4183H112.519ZM130.27 93.8857V94.2567H131.187L130.528 93.6191L130.27 93.8857ZM127.861 93.8857L127.605 94.1542L127.713 94.2567H127.861V93.8857ZM124.123 90.3211L124.379 90.0527L124.271 89.9502H124.123V90.3211ZM118.663 90.3211H118.292V90.6921H118.663V90.3211ZM118.663 88.5649V88.194H118.292V88.5649H118.663ZM126.862 88.3562L127.008 88.6972L127.013 88.695L126.862 88.3562ZM127.705 87.7737L127.443 87.5114L127.439 87.5146L127.705 87.7737ZM128.279 86.9217L128.62 87.0678L128.621 87.0657L128.279 86.9217ZM128.279 84.8264L128.62 84.6803L128.279 84.8264ZM127.705 83.9831L127.439 84.2423L127.446 84.2485L127.705 83.9831ZM117.663 83.2006V82.8296H117.292V83.2006H117.663ZM117.663 93.8857V94.2567H118.034V93.8857H117.663ZM115.881 93.8857H115.51V94.2567H115.881V93.8857ZM115.881 81.4183V81.0473H115.51V81.4183H115.881ZM127.548 81.7748L127.399 82.1142L127.402 82.1155L127.548 81.7748ZM128.957 82.7311L128.693 82.9916L128.696 82.9953L128.957 82.7311ZM129.913 84.1396L129.572 84.2861L129.574 84.2892L129.913 84.1396ZM129.983 87.4521L130.329 87.5863L130.329 87.5849L129.983 87.4521ZM129.192 88.7823L129.472 89.0251L129.474 89.023L129.192 88.7823ZM128 89.756L128.183 90.0791L128.184 90.0783L128 89.756ZM126.531 90.269L126.471 89.903L125.743 90.0229L126.273 90.5356L126.531 90.269ZM130.27 93.5148H127.861V94.2567H130.27V93.5148ZM128.117 93.6173L124.379 90.0527L123.867 90.5896L127.605 94.1542L128.117 93.6173ZM124.123 89.9502H118.663V90.6921H124.123V89.9502ZM119.034 90.3211V88.5649H118.292V90.3211H119.034ZM118.663 88.9359H125.818V88.194H118.663V88.9359ZM125.818 88.9359C126.237 88.9359 126.635 88.8571 127.008 88.6972L126.715 88.0153C126.439 88.1336 126.142 88.194 125.818 88.194V88.9359ZM127.013 88.695C127.378 88.5319 127.699 88.3113 127.97 88.0329L127.439 87.5146C127.236 87.7231 126.994 87.8908 126.71 88.0175L127.013 88.695ZM127.967 88.036C128.245 87.7584 128.462 87.4347 128.62 87.0678L127.938 86.7756C127.817 87.0579 127.652 87.3022 127.443 87.5114L127.967 88.036ZM128.621 87.0657C128.78 86.6881 128.858 86.2883 128.858 85.8697H128.116C128.116 86.193 128.056 86.4945 127.937 86.7778L128.621 87.0657ZM128.858 85.8697C128.858 85.4511 128.78 85.0534 128.62 84.6803L127.938 84.9725C128.056 85.2486 128.116 85.5464 128.116 85.8697H128.858ZM128.62 84.6803C128.462 84.3127 128.244 83.9906 127.964 83.7176L127.446 84.2485C127.653 84.4509 127.817 84.691 127.938 84.9725L128.62 84.6803ZM127.97 83.724C127.697 83.4443 127.375 83.2258 127.008 83.0683L126.715 83.7502C126.997 83.8709 127.237 84.0349 127.439 84.2422L127.97 83.724ZM127.008 83.0683C126.635 82.9084 126.237 82.8296 125.818 82.8296V83.5716C126.142 83.5716 126.439 83.6319 126.715 83.7502L127.008 83.0683ZM125.818 82.8296H117.663V83.5716H125.818V82.8296ZM117.292 83.2006V93.8857H118.034V83.2006H117.292ZM117.663 93.5148H115.881V94.2567H117.663V93.5148ZM116.252 93.8857V81.4183H115.51V93.8857H116.252ZM115.881 81.7892H125.818V81.0473H115.881V81.7892ZM125.818 81.7892C126.383 81.7892 126.909 81.8982 127.399 82.1142L127.698 81.4353C127.11 81.176 126.482 81.0473 125.818 81.0473V81.7892ZM127.402 82.1155C127.898 82.329 128.327 82.621 128.693 82.9915L129.221 82.4707C128.786 82.0298 128.277 81.6842 127.695 81.434L127.402 82.1155ZM128.696 82.9953C129.067 83.3606 129.359 83.7898 129.572 84.2861L130.254 83.993C130.004 83.4113 129.658 82.9015 129.217 82.4669L128.696 82.9953ZM129.574 84.2892C129.79 84.7791 129.899 85.3046 129.899 85.8697H130.641C130.641 85.2061 130.512 84.5781 130.253 83.9899L129.574 84.2892ZM129.899 85.8697C129.899 86.3827 129.811 86.8649 129.636 87.3192L130.329 87.5849C130.537 87.0423 130.641 86.4696 130.641 85.8697H129.899ZM129.637 87.3178C129.46 87.7725 129.218 88.1797 128.909 88.5415L129.474 89.023C129.838 88.5965 130.123 88.117 130.329 87.5863L129.637 87.3178ZM128.911 88.5395C128.603 88.8952 128.239 89.1931 127.817 89.4337L128.184 90.0783C128.678 89.7972 129.108 89.446 129.472 89.025L128.911 88.5395ZM127.818 89.4329C127.405 89.666 126.957 89.8229 126.471 89.903L126.591 90.635C127.16 90.5412 127.692 90.3561 128.183 90.0791L127.818 89.4329ZM126.273 90.5356L130.012 94.1523L130.528 93.6191L126.789 90.0024L126.273 90.5356ZM146.728 93.8857V94.2567H147.099V93.8857H146.728ZM144.945 93.8857H144.574V94.2567H144.945V93.8857ZM144.945 90.3211H145.316V89.9502H144.945V90.3211ZM134.999 90.3211H134.628V90.6921H134.999V90.3211ZM134.999 88.5475V88.1766H134.628V88.5475H134.999ZM144.945 88.5475V88.9185H145.316V88.5475H144.945ZM144.945 83.2006H145.316V82.8296H144.945V83.2006ZM136.834 83.5571L136.98 83.8978L136.983 83.8965L136.834 83.5571ZM135.425 84.5134L135.688 84.7757L135.689 84.7738L135.425 84.5134ZM134.469 85.9219L134.129 85.7722L134.128 85.7753L134.469 85.9219ZM134.121 93.8857V94.2567H134.492V93.8857H134.121ZM132.339 93.8857H131.968V94.2567H132.339V93.8857ZM132.556 86.0001L132.199 85.8992L132.199 85.9019L132.556 86.0001ZM133.182 84.5134L132.862 84.3255L132.862 84.3268L133.182 84.5134ZM134.156 83.2528L134.418 83.5151L134.156 83.2528ZM135.417 82.2703L135.229 81.9505L135.227 81.9515L135.417 82.2703ZM136.903 81.6443L137.002 82.0021L137.005 82.001L136.903 81.6443ZM146.728 81.4183H147.099V81.0473H146.728V81.4183ZM146.728 93.5148H144.945V94.2567H146.728V93.5148ZM145.316 93.8857V90.3211H144.574V93.8857H145.316ZM144.945 89.9502H134.999V90.6921H144.945V89.9502ZM135.37 90.3211V88.5475H134.628V90.3211H135.37ZM134.999 88.9185H144.945V88.1766H134.999V88.9185ZM145.316 88.5475V83.2006H144.574V88.5475H145.316ZM144.945 82.8296H138.555V83.5716H144.945V82.8296ZM138.555 82.8296C137.897 82.8296 137.272 82.9585 136.684 83.2176L136.983 83.8965C137.474 83.6803 137.996 83.5716 138.555 83.5716V82.8296ZM136.687 83.2163C136.105 83.4665 135.596 83.8121 135.161 84.253L135.689 84.7738C136.055 84.4033 136.484 84.1113 136.98 83.8978L136.687 83.2163ZM135.163 84.2511C134.729 84.6849 134.385 85.193 134.13 85.7722L134.808 86.0715C135.028 85.5727 135.321 85.1419 135.688 84.7757L135.163 84.2511ZM134.128 85.7753C133.875 86.3628 133.75 86.9896 133.75 87.652H134.492C134.492 87.0856 134.599 86.559 134.81 86.0684L134.128 85.7753ZM133.75 87.652V93.8857H134.492V87.652H133.75ZM134.121 93.5148H132.339V94.2567H134.121V93.5148ZM132.71 93.8857V87.652H131.968V93.8857H132.71ZM132.71 87.652C132.71 87.1098 132.778 86.5923 132.914 86.0984L132.199 85.9019C132.044 86.4629 131.968 87.0466 131.968 87.652H132.71ZM132.913 86.101C133.056 85.5964 133.253 85.1298 133.503 84.7001L132.862 84.3268C132.579 84.8128 132.358 85.3374 132.199 85.8992L132.913 86.101ZM133.502 84.7013C133.759 84.2645 134.064 83.8693 134.418 83.5151L133.894 82.9905C133.494 83.3897 133.151 83.8349 132.862 84.3255L133.502 84.7013ZM134.418 83.5151C134.779 83.154 135.175 82.8456 135.606 82.5891L135.227 81.9515C134.742 82.2399 134.298 82.5865 133.894 82.9905L134.418 83.5151ZM135.605 82.5902C136.04 82.3345 136.505 82.1385 137.002 82.002L136.805 81.2866C136.247 81.44 135.721 81.6613 135.229 81.9505L135.605 82.5902ZM137.005 82.001C137.498 81.8602 138.014 81.7892 138.555 81.7892V81.0473C137.949 81.0473 137.363 81.1271 136.801 81.2877L137.005 82.001ZM138.555 81.7892H146.728V81.0473H138.555V81.7892ZM146.357 81.4183V93.8857H147.099V81.4183H146.357Z" fill="#5E5E5E"/>
<mask id="mask0_501_188" style="mask-type:alpha" maskUnits="userSpaceOnUse" x="17" y="44" width="184" height="25">
<path d="M201 44.7222H17V68.95H201V44.7222Z" fill="white"/>
<path d="M41.4789 68.0758H17.7441V45.4565H41.4789V48.6906H21.0251V64.8424H41.4789V68.0758ZM38.6941 58.3912H22.6575V55.1572H38.6941V58.3912Z" fill="black"/>
<path d="M58.0122 68.0758H54.7315V48.6906H43.1279V45.4565H69.6154V48.6906H58.0122V68.0758Z" fill="black"/>
<path d="M110.572 68.0758H107.29V61.6084H88.9812V58.3912H107.29V48.6906H95.527C94.4066 48.6906 93.351 48.9057 92.358 49.3374C91.3658 49.7573 90.5016 50.3359 89.7656 51.0722C89.0296 51.7976 88.4426 52.6493 88.0053 53.6272C87.5785 54.6051 87.3647 55.6513 87.3647 56.7665V68.0758H84.084V56.7665C84.084 55.7255 84.2173 54.7262 84.484 53.7696C84.7619 52.802 85.1455 51.9026 85.6364 51.0722C86.1378 50.2309 86.7352 49.4688 87.4288 48.7853C88.1335 48.0908 88.9067 47.4968 89.75 47.0027C90.6029 46.5086 91.5155 46.1298 92.4861 45.8669C93.4575 45.5938 94.4707 45.4565 95.527 45.4565H110.572V68.0758Z" fill="black"/>
<path d="M140.66 45.4565L140.628 56.7665C140.628 57.8179 140.489 58.8273 140.212 59.795C139.945 60.7516 139.561 61.651 139.06 62.4924C138.569 63.3227 137.971 64.0848 137.267 64.7793C136.574 65.4628 135.8 66.0516 134.946 66.5457C134.104 67.0296 133.196 67.4077 132.226 67.6815C131.255 67.9443 130.241 68.0758 129.185 68.0758H126.768C125.712 68.0758 124.693 67.9443 123.711 67.6815C122.74 67.4077 121.828 67.0244 120.975 66.5303C120.132 66.0355 119.364 65.4467 118.67 64.7632C117.976 64.0694 117.379 63.3073 116.878 62.4762C116.387 61.6348 116.002 60.7362 115.725 59.7788C115.459 58.8119 115.325 57.8076 115.325 56.7665V45.4565H118.606V56.7665C118.606 57.881 118.819 58.9323 119.246 59.9213C119.673 60.8992 120.254 61.756 120.99 62.4924C121.738 63.2177 122.607 63.7904 123.599 64.2111C124.591 64.6317 125.648 64.8424 126.768 64.8424H129.185C130.316 64.8424 131.377 64.6317 132.369 64.2111C133.362 63.7904 134.227 63.2177 134.963 62.4924C135.699 61.756 136.28 60.8992 136.707 59.9213C137.134 58.9323 137.347 57.881 137.347 56.7665V45.4565H140.66Z" fill="black"/>
<path d="M157.849 68.0758H154.568V48.6906H142.965V45.4565H169.453V48.6906H157.849V68.0758Z" fill="black"/>
<path d="M199.557 56.7665C199.557 58.3332 199.306 59.8053 198.805 61.1826C198.303 62.5606 197.588 63.7588 196.66 64.7793C195.742 65.7991 194.638 66.6037 193.347 67.1925C192.056 67.7813 190.621 68.0758 189.042 68.0758H181.408C179.818 68.0758 178.372 67.7813 177.07 67.1925C175.769 66.6037 174.654 65.7991 173.725 64.7793C172.808 63.7588 172.098 62.5606 171.597 61.1826C171.095 59.8053 170.845 58.3332 170.845 56.7665C170.845 55.2101 171.095 53.7483 171.597 52.3813C172.098 51.004 172.808 49.8051 173.725 48.7853C174.654 47.7545 175.769 46.9447 177.07 46.3559C178.372 45.7568 179.818 45.4565 181.408 45.4565H189.042C190.621 45.4565 192.056 45.7568 193.347 46.3559C194.638 46.9447 195.742 47.7545 196.66 48.7853C197.588 49.8051 198.303 51.004 198.805 52.3813C199.306 53.7483 199.557 55.2101 199.557 56.7665ZM196.276 56.7665C196.276 55.6513 196.111 54.6051 195.78 53.6272C195.449 52.6493 194.969 51.7976 194.339 51.0722C193.72 50.3359 192.963 49.7573 192.067 49.3374C191.181 48.9057 190.173 48.6906 189.042 48.6906H181.408C180.276 48.6906 179.257 48.9057 178.351 49.3374C177.455 49.7573 176.692 50.3359 176.062 51.0722C175.443 51.7976 174.963 52.6493 174.622 53.6272C174.291 54.6051 174.125 55.6513 174.125 56.7665C174.125 57.881 174.291 58.9323 174.622 59.9213C174.963 60.8992 175.443 61.756 176.062 62.4924C176.692 63.2177 177.455 63.7904 178.351 64.2111C179.257 64.6317 180.276 64.8424 181.408 64.8424H189.042C190.173 64.8424 191.181 64.6317 192.067 64.2111C192.963 63.7904 193.72 63.2177 194.339 62.4924C194.969 61.756 195.449 60.8992 195.78 59.9213C196.111 58.9323 196.276 57.881 196.276 56.7665Z" fill="black"/>
</mask>
<g mask="url(#mask0_501_188)">
<path d="M41.4789 68.0758H17.7441V45.4565H41.4789V48.6906H21.0251V64.8424H41.4789V68.0758ZM38.6941 58.3912H22.6575V55.1572H38.6941V58.3912Z" fill="white"/>
<path d="M58.0122 68.0758H54.7315V48.6906H43.1279V45.4565H69.6154V48.6906H58.0122V68.0758Z" fill="white"/>
<path d="M110.572 68.0758H107.29V61.6084H88.9812V58.3912H107.29V48.6906H95.527C94.4066 48.6906 93.351 48.9057 92.358 49.3374C91.3658 49.7573 90.5016 50.3359 89.7656 51.0722C89.0296 51.7976 88.4426 52.6493 88.0053 53.6272C87.5785 54.6051 87.3647 55.6513 87.3647 56.7665V68.0758H84.084V56.7665C84.084 55.7255 84.2173 54.7262 84.484 53.7696C84.7619 52.802 85.1455 51.9026 85.6364 51.0722C86.1378 50.2309 86.7352 49.4688 87.4288 48.7853C88.1335 48.0908 88.9067 47.4968 89.75 47.0027C90.6029 46.5086 91.5155 46.1298 92.4861 45.8669C93.4575 45.5938 94.4707 45.4565 95.527 45.4565H110.572V68.0758Z" fill="white"/>
<path d="M140.66 45.4565L140.628 56.7665C140.628 57.8179 140.489 58.8273 140.212 59.795C139.945 60.7516 139.561 61.651 139.06 62.4924C138.569 63.3227 137.971 64.0848 137.267 64.7793C136.574 65.4628 135.8 66.0516 134.946 66.5457C134.104 67.0296 133.196 67.4077 132.226 67.6815C131.255 67.9443 130.241 68.0758 129.185 68.0758H126.768C125.712 68.0758 124.693 67.9443 123.711 67.6815C122.74 67.4077 121.828 67.0244 120.975 66.5303C120.132 66.0355 119.364 65.4467 118.67 64.7632C117.976 64.0694 117.379 63.3073 116.878 62.4762C116.387 61.6348 116.002 60.7362 115.725 59.7788C115.459 58.8119 115.325 57.8076 115.325 56.7665V45.4565H118.606V56.7665C118.606 57.881 118.819 58.9323 119.246 59.9213C119.673 60.8992 120.254 61.756 120.99 62.4924C121.738 63.2177 122.607 63.7904 123.599 64.2111C124.591 64.6317 125.648 64.8424 126.768 64.8424H129.185C130.316 64.8424 131.377 64.6317 132.369 64.2111C133.362 63.7904 134.227 63.2177 134.963 62.4924C135.699 61.756 136.28 60.8992 136.707 59.9213C137.134 58.9323 137.347 57.881 137.347 56.7665V45.4565H140.66Z" fill="white"/>
<path d="M157.849 68.0758H154.568V48.6906H142.965V45.4565H169.453V48.6906H157.849V68.0758Z" fill="white"/>
<path d="M199.557 56.7665C199.557 58.3332 199.306 59.8053 198.805 61.1826C198.303 62.5606 197.588 63.7588 196.66 64.7793C195.742 65.7991 194.638 66.6037 193.347 67.1925C192.056 67.7813 190.621 68.0758 189.042 68.0758H181.408C179.818 68.0758 178.372 67.7813 177.07 67.1925C175.769 66.6037 174.654 65.7991 173.725 64.7793C172.808 63.7588 172.098 62.5606 171.597 61.1826C171.095 59.8053 170.845 58.3332 170.845 56.7665C170.845 55.2101 171.095 53.7483 171.597 52.3813C172.098 51.004 172.808 49.8051 173.725 48.7853C174.654 47.7545 175.769 46.9447 177.07 46.3559C178.372 45.7568 179.818 45.4565 181.408 45.4565H189.042C190.621 45.4565 192.056 45.7568 193.347 46.3559C194.638 46.9447 195.742 47.7545 196.66 48.7853C197.588 49.8051 198.303 51.004 198.805 52.3813C199.306 53.7483 199.557 55.2101 199.557 56.7665ZM196.276 56.7665C196.276 55.6513 196.111 54.6051 195.78 53.6272C195.449 52.6493 194.969 51.7976 194.339 51.0722C193.72 50.3359 192.963 49.7573 192.067 49.3374C191.181 48.9057 190.173 48.6906 189.042 48.6906H181.408C180.276 48.6906 179.257 48.9057 178.351 49.3374C177.455 49.7573 176.692 50.3359 176.062 51.0722C175.443 51.7976 174.963 52.6493 174.622 53.6272C174.291 54.6051 174.125 55.6513 174.125 56.7665C174.125 57.881 174.291 58.9323 174.622 59.9213C174.963 60.8992 175.443 61.756 176.062 62.4924C176.692 63.2177 177.455 63.7904 178.351 64.2111C179.257 64.6317 180.276 64.8424 181.408 64.8424H189.042C190.173 64.8424 191.181 64.6317 192.067 64.2111C192.963 63.7904 193.72 63.2177 194.339 62.4924C194.969 61.756 195.449 60.8992 195.78 59.9213C196.111 58.9323 196.276 57.881 196.276 56.7665Z" fill="white"/>
</g>
<defs>
<linearGradient id="paint0_linear_501_188" x1="150.268" y1="24.6021" x2="23.6082" y2="29.6102" gradientUnits="userSpaceOnUse">
<stop stop-color="#FF0000"/>
<stop offset="1" stop-color="#FF7474"/>
</linearGradient>
<linearGradient id="paint1_linear_501_188" x1="195.615" y1="17.3109" x2="90.8122" y2="1.14971" gradientUnits="userSpaceOnUse">
<stop stop-color="#FF0000"/>
<stop offset="1" stop-color="#FF4F4F"/>
</linearGradient>
<linearGradient id="paint2_linear_501_188" x1="194.115" y1="26.0594" x2="139.071" y2="32.9884" gradientUnits="userSpaceOnUse">
<stop stop-color="#FF0000"/>
<stop offset="1" stop-color="#FF5B5B"/>
</linearGradient>
<linearGradient id="paint3_linear_501_188" x1="116.862" y1="9.70851" x2="116.862" y2="16.6832" gradientUnits="userSpaceOnUse">
<stop stop-color="white"/>
<stop offset="0.505208" stop-color="#818181"/>
<stop offset="1" stop-color="#1E2227"/>
</linearGradient>
</defs>
</svg>
