<svg width="20" height="20" viewBox="0 0 20 20" fill="none" xmlns="http://www.w3.org/2000/svg">
<g clip-path="url(#clip0_247_4572)">
<path d="M17.6219 15.4146C16.7253 16.2081 15.4259 16.7772 13.7236 17.122C12.0213 17.4667 10.2671 17.5675 8.46085 17.4244L5.03032 20V16.7805C3.8998 16.4293 3.01618 15.974 2.37945 15.4146C1.62577 14.7512 1.04102 13.7984 0.625198 12.5561C0.209376 11.3138 0.00146484 10.0455 0.00146484 8.75122C0.00146484 7.45691 0.209376 6.18862 0.625198 4.94634C1.04102 3.70407 1.62902 2.74797 2.38919 2.07805C3.14937 1.40813 4.23766 0.894309 5.65405 0.536585C7.07045 0.178862 8.51933 0 10.0007 0C11.4821 0 12.9309 0.178862 14.3473 0.536585C15.7637 0.894309 16.852 1.40813 17.6122 2.07805C18.3724 2.74797 18.9604 3.70407 19.3762 4.94634C19.792 6.18862 19.9999 7.45691 19.9999 8.75122C19.9999 10.0455 19.792 11.3138 19.3762 12.5561C18.9604 13.7984 18.3756 14.7512 17.6219 15.4146ZM12.4566 10.6341L13.7236 10.8488C13.6196 9.2878 13.0187 7.95447 11.9206 6.84878C10.8226 5.74309 9.49391 5.13821 7.93458 5.03415L8.14898 6.30244C9.26651 6.44553 10.2281 6.92033 11.0338 7.72683C11.8394 8.53333 12.3137 9.50244 12.4566 10.6341ZM8.36339 7.60976L8.59729 9.01463C9.11707 9.2748 9.50041 9.65854 9.7473 10.1659L11.1507 10.4C10.9948 9.71057 10.6634 9.11545 10.1566 8.61463C9.64984 8.11382 9.0521 7.77886 8.36339 7.60976ZM6.27778 8.76098V7.5122C6.27778 7.29106 6.19657 7.06992 6.03414 6.84878C5.87171 6.62764 5.69953 6.46829 5.51761 6.37073C5.33569 6.27317 5.19924 6.26341 5.10828 6.34146L4.21167 7.25854C3.70488 7.76585 3.63016 8.5561 3.98751 9.62927C4.34486 10.7024 5.02707 11.7431 6.03414 12.7512C7.04121 13.7593 8.08076 14.4423 9.15281 14.8C10.2248 15.1577 11.0078 15.0829 11.5016 14.5756L12.4177 13.6585C12.5086 13.5805 12.5054 13.4472 12.4079 13.2585C12.3105 13.0699 12.1513 12.8976 11.9304 12.7415C11.7095 12.5854 11.4886 12.5073 11.2677 12.5073H10.0202L9.29899 13.1317C8.72724 12.9756 8.01579 12.4715 7.16466 11.6195C6.31352 10.7675 5.80998 10.0488 5.65405 9.46341L6.27778 8.76098ZM7.52525 2.51707L7.72017 3.78537C9.01961 3.81138 10.2216 4.15285 11.3261 4.80976C12.4307 5.46667 13.3078 6.34472 13.9575 7.4439C14.6072 8.54309 14.9516 9.74309 14.9906 11.0439L16.2575 11.2585C16.2575 10.0748 16.0269 8.94309 15.5656 7.86341C15.1043 6.78374 14.4838 5.85366 13.7041 5.07317C12.9244 4.29268 11.9953 3.67154 10.9168 3.20976C9.83826 2.74797 8.70775 2.51707 7.52525 2.51707Z" fill="#00E472"/>
</g>
<defs>
<clipPath id="clip0_247_4572">
<rect width="20" height="20" fill="white"/>
</clipPath>
</defs>
</svg>
