<svg width="349" height="326" viewBox="0 0 349 326" fill="none" xmlns="http://www.w3.org/2000/svg">
<path opacity="0.15" d="M97.9942 208.737C136 200.5 32.8712 252.755 10.9353 268.657C-11.0007 284.559 77.2174 236.152 100.501 225.997L265.33 140.483C265.33 140.483 354.5 96.8042 309 114C263.5 131.196 407 58.8955 407 58.8955L397.888 58.8955C279.923 120.557 74.5004 213.828 97.9942 208.737Z" fill="#9F23BF" stroke="black"/>
<mask id="mask0_1170_2103" style="mask-type:alpha" maskUnits="userSpaceOnUse" x="178" y="146" width="38" height="39">
<circle cx="197" cy="165.001" r="19" fill="white"/>
</mask>
<g mask="url(#mask0_1170_2103)">
<path style="mix-blend-mode:screen" d="M133.79 134.946C151.493 100.588 193.7 87.0824 228.057 104.79C262.419 122.493 275.914 164.701 258.212 199.058C240.51 233.416 198.307 246.917 163.945 229.214C129.583 211.511 116.083 169.308 133.79 134.946Z" fill="url(#paint0_radial_1170_2103)"/>
</g>
<path style="mix-blend-mode:screen" d="M193.882 165.056C181.29 75.3205 178.323 1.57022 187.249 0.309234C196.149 -0.951783 213.541 70.7987 226.121 160.522C238.688 250.271 241.655 324.021 232.742 325.269C223.842 326.517 206.449 254.78 193.882 165.044L193.882 165.056Z" fill="url(#paint1_radial_1170_2103)"/>
<path style="mix-blend-mode:screen" d="M191.375 175.711C109.567 172.844 43.2477 167.899 43.2669 164.669C43.2778 161.439 109.603 161.176 191.419 164.056C273.235 166.937 339.547 171.882 339.528 175.111C339.533 178.341 273.192 178.617 191.375 175.724L191.375 175.711Z" fill="url(#paint2_radial_1170_2103)"/>
<path style="mix-blend-mode:screen" d="M181.835 172.177C121.132 139.381 74.5695 108.774 77.8686 103.792C81.1435 98.8247 132.997 121.4 193.698 154.21C254.406 187.009 300.961 217.627 297.665 222.595C294.387 227.576 242.524 204.994 181.83 172.174L181.835 172.177Z" fill="url(#paint3_radial_1170_2103)"/>
<path style="mix-blend-mode:screen" d="M203.191 167.195C144.837 223.263 94.5546 265.579 90.8976 261.68C87.2449 257.805 131.593 209.239 189.971 153.167C248.34 97.1013 298.611 54.8076 302.262 58.698C305.93 62.5755 261.564 111.154 203.191 167.195Z" fill="url(#paint4_radial_1170_2103)"/>
<defs>
<radialGradient id="paint0_radial_1170_2103" cx="0" cy="0" r="1" gradientUnits="userSpaceOnUse" gradientTransform="translate(196.059 167.038) rotate(-152.74) scale(69.9882 69.9888)">
<stop offset="0.06" stop-color="white"/>
<stop offset="0.07" stop-color="#FFF5E7"/>
<stop offset="0.11" stop-color="#FFCD85"/>
<stop offset="0.15" stop-color="#FFB03D"/>
<stop offset="0.17" stop-color="#FF9E11"/>
<stop offset="0.18" stop-color="#FF9800"/>
<stop offset="0.19" stop-color="#F59200"/>
<stop offset="0.22" stop-color="#C77700"/>
<stop offset="0.26" stop-color="#9C5D00"/>
<stop offset="0.3" stop-color="#774600"/>
<stop offset="0.34" stop-color="#563300"/>
<stop offset="0.39" stop-color="#3B2300"/>
<stop offset="0.44" stop-color="#251600"/>
<stop offset="0.51" stop-color="#140C00"/>
<stop offset="0.58" stop-color="#080500"/>
<stop offset="0.69" stop-color="#010100"/>
<stop offset="1"/>
</radialGradient>
<radialGradient id="paint1_radial_1170_2103" cx="0" cy="0" r="1" gradientUnits="userSpaceOnUse" gradientTransform="translate(191.965 164.033) rotate(171.997) scale(16.1797 163.88)">
<stop stop-color="white"/>
<stop offset="0.14" stop-color="#FFBA54"/>
<stop offset="0.21" stop-color="#FF9800"/>
<stop offset="0.24" stop-color="#D98100"/>
<stop offset="0.29" stop-color="#AC6600"/>
<stop offset="0.34" stop-color="#834E00"/>
<stop offset="0.39" stop-color="#5F3900"/>
<stop offset="0.45" stop-color="#412700"/>
<stop offset="0.51" stop-color="#291800"/>
<stop offset="0.59" stop-color="#160D00"/>
<stop offset="0.67" stop-color="#090500"/>
<stop offset="0.78" stop-color="#020100"/>
<stop offset="1"/>
</radialGradient>
<radialGradient id="paint2_radial_1170_2103" cx="0" cy="0" r="1" gradientUnits="userSpaceOnUse" gradientTransform="translate(195.348 166.067) rotate(90.1634) scale(6.07554 148.369)">
<stop stop-color="white"/>
<stop offset="0.14" stop-color="#FFBA54"/>
<stop offset="0.21" stop-color="#FF9800"/>
<stop offset="0.24" stop-color="#D98100"/>
<stop offset="0.29" stop-color="#AC6600"/>
<stop offset="0.34" stop-color="#834E00"/>
<stop offset="0.39" stop-color="#5F3900"/>
<stop offset="0.45" stop-color="#412700"/>
<stop offset="0.51" stop-color="#291800"/>
<stop offset="0.59" stop-color="#160D00"/>
<stop offset="0.67" stop-color="#090500"/>
<stop offset="0.78" stop-color="#020100"/>
<stop offset="1"/>
</radialGradient>
<radialGradient id="paint3_radial_1170_2103" cx="0" cy="0" r="1" gradientUnits="userSpaceOnUse" gradientTransform="translate(191.005 161.189) rotate(123.422) scale(11.1077 124.521)">
<stop stop-color="white"/>
<stop offset="0.14" stop-color="#FFBA54"/>
<stop offset="0.21" stop-color="#FF9800"/>
<stop offset="0.24" stop-color="#D98100"/>
<stop offset="0.29" stop-color="#AC6600"/>
<stop offset="0.34" stop-color="#834E00"/>
<stop offset="0.39" stop-color="#5F3900"/>
<stop offset="0.45" stop-color="#412700"/>
<stop offset="0.51" stop-color="#291800"/>
<stop offset="0.59" stop-color="#160D00"/>
<stop offset="0.67" stop-color="#090500"/>
<stop offset="0.78" stop-color="#020100"/>
<stop offset="1"/>
</radialGradient>
<radialGradient id="paint4_radial_1170_2103" cx="0" cy="0" r="1" gradientUnits="userSpaceOnUse" gradientTransform="translate(196.132 166.84) rotate(46.7003) scale(9.94497 146.164)">
<stop stop-color="white"/>
<stop offset="0.14" stop-color="#FFBA54"/>
<stop offset="0.21" stop-color="#FF9800"/>
<stop offset="0.24" stop-color="#D98100"/>
<stop offset="0.29" stop-color="#AC6600"/>
<stop offset="0.34" stop-color="#834E00"/>
<stop offset="0.39" stop-color="#5F3900"/>
<stop offset="0.45" stop-color="#412700"/>
<stop offset="0.51" stop-color="#291800"/>
<stop offset="0.59" stop-color="#160D00"/>
<stop offset="0.67" stop-color="#090500"/>
<stop offset="0.78" stop-color="#020100"/>
<stop offset="1"/>
</radialGradient>
</defs>
</svg>
